<svg width="49" height="48" viewBox="0 0 49 48" fill="none" xmlns="http://www.w3.org/2000/svg">
<path d="M35.3001 34C35.0441 34 34.7881 33.902 34.5931 33.707L14.5931 13.707C14.2021 13.316 14.2021 12.684 14.5931 12.293C14.9841 11.902 15.6161 11.902 16.0071 12.293L36.0071 32.293C36.3981 32.684 36.3981 33.316 36.0071 33.707C35.8121 33.902 35.5561 34 35.3001 34Z" fill="#004C97"/>
<path d="M11.3001 38C11.0441 38 10.7881 37.902 10.5931 37.707C10.2021 37.316 10.2021 36.684 10.5931 36.293L20.5981 26.298C20.9891 25.908 21.6211 25.907 22.0121 26.298C22.4031 26.689 22.4031 27.321 22.0121 27.712L12.0071 37.707C11.8121 37.902 11.5561 38 11.3001 38Z" fill="#004C97"/>
<path d="M34.4986 27.8016L30.0841 32.2161C29.3031 32.9972 29.3031 34.2635 30.0841 35.0445L39.4717 44.4321C40.2527 45.2131 41.5191 45.2131 42.3001 44.4321L46.7146 40.0176C47.4956 39.2366 47.4956 37.9702 46.7146 37.1892L37.327 27.8016C36.546 27.0206 35.2797 27.0206 34.4986 27.8016Z" fill="white"/>
<path d="M38.8501 43.811L41.7741 40.888L43.8091 42.923L45.2231 41.509L43.1881 39.474L46.0931 36.568L44.6791 35.154L41.7741 38.06L39.8221 36.108L42.7281 33.202L41.3131 31.788L38.4081 34.694L36.4561 32.742L39.3621 29.836L37.9481 28.422L35.0421 31.328L33.0071 29.293L31.5931 30.707L33.6281 32.742L30.7051 35.665L32.1191 37.079L35.0421 34.156L36.9941 36.108L34.0711 39.031L35.4851 40.445L38.4081 37.522L40.3601 39.474L37.4361 42.397L38.8501 43.811Z" fill="#99B9D8"/>
<path d="M8.2801 1.58605L3.86563 6.00052C3.08458 6.78157 3.08458 8.0479 3.86563 8.82895L13.2532 18.2165C14.0342 18.9975 15.3006 18.9975 16.0816 18.2165L20.4961 13.802C21.2771 13.021 21.2771 11.7547 20.4961 10.9736L11.1085 1.58605C10.3275 0.805003 9.06115 0.805004 8.2801 1.58605Z" fill="white"/>
<path d="M12.6321 17.595L15.5561 14.672L17.5911 16.707L19.0051 15.293L16.9701 13.258L19.8751 10.352L18.4611 8.938L15.5561 11.844L13.6041 9.892L16.5101 6.987L15.0951 5.572L12.1901 8.478L10.2381 6.526L13.1441 3.621L11.7291 2.207L8.82406 5.112L6.78906 3.077L5.37506 4.491L7.41006 6.526L4.48706 9.449L5.90106 10.864L8.82406 7.94L10.7761 9.892L7.85206 12.815L9.26706 14.23L12.1901 11.306L14.1421 13.258L11.2181 16.181L12.6321 17.595Z" fill="#99B9D8"/>
<path d="M28.4631 14.842L33.5431 9.752C34.3331 8.962 35.5931 8.962 36.3731 9.752L38.5431 11.922C39.3331 12.702 39.3331 13.962 38.5431 14.752L33.4631 19.842L28.4631 14.842Z" fill="#003366"/>
<path d="M38.543 11.922L37.836 11.215C37.739 11.47 37.591 11.709 37.385 11.915L31.46 17.84L33.463 19.843L38.543 14.753C39.333 13.963 39.333 12.703 38.543 11.923V11.922Z" fill="#003366"/>
<path d="M28.3844 10.9141L16.2123 23.0862C15.4313 23.8673 15.4313 25.1336 16.2123 25.9146L22.3839 32.0863C23.165 32.8673 24.4313 32.8673 25.2124 32.0863L37.3845 19.9141C38.1655 19.1331 38.1655 17.8668 37.3845 17.0857L31.2129 10.9141C30.4318 10.133 29.1655 10.133 28.3844 10.9141Z" fill="#004C97"/>
<path d="M37.386 17.086L36.731 16.431C36.64 16.603 36.531 16.769 36.386 16.914L22.214 31.086C22.069 31.231 21.903 31.34 21.731 31.431L22.386 32.086C23.167 32.867 24.433 32.867 25.214 32.086L37.386 19.914C38.167 19.133 38.167 17.867 37.386 17.086Z" fill="#003366"/>
<path d="M18.244 40.705C18.77 41.231 19.691 41.026 19.902 40.313C20.87 37.051 20.073 33.377 17.498 30.802C14.923 28.227 11.249 27.429 7.98702 28.397C7.27402 28.609 7.06902 29.529 7.59502 30.055C10.013 32.473 15.825 38.286 18.244 40.705Z" fill="#004C97"/>
<path d="M17.4981 30.802C17.4271 30.731 17.3481 30.676 17.2751 30.608C17.6471 31.369 17.9431 32.172 18.1081 33.021C18.5401 35.251 18.2211 37.374 17.3691 39.201C17.3021 39.345 17.2031 39.46 17.0881 39.549L18.2441 40.705C18.7701 41.231 19.6911 41.026 19.9021 40.313C20.8701 37.051 20.0741 33.377 17.4981 30.802Z" fill="#003366"/>
<path d="M10.412 47C10.354 47 10.296 46.995 10.237 46.985C8.00197 46.59 5.97297 45.534 4.36997 43.93C2.76597 42.326 1.70897 40.297 1.31497 38.062C1.21797 37.518 1.58197 37 2.12597 36.903C2.66797 36.806 3.18797 37.17 3.28397 37.714C3.60697 39.543 4.47197 41.203 5.78397 42.515C7.09597 43.827 8.75597 44.691 10.585 45.014C11.129 45.11 11.492 45.629 11.396 46.173C11.311 46.658 10.889 46.999 10.413 46.999L10.412 47Z" fill="#003366"/>
<path d="M11.1071 43.061C11.0491 43.061 10.9911 43.056 10.9321 43.046C9.51006 42.795 8.21906 42.123 7.19906 41.102C6.17706 40.081 5.50506 38.789 5.25506 37.367C5.16006 36.823 5.52406 36.305 6.06706 36.209C6.61006 36.113 7.12906 36.477 7.22506 37.021C7.40306 38.036 7.88306 38.958 8.61306 39.687C9.34306 40.416 10.2641 40.896 11.2801 41.076C11.8241 41.172 12.1871 41.691 12.0911 42.235C12.0061 42.72 11.5831 43.061 11.1071 43.061Z" fill="#003366"/>
</svg>
