<svg width="49" height="48" viewBox="0 0 49 48" fill="none" xmlns="http://www.w3.org/2000/svg">
<path d="M9.40012 4C8.84712 4 8.40012 4.448 8.40012 5V8.586L5.86712 6.053C5.47612 5.662 4.84412 5.662 4.45312 6.053C4.06212 6.444 4.06212 7.077 4.45312 7.467L6.98712 10H3.40112C2.84812 10 2.40112 10.448 2.40112 11C2.40112 11.552 2.84812 12 3.40112 12H7.91112C8.41612 12 8.81712 11.62 8.88412 11.133C9.03512 11.087 9.17912 11.016 9.29812 10.897C9.47112 10.724 9.55512 10.501 9.57412 10.275C10.0401 10.19 10.4001 9.801 10.4001 9.31V5C10.4001 4.448 9.95312 4 9.40012 4Z" fill="#003366"/>
<path d="M45.4001 10H41.8141L44.3481 7.467C44.7391 7.077 44.7391 6.444 44.3481 6.053C43.9571 5.662 43.3251 5.662 42.9341 6.053L40.4011 8.586V5C40.4011 4.448 39.9541 4 39.4011 4C38.8481 4 38.4011 4.448 38.4011 5V9.31C38.4011 9.801 38.7611 10.19 39.2271 10.275C39.2471 10.501 39.3301 10.724 39.5031 10.897C39.6221 11.016 39.7671 11.087 39.9181 11.133C39.9861 11.62 40.3861 12 40.8911 12H45.4011C45.9541 12 46.4011 11.552 46.4011 11C46.4011 10.448 45.9531 10 45.4001 10Z" fill="#003366"/>
<path d="M24.4001 46C36.5504 46 46.4001 36.1503 46.4001 24C46.4001 11.8497 36.5504 2 24.4001 2C12.2499 2 2.40015 11.8497 2.40015 24C2.40015 36.1503 12.2499 46 24.4001 46Z" fill="#003366"/>
<path d="M24.4001 41C33.789 41 41.4001 33.3888 41.4001 24C41.4001 14.6112 33.789 7 24.4001 7C15.0113 7 7.40015 14.6112 7.40015 24C7.40015 33.3888 15.0113 41 24.4001 41Z" fill="#004C97"/>
<path d="M24.4001 20C17.7731 20 12.4001 25.373 12.4001 32C12.4001 33.815 12.8151 35.53 13.5371 37.073C16.4831 39.524 20.2691 41 24.4001 41C28.5311 41 32.3171 39.524 35.2631 37.073C35.9851 35.53 36.4001 33.816 36.4001 32C36.4001 25.373 31.0271 20 24.4001 20Z" fill="#99B9D8"/>
<path d="M24.4001 37C24.9524 37 25.4001 36.5523 25.4001 36C25.4001 35.4477 24.9524 35 24.4001 35C23.8479 35 23.4001 35.4477 23.4001 36C23.4001 36.5523 23.8479 37 24.4001 37Z" fill="#E5EEF6"/>
<path d="M27.8401 34.085C27.6421 34.085 27.4431 34.026 27.2681 33.904C25.5771 32.72 23.2231 32.72 21.5321 33.904C21.0791 34.22 20.4561 34.111 20.1391 33.658C19.8231 33.206 19.9321 32.582 20.3851 32.265C22.7501 30.609 26.0491 30.609 28.4141 32.265C28.8671 32.581 28.9761 33.205 28.6601 33.658C28.4661 33.936 28.1551 34.085 27.8401 34.085Z" fill="#E5EEF6"/>
<path d="M30.1342 30.809C29.9362 30.809 29.7362 30.75 29.5622 30.628C26.5192 28.497 22.2812 28.497 19.2382 30.628C18.7882 30.944 18.1622 30.836 17.8452 30.382C17.5292 29.93 17.6382 29.307 18.0912 28.989C19.9492 27.687 22.1312 27 24.4002 27C26.6692 27 28.8502 27.688 30.7092 28.989C31.1622 29.306 31.2712 29.929 30.9552 30.382C30.7612 30.66 30.4502 30.809 30.1352 30.809H30.1342Z" fill="#E5EEF6"/>
</svg>
