<svg width="48" height="48" viewBox="0 0 48 48" fill="none" xmlns="http://www.w3.org/2000/svg">
<g clip-path="url(#clip0_275_357)">
<path d="M24.0002 42C23.4472 42 23.0002 41.553 23.0002 41V30C23.0002 29.447 23.4472 29 24.0002 29C24.5532 29 25.0002 29.447 25.0002 30V41C25.0002 41.553 24.5532 42 24.0002 42Z" fill="#99B9D8"/>
<path d="M35.5002 39.5C35.2442 39.5 34.9882 39.402 34.7932 39.207L32.2932 36.707C32.1052 36.519 32.0002 36.266 32.0002 36V30C32.0002 29.447 32.4472 29 33.0002 29C33.5532 29 34.0002 29.447 34.0002 30V35.586L36.2072 37.793C36.5982 38.184 36.5982 38.816 36.2072 39.207C36.0122 39.402 35.7562 39.5 35.5002 39.5Z" fill="#99B9D8"/>
<path d="M12.5002 39.5C12.2442 39.5 11.9882 39.402 11.7932 39.207C11.4022 38.816 11.4022 38.184 11.7932 37.793L14.0002 35.586V30C14.0002 29.447 14.4472 29 15.0002 29C15.5532 29 16.0002 29.447 16.0002 30V36C16.0002 36.266 15.8952 36.52 15.7072 36.707L13.2072 39.207C13.0122 39.402 12.7562 39.5 12.5002 39.5Z" fill="#99B9D8"/>
<path d="M24.0002 46C25.6571 46 27.0002 44.6569 27.0002 43C27.0002 41.3431 25.6571 40 24.0002 40C22.3434 40 21.0002 41.3431 21.0002 43C21.0002 44.6569 22.3434 46 24.0002 46Z" fill="#004C97"/>
<path d="M24.0002 44C24.5525 44 25.0002 43.5523 25.0002 43C25.0002 42.4477 24.5525 42 24.0002 42C23.448 42 23.0002 42.4477 23.0002 43C23.0002 43.5523 23.448 44 24.0002 44Z" fill="#E5EEF6"/>
<path d="M37.0002 43C38.6571 43 40.0002 41.6569 40.0002 40C40.0002 38.3431 38.6571 37 37.0002 37C35.3434 37 34.0002 38.3431 34.0002 40C34.0002 41.6569 35.3434 43 37.0002 43Z" fill="#004C97"/>
<path d="M37.0002 41C37.5525 41 38.0002 40.5523 38.0002 40C38.0002 39.4477 37.5525 39 37.0002 39C36.448 39 36.0002 39.4477 36.0002 40C36.0002 40.5523 36.448 41 37.0002 41Z" fill="#E5EEF6"/>
<path d="M11.0002 43C12.6571 43 14.0002 41.6569 14.0002 40C14.0002 38.3431 12.6571 37 11.0002 37C9.34339 37 8.00024 38.3431 8.00024 40C8.00024 41.6569 9.34339 43 11.0002 43Z" fill="#004C97"/>
<path d="M11.0002 41C11.5525 41 12.0002 40.5523 12.0002 40C12.0002 39.4477 11.5525 39 11.0002 39C10.448 39 10.0002 39.4477 10.0002 40C10.0002 40.5523 10.448 41 11.0002 41Z" fill="#E5EEF6"/>
<path d="M38.9342 13.022C38.4512 9.066 35.0862 6 31.0002 6C29.4492 6 28.0062 6.449 26.7802 7.212C25.0832 4.107 21.7882 2 18.0002 2C12.4772 2 8.00024 6.477 8.00024 12C8.00024 12.379 8.02524 12.752 8.06624 13.12C3.50224 13.812 0.000244141 17.742 0.000244141 22.5C0.000244141 27.747 4.25324 32 9.50024 32H38.5002C43.7472 32 48.0002 27.747 48.0002 22.5C48.0002 17.4 43.9782 13.25 38.9342 13.022Z" fill="#004C97"/>
<path d="M40.9172 28H7.08319C4.68119 28 2.46319 27.228 0.648193 25.929C2.02419 29.479 5.46419 32 9.50019 32H38.5002C42.5362 32 45.9752 29.479 47.3522 25.929C45.5372 27.228 43.3192 28 40.9172 28Z" fill="#003366"/>
</g>
<defs>
<clipPath id="clip0_275_357">
<rect width="48" height="48" fill="white" transform="translate(0.000244141)"/>
</clipPath>
</defs>
</svg>
