<svg width="65" height="58" viewBox="0 0 65 58" fill="none" xmlns="http://www.w3.org/2000/svg">
<path d="M29.583 19.625H10.583C10.083 19.625 9.70801 19.25 9.70801 18.75V7.125C9.70801 6.625 10.083 6.25 10.583 6.25H15.958V1.625C15.958 1.125 16.333 0.75 16.833 0.75H29.583C30.083 0.75 30.458 1.125 30.458 1.625V18.75C30.458 19.25 30.083 19.625 29.583 19.625Z" fill="white"/>
<path d="M43.458 12.125H45.958V12C45.958 11.5 46.333 11.125 46.833 11.125C47.333 11.125 47.708 11.5 47.708 12V18.75C47.708 19.25 47.333 19.625 46.833 19.625C46.333 19.625 45.958 19.25 45.958 18.75H43.458C43.458 19.25 43.083 19.625 42.583 19.625C42.083 19.625 41.708 19.25 41.708 18.75V12C41.708 11.5 42.083 11.125 42.583 11.125C43.083 11.125 43.458 11.5 43.458 12V12.125Z" fill="white"/>
<path d="M8.08301 17.875H56.583C57.583 17.875 58.583 18.375 59.333 19.125C60.083 19.875 60.583 20.875 60.583 21.875V47.875C60.583 48.375 60.083 48.75 59.708 48.75H4.95801C4.58301 48.75 4.08301 48.375 4.08301 47.875V21.875C4.08301 20.875 4.58301 19.875 5.33301 19.125C6.08301 18.375 7.08301 17.875 8.08301 17.875Z" fill="#004C97"/>
<path d="M1.20801 47H63.458C63.958 47 64.333 47.375 64.333 47.875V56.375C64.333 56.875 63.958 57.25 63.458 57.25H1.20801C0.708008 57.25 0.333008 56.875 0.333008 56.375V47.875C0.333008 47.375 0.708008 47 1.20801 47Z" fill="#003366"/>
<path d="M9.45801 24.375H29.458C29.958 24.375 30.333 24.75 30.333 25.25V41.5C30.333 41.875 29.958 42.375 29.458 42.375H9.45801C9.08301 42.375 8.58301 41.875 8.58301 41.5V25.25C8.58301 24.75 9.08301 24.375 9.45801 24.375Z" fill="white"/>
<path d="M37.458 22.5C38.458 22.5 39.333 22.875 39.958 23.5C40.583 24.125 40.958 25 40.958 26C40.958 26.875 40.583 27.75 39.958 28.375C39.333 29 38.458 29.375 37.458 29.375C36.583 29.375 35.708 29 35.083 28.375C34.458 27.75 34.083 26.875 34.083 26C34.083 25 34.458 24.125 35.083 23.5C35.708 22.875 36.583 22.5 37.458 22.5Z" fill="#003366"/>
<path d="M45.083 22.5C45.958 22.5 46.833 22.875 47.458 23.5C48.083 24.125 48.458 25 48.458 26C48.458 26.875 48.083 27.75 47.458 28.375C46.833 29 45.958 29.375 45.083 29.375C44.083 29.375 43.208 29 42.583 28.375C41.958 27.75 41.583 26.875 41.583 26C41.583 25 41.958 24.125 42.583 23.5H42.708C43.333 22.875 44.083 22.5 45.083 22.5Z" fill="#003366"/>
<path d="M52.583 22.5C53.583 22.5 54.458 22.875 55.083 23.5C55.708 24.125 56.083 25 56.083 26C56.083 26.875 55.708 27.75 55.083 28.375C54.458 29 53.583 29.375 52.583 29.375C51.583 29.375 50.833 29 50.208 28.375C49.583 27.75 49.208 26.875 49.208 26C49.208 25 49.583 24.125 50.208 23.5C50.833 22.875 51.583 22.5 52.583 22.5Z" fill="#003366"/>
<path d="M37.458 29.875C38.458 29.875 39.333 30.25 39.958 30.875C40.583 31.5 40.958 32.375 40.958 33.375C40.958 34.25 40.583 35.125 39.958 35.75C39.333 36.375 38.458 36.75 37.458 36.75C36.583 36.75 35.708 36.375 35.083 35.75C34.458 35.125 34.083 34.25 34.083 33.375C34.083 32.375 34.458 31.5 35.083 30.875C35.708 30.25 36.583 29.875 37.458 29.875Z" fill="#003366"/>
<path d="M45.083 29.875C45.958 29.875 46.833 30.25 47.458 30.875C48.083 31.5 48.458 32.375 48.458 33.375C48.458 34.25 48.083 35.125 47.458 35.75C46.833 36.375 45.958 36.75 45.083 36.75C44.083 36.75 43.208 36.375 42.583 35.75C41.958 35.125 41.583 34.25 41.583 33.375C41.583 32.375 41.958 31.5 42.583 30.875H42.708C43.333 30.25 44.083 29.875 45.083 29.875Z" fill="#003366"/>
<path d="M52.583 29.875C53.583 29.875 54.458 30.25 55.083 30.875C55.708 31.5 56.083 32.375 56.083 33.375C56.083 34.25 55.708 35.125 55.083 35.75C54.458 36.375 53.583 36.75 52.583 36.75C51.583 36.75 50.833 36.375 50.208 35.75C49.583 35.125 49.208 34.25 49.208 33.375C49.208 32.375 49.583 31.5 50.208 30.875C50.833 30.25 51.583 29.875 52.583 29.875Z" fill="#003366"/>
<path d="M37.458 37.25C38.458 37.25 39.333 37.625 39.958 38.25C40.583 38.875 40.958 39.75 40.958 40.75C40.958 41.625 40.583 42.5 39.958 43.125C39.333 43.75 38.458 44.125 37.458 44.125C36.583 44.125 35.708 43.75 35.083 43.125C34.458 42.5 34.083 41.625 34.083 40.75C34.083 39.75 34.458 38.875 35.083 38.25C35.708 37.625 36.583 37.25 37.458 37.25Z" fill="#003366"/>
<path d="M45.083 37.25C45.958 37.25 46.833 37.625 47.458 38.25C48.083 38.875 48.458 39.75 48.458 40.75C48.458 41.625 48.083 42.5 47.458 43.125C46.833 43.75 45.958 44.125 45.083 44.125C44.083 44.125 43.208 43.75 42.583 43.125C41.958 42.5 41.583 41.625 41.583 40.75C41.583 39.75 41.958 38.875 42.583 38.25H42.708C43.333 37.625 44.083 37.25 45.083 37.25Z" fill="#003366"/>
<path d="M52.583 37.25C53.583 37.25 54.458 37.625 55.083 38.25C55.708 38.875 56.083 39.75 56.083 40.75C56.083 41.625 55.708 42.5 55.083 43.125C54.458 43.75 53.583 44.125 52.583 44.125C51.583 44.125 50.833 43.75 50.208 43.125C49.583 42.5 49.208 41.625 49.208 40.75C49.208 39.75 49.583 38.875 50.208 38.25C50.833 37.625 51.583 37.25 52.583 37.25Z" fill="#003366"/>
<path d="M28.833 49.75H35.833C36.333 49.75 36.708 50.125 36.708 50.625V53.625C36.708 54.125 36.333 54.5 35.833 54.5H28.833C28.333 54.5 27.958 54.125 27.958 53.625V50.625C27.958 50.125 28.333 49.75 28.833 49.75Z" fill="#004C97"/>
<path d="M35.458 5.25H54.083C54.583 5.25 54.958 5.75 54.958 6.125V12C54.958 12.5 54.583 12.875 54.083 12.875H35.458C34.958 12.875 34.583 12.5 34.583 12V6.125C34.583 5.75 34.958 5.25 35.458 5.25Z" fill="#003366"/>
<path d="M17.708 1.625V7.125C17.708 7.625 17.333 8 16.833 8H10.583C10.083 8 9.70801 7.625 9.70801 7.125C9.70801 6.875 9.83301 6.5 10.083 6.375L16.333 1C16.708 0.625 17.208 0.625 17.583 1C17.708 1.25 17.708 1.375 17.708 1.625Z" fill="#99B9D8"/>
</svg>
