<svg width="62" height="62" viewBox="0 0 62 62" fill="none" xmlns="http://www.w3.org/2000/svg">
<path d="M52.5878 14.7399C52.0941 15.2373 51.4759 15.593 50.7979 15.7699L56.8279 21.8099C57.0137 21.9958 57.2343 22.1432 57.4771 22.2437C57.7198 22.3443 57.9801 22.3961 58.2429 22.3961C58.5056 22.3961 58.7659 22.3443 59.0086 22.2437C59.2514 22.1432 59.472 21.9958 59.6579 21.8099C59.8437 21.6241 59.9911 21.4035 60.0916 21.1607C60.1922 20.9179 60.244 20.6577 60.244 20.3949C60.244 20.1322 60.1922 19.8719 60.0916 19.6291C59.9911 19.3864 59.8437 19.1658 59.6579 18.9799L53.6179 12.9399C53.4428 13.6217 53.087 14.2436 52.5878 14.7399Z" fill="#004C97"/>
<path d="M56.8279 40.19L50.7979 46.23C51.4766 46.4093 52.0955 46.7659 52.591 47.2632C53.0865 47.7605 53.4409 48.3806 53.6179 49.06L59.6579 43.02C60.0331 42.6447 60.244 42.1357 60.244 41.605C60.244 41.0743 60.0331 40.5653 59.6579 40.19C59.2826 39.8147 58.7736 39.6039 58.2429 39.6039C57.7121 39.6039 57.2031 39.8147 56.8279 40.19Z" fill="#004C97"/>
<path d="M39.8575 59.99C40.0432 60.176 40.2638 60.3235 40.5066 60.4241C40.7494 60.5248 41.0097 60.5766 41.2725 60.5766C41.5353 60.5766 41.7956 60.5248 42.0384 60.4241C42.2812 60.3235 42.5017 60.176 42.6875 59.99L48.7275 53.95C48.0481 53.7731 47.428 53.4187 46.9307 52.9232C46.4334 52.4276 46.0768 51.8088 45.8975 51.13L39.8575 57.16C39.6706 57.3452 39.5222 57.5656 39.421 57.8085C39.3197 58.0514 39.2676 58.3119 39.2676 58.575C39.2676 58.8381 39.3197 59.0987 39.421 59.3415C39.5222 59.5844 39.6706 59.8048 39.8575 59.99Z" fill="#004C97"/>
<path d="M42.6876 2.00994C42.3123 1.63466 41.8033 1.42383 41.2726 1.42383C40.7419 1.42383 40.2329 1.63466 39.8576 2.00994C39.4823 2.38522 39.2715 2.89421 39.2715 3.42494C39.2715 3.95567 39.4823 4.46466 39.8576 4.83994L45.8976 10.8699C46.0769 10.1912 46.4335 9.57232 46.9308 9.07678C47.4281 8.58125 48.0482 8.22686 48.7276 8.04994L42.6876 2.00994Z" fill="#004C97"/>
<path d="M46.927 14.74C46.4297 14.2462 46.074 13.628 45.897 12.95L40.667 18.18V23.82L48.717 15.77C48.0389 15.593 47.4207 15.2373 46.927 14.74Z" fill="#004C97"/>
<path d="M39.5078 42.6601L45.8978 49.0501C46.0771 48.3729 46.4325 47.7553 46.9278 47.26C47.4231 46.7647 48.0407 46.4094 48.7178 46.2301L40.6678 38.1801C40.6441 39.7445 40.2463 41.2806 39.5078 42.6601Z" fill="#004C97"/>
<path d="M38.667 14V12L36.687 11.51L37.737 9.76L34.907 6.93L33.157 7.98L32.667 6H28.667L28.177 7.98L26.427 6.93L23.597 9.76L24.647 11.51L22.667 12V16L24.647 16.49L23.597 18.24L26.427 21.07L28.177 20.02L28.667 22H32.667L33.157 20.02L34.907 21.07L37.737 18.24L36.687 16.49L38.667 16V14ZM30.667 17C30.0736 17 29.4936 16.8241 29.0003 16.4944C28.5069 16.1648 28.1224 15.6962 27.8954 15.1481C27.6683 14.5999 27.6089 13.9967 27.7246 13.4147C27.8404 12.8328 28.1261 12.2982 28.5457 11.8787C28.9652 11.4591 29.4998 11.1734 30.0817 11.0576C30.6637 10.9419 31.2669 11.0013 31.815 11.2284C32.3632 11.4554 32.8318 11.8399 33.1614 12.3333C33.491 12.8266 33.667 13.4067 33.667 14C33.667 14.7956 33.3509 15.5587 32.7883 16.1213C32.2257 16.6839 31.4626 17 30.667 17Z" fill="#004C97"/>
<path d="M30.667 39C33.9807 39 36.667 36.3137 36.667 33C36.667 29.6863 33.9807 27 30.667 27C27.3533 27 24.667 29.6863 24.667 33C24.667 36.3137 27.3533 39 30.667 39Z" fill="#004C97"/>
<path d="M14.4072 47.2601C14.9045 47.7538 15.2602 48.372 15.4372 49.0501L21.8272 42.6601C21.0887 41.2806 20.6909 39.7445 20.6672 38.1801L12.6172 46.2301C13.2953 46.407 13.9134 46.7627 14.4072 47.2601Z" fill="#004C97"/>
<path d="M14.4074 9.07994C14.9047 9.5737 15.2604 10.1919 15.4374 10.8699L21.4774 4.83994C21.6632 4.65412 21.8106 4.43352 21.9112 4.19073C22.0118 3.94795 22.0635 3.68773 22.0635 3.42494C22.0635 3.16215 22.0118 2.90193 21.9112 2.65915C21.8106 2.41636 21.6632 2.19576 21.4774 2.00994C21.2916 1.82412 21.071 1.67672 20.8282 1.57615C20.5854 1.47559 20.3252 1.42383 20.0624 1.42383C19.5317 1.42383 19.0227 1.63466 18.6474 2.00994L12.6074 8.04994C13.2892 8.22495 13.9111 8.58081 14.4074 9.07994Z" fill="#004C97"/>
<path d="M18.6474 59.99C18.8332 60.1758 19.0538 60.3232 19.2966 60.4238C19.5394 60.5244 19.7996 60.5761 20.0624 60.5761C20.3252 60.5761 20.5854 60.5244 20.8282 60.4238C21.071 60.3232 21.2916 60.1758 21.4774 59.99C21.6632 59.8042 21.8106 59.5836 21.9112 59.3408C22.0118 59.098 22.0635 58.8378 22.0635 58.575C22.0635 58.3122 22.0118 58.052 21.9112 57.8092C21.8106 57.5664 21.6632 57.3458 21.4774 57.16L15.4374 51.13C15.2581 51.8088 14.9015 52.4276 14.4042 52.9232C13.9069 53.4187 13.2868 53.7731 12.6074 53.95L18.6474 59.99Z" fill="#004C97"/>
<path d="M20.6672 18.18L15.4372 12.95C15.2579 13.6271 14.9025 14.2447 14.4072 14.74C13.9119 15.2353 13.2943 15.5906 12.6172 15.77L20.6672 23.82V18.18Z" fill="#004C97"/>
<path d="M7.71791 49.06C7.89482 48.3806 8.24921 47.7605 8.74475 47.2632C9.24029 46.7659 9.85915 46.4093 10.5379 46.23L4.50791 40.19C4.13263 39.8147 3.62364 39.6039 3.09291 39.6039C2.56218 39.6039 2.05319 39.8147 1.67791 40.19C1.30263 40.5653 1.0918 41.0743 1.0918 41.605C1.0918 42.1357 1.30263 42.6447 1.67791 43.02L7.71791 49.06Z" fill="#004C97"/>
<path d="M4.50791 21.8099L10.5379 15.7699C9.85915 15.5906 9.24029 15.234 8.74475 14.7367C8.24921 14.2394 7.89482 13.6193 7.71791 12.9399L1.67791 18.9799C1.30263 19.3552 1.0918 19.8642 1.0918 20.3949C1.0918 20.9257 1.30263 21.4347 1.67791 21.8099C2.05319 22.1852 2.56218 22.3961 3.09291 22.3961C3.62364 22.3961 4.13263 22.1852 4.50791 21.8099Z" fill="#004C97"/>
<path d="M56.1235 39.485L50.4495 45.159C49.9912 45.069 49.5198 45.069 49.0615 45.159L41.6675 37.766V24.234L49.0615 16.84C49.5198 16.93 49.9912 16.93 50.4495 16.84L56.1235 22.514C56.686 23.0768 57.4491 23.3931 58.2448 23.3932C59.0405 23.3934 59.8037 23.0775 60.3665 22.515C60.9293 21.9525 61.2455 21.1894 61.2457 20.3937C61.2459 19.598 60.93 18.8348 60.3675 18.272L54.6915 12.6C54.8234 11.832 54.769 11.0436 54.5331 10.3009C54.2971 9.5583 53.8863 8.88312 53.3353 8.33212C52.7843 7.78112 52.1092 7.37039 51.3665 7.13441C50.6239 6.89843 49.8355 6.84411 49.0675 6.976L43.3965 1.3C42.8248 0.754229 42.0648 0.449707 41.2745 0.449707C40.4841 0.449707 39.7241 0.754229 39.1525 1.3C38.8738 1.57858 38.6528 1.90932 38.502 2.27333C38.3512 2.63734 38.2736 3.02749 38.2736 3.4215C38.2736 3.8155 38.3512 4.20565 38.502 4.56966C38.6528 4.93367 38.8738 5.26441 39.1525 5.543L44.8265 11.217C44.7885 11.4452 44.7661 11.6757 44.7595 11.907C44.7659 12.1416 44.7886 12.3755 44.8275 12.607L41.6465 15.788C41.6053 15.2086 41.3962 14.6538 41.0447 14.1913C40.6933 13.7288 40.2147 13.3788 39.6675 13.184V12C39.6674 11.7769 39.5928 11.5603 39.4554 11.3845C39.3181 11.2088 39.1259 11.084 38.9095 11.03L38.2415 10.863L38.5965 10.272C38.7112 10.0807 38.7587 9.85643 38.7314 9.635C38.704 9.41357 38.6034 9.20765 38.4455 9.05L35.6165 6.222C35.4589 6.06435 35.2532 5.96386 35.0319 5.9365C34.8107 5.90915 34.5867 5.95648 34.3955 6.071L33.8045 6.426L33.6375 5.758C33.5835 5.54156 33.4587 5.34939 33.2829 5.21205C33.1072 5.0747 32.8905 5.00006 32.6675 5H28.6675C28.4444 5.00006 28.2278 5.0747 28.052 5.21205C27.8762 5.34939 27.7515 5.54156 27.6975 5.758L27.5305 6.426L26.9395 6.071C26.7482 5.95648 26.5242 5.90915 26.303 5.9365C26.0818 5.96386 25.8761 6.06435 25.7185 6.222L22.8895 9.05C22.7316 9.20765 22.631 9.41357 22.6036 9.635C22.5762 9.85643 22.6237 10.0807 22.7385 10.272L23.0935 10.863L22.4255 11.03C22.209 11.084 22.0169 11.2088 21.8795 11.3845C21.7422 11.5603 21.6675 11.7769 21.6675 12V13.184C21.1209 13.3785 20.6427 13.728 20.2913 14.1896C19.9398 14.6513 19.7304 15.2053 19.6885 15.784L16.5075 12.606C16.5463 12.3745 16.5691 12.1406 16.5755 11.906C16.5688 11.6747 16.5464 11.4442 16.5085 11.216L22.1825 5.542C22.7449 4.97941 23.0608 4.21649 23.0608 3.421C23.0608 2.6255 22.7449 1.86258 22.1825 1.3C21.611 0.754294 20.8512 0.449802 20.061 0.449802C19.2708 0.449802 18.511 0.754294 17.9395 1.3L12.2675 6.976C11.4995 6.84434 10.7112 6.89884 9.96867 7.1349C9.22614 7.37096 8.55107 7.7817 8.00012 8.33264C7.44918 8.88359 7.03844 9.55866 6.80238 10.3012C6.56632 11.0437 6.51182 11.832 6.64347 12.6L0.967475 18.272C0.412367 18.8361 0.102645 19.5967 0.105774 20.3881C0.108903 21.1795 0.424629 21.9376 0.98418 22.4973C1.54373 23.057 2.30177 23.3729 3.09318 23.3762C3.88459 23.3795 4.64525 23.07 5.20947 22.515L10.8835 16.841C11.1117 16.879 11.3422 16.9013 11.5735 16.908C11.8081 16.9016 12.042 16.8789 12.2735 16.84L19.6675 24.234V37.766L12.2735 45.16C12.042 45.1211 11.8081 45.0984 11.5735 45.092C11.3422 45.0987 11.1117 45.121 10.8835 45.159L5.21147 39.485C4.93288 39.2063 4.60212 38.9853 4.23808 38.8344C3.87405 38.6836 3.48387 38.6059 3.08983 38.6059C2.69578 38.6058 2.30559 38.6834 1.94152 38.8342C1.57745 38.9849 1.24664 39.2059 0.967975 39.4845C0.68931 39.7631 0.468248 40.0939 0.31741 40.4579C0.166573 40.8219 0.0889136 41.2121 0.0888672 41.6061C0.0887734 42.402 0.404818 43.1652 0.967475 43.728L6.64347 49.4C6.51159 50.168 6.56591 50.9564 6.80189 51.6991C7.03787 52.4417 7.4486 53.1169 7.9996 53.6679C8.5506 54.2189 9.22578 54.6296 9.96842 54.8656C10.7111 55.1016 11.4995 55.1559 12.2675 55.024L17.9385 60.7C18.501 61.2628 19.264 61.5791 20.0598 61.5793C20.8555 61.5794 21.6187 61.2635 22.1815 60.701C22.7443 60.1385 23.0605 59.3754 23.0607 58.5797C23.0609 57.784 22.745 57.0208 22.1825 56.458L16.5085 50.784C16.5985 50.3257 16.5985 49.8543 16.5085 49.396L21.6385 44.266C22.6483 45.727 23.9974 46.9211 25.5702 47.746C27.143 48.5708 28.8925 49.0017 30.6685 49.0017C32.4444 49.0017 34.1939 48.5708 35.7667 47.746C37.3395 46.9211 38.6887 45.727 39.6985 44.266L44.8285 49.396C44.7384 49.8543 44.7384 50.3257 44.8285 50.784L39.1545 56.458C38.8652 56.734 38.6341 57.0651 38.4747 57.4318C38.3152 57.7984 38.2307 58.1932 38.226 58.593C38.2213 58.9928 38.2966 59.3895 38.4474 59.7598C38.5982 60.1301 38.8215 60.4665 39.1042 60.7492C39.3869 61.032 39.7232 61.2554 40.0935 61.4063C40.4637 61.5572 40.8604 61.6326 41.2602 61.628C41.66 61.6234 42.0549 61.5389 42.4215 61.3796C42.7882 61.2202 43.1194 60.9892 43.3955 60.7L49.0675 55.024C49.8354 55.1556 50.6238 55.1012 51.3663 54.8651C52.1088 54.629 52.7839 54.2183 53.3348 53.6674C53.8858 53.1164 54.2965 52.4413 54.5326 51.6988C54.7686 50.9563 54.8231 50.1679 54.6915 49.4L60.3675 43.728C60.6498 43.4503 60.8744 43.1194 61.0282 42.7545C61.182 42.3896 61.2621 41.9978 61.2637 41.6018C61.2654 41.2058 61.1886 40.8133 61.0379 40.4471C60.8871 40.0809 60.6653 39.7482 60.3853 39.4682C60.1053 39.1881 59.7727 38.9662 59.4065 38.8154C59.0403 38.6645 58.6479 38.5877 58.2519 38.5892C57.8559 38.5908 57.4641 38.6708 57.0991 38.8245C56.7342 38.9783 56.4033 39.2027 56.1255 39.485H56.1235ZM58.9515 19.685C59.0444 19.7778 59.1181 19.8881 59.1684 20.0094C59.2187 20.1307 59.2446 20.2608 59.2447 20.3921C59.2447 20.5235 59.2189 20.6536 59.1687 20.7749C59.1185 20.8963 59.0448 21.0066 58.952 21.0995C58.8591 21.1924 58.7489 21.2661 58.6276 21.3164C58.5062 21.3667 58.3762 21.3927 58.2448 21.3927C58.1135 21.3927 57.9834 21.3669 57.862 21.3167C57.7407 21.2665 57.6304 21.1928 57.5375 21.1L52.5155 16.078C52.7959 15.8927 53.0568 15.6796 53.2945 15.442C53.5318 15.2044 53.7449 14.9438 53.9305 14.664L58.9515 19.685ZM51.8805 9.785C52.4429 10.3476 52.7588 11.1105 52.7588 11.906C52.7588 12.7015 52.4429 13.4644 51.8805 14.027C51.3093 14.5729 50.5496 14.8775 49.7595 14.8775C48.9694 14.8775 48.2097 14.5729 47.6385 14.027C47.3519 13.7503 47.1234 13.4192 46.9662 13.0532C46.8089 12.6872 46.7262 12.2935 46.7227 11.8952C46.7193 11.4969 46.7952 11.1018 46.946 10.7331C47.0969 10.3644 47.3196 10.0295 47.6013 9.74781C47.883 9.46613 48.2179 9.24337 48.5866 9.09253C48.9553 8.94169 49.3503 8.86578 49.7487 8.86924C50.147 8.87271 50.5407 8.95547 50.9067 9.11269C51.2727 9.26992 51.6037 9.49847 51.8805 9.785ZM40.5675 4.129C40.3803 3.94151 40.2752 3.68742 40.2752 3.4225C40.2752 3.15758 40.3803 2.90348 40.5675 2.716C40.7578 2.53397 41.0111 2.43237 41.2745 2.43237C41.5379 2.43237 41.7911 2.53397 41.9815 2.716L47.0035 7.737C46.4422 8.1089 45.9614 8.58974 45.5895 9.151L40.5675 4.129ZM46.2255 15.443C46.4614 15.6793 46.7203 15.8913 46.9985 16.076L41.6675 21.406V18.594L45.5915 14.67C45.7764 14.948 45.9894 15.2069 46.2255 15.443ZM23.6675 12.781L24.8875 12.481C25.0391 12.4431 25.1797 12.3703 25.2981 12.2682C25.4165 12.1662 25.5093 12.0378 25.5691 11.8934C25.6289 11.749 25.654 11.5926 25.6424 11.4368C25.6309 11.2809 25.5829 11.13 25.5025 10.996L24.8545 9.918L26.5805 8.193L27.6585 8.84C27.7925 8.92045 27.9434 8.96838 28.0993 8.97994C28.2551 8.99151 28.4115 8.96639 28.5559 8.90659C28.7003 8.84679 28.8287 8.75399 28.9307 8.63562C29.0327 8.51725 29.1056 8.37662 29.1435 8.225L29.4435 7.005H31.8815L32.1815 8.225C32.2193 8.37662 32.2922 8.51725 32.3943 8.63562C32.4963 8.75399 32.6247 8.84679 32.7691 8.90659C32.9134 8.96639 33.0698 8.99151 33.2257 8.97994C33.3815 8.96838 33.5325 8.92045 33.6665 8.84L34.7445 8.193L36.4695 9.918L35.8225 10.996C35.742 11.13 35.6941 11.2809 35.6825 11.4368C35.671 11.5926 35.6961 11.749 35.7559 11.8934C35.8157 12.0378 35.9085 12.1662 36.0269 12.2682C36.1452 12.3703 36.2859 12.4431 36.4375 12.481L37.6575 12.781V15.219L36.4375 15.519C36.2859 15.5569 36.1452 15.6297 36.0269 15.7318C35.9085 15.8338 35.8157 15.9622 35.7559 16.1066C35.6961 16.251 35.671 16.4073 35.6825 16.5632C35.6941 16.719 35.742 16.87 35.8225 17.004L36.4695 18.082L34.7445 19.807L33.6665 19.16C33.5325 19.0795 33.3815 19.0316 33.2257 19.02C33.0698 19.0085 32.9134 19.0336 32.7691 19.0934C32.6247 19.1532 32.4963 19.246 32.3943 19.3644C32.2922 19.4827 32.2193 19.6234 32.1815 19.775L31.8815 20.995H29.4485L29.1485 19.775C29.1106 19.6234 29.0377 19.4827 28.9357 19.3644C28.8337 19.246 28.7053 19.1532 28.5609 19.0934C28.4165 19.0336 28.2601 19.0085 28.1043 19.02C27.9484 19.0316 27.7975 19.0795 27.6635 19.16L26.5855 19.807L24.8595 18.082L25.5075 17.004C25.5879 16.87 25.6359 16.719 25.6474 16.5632C25.659 16.4073 25.6339 16.251 25.5741 16.1066C25.5143 15.9622 25.4215 15.8338 25.3031 15.7318C25.1847 15.6297 25.0441 15.5569 24.8925 15.519L23.6725 15.219L23.6675 12.781ZM19.3545 2.715C19.5448 2.53297 19.7981 2.43137 20.0615 2.43137C20.3249 2.43137 20.5781 2.53297 20.7685 2.715C20.9559 2.90252 21.0613 3.15683 21.0613 3.422C21.0613 3.68716 20.9559 3.94147 20.7685 4.129L15.7465 9.15C15.3746 8.58874 14.8937 8.1079 14.3325 7.736L19.3545 2.715ZM3.79748 21.1C3.60983 21.2875 3.35539 21.3928 3.09012 21.3927C2.82485 21.3926 2.57048 21.2871 2.38298 21.0995C2.19547 20.9119 2.09018 20.6574 2.09027 20.3921C2.09037 20.1269 2.19583 19.8725 2.38348 19.685L7.40448 14.664C7.5901 14.9438 7.80315 15.2044 8.04047 15.442C8.27811 15.6796 8.53909 15.8927 8.81948 16.078L3.79748 21.1ZM9.45447 14.028C9.03483 13.6085 8.74901 13.0739 8.63319 12.492C8.51736 11.91 8.57671 11.3067 8.80375 10.7585C9.03079 10.2103 9.4153 9.74169 9.90867 9.41201C10.402 9.08232 10.9821 8.90636 11.5755 8.90636C12.1689 8.90636 12.7489 9.08232 13.2423 9.41201C13.7356 9.74169 14.1202 10.2103 14.3472 10.7585C14.5742 11.3067 14.6336 11.91 14.5178 12.492C14.4019 13.0739 14.1161 13.6085 13.6965 14.028C13.1254 14.574 12.3658 14.8788 11.5757 14.879C10.7856 14.8792 10.0258 14.5747 9.45447 14.029V14.028ZM14.3375 16.075C14.8948 15.7043 15.3728 15.2263 15.7435 14.669L19.6675 18.594V21.406L14.3375 16.075ZM2.38348 42.314C2.28796 42.2217 2.21178 42.1114 2.15937 41.9894C2.10696 41.8674 2.07938 41.7362 2.07822 41.6034C2.07707 41.4706 2.10237 41.3389 2.15265 41.216C2.20293 41.0931 2.27719 40.9815 2.37108 40.8876C2.46497 40.7937 2.57662 40.7195 2.69952 40.6692C2.82242 40.6189 2.9541 40.5936 3.08688 40.5947C3.21966 40.5959 3.35088 40.6235 3.47288 40.6759C3.59488 40.7283 3.70523 40.8045 3.79748 40.9L8.81948 45.922C8.53909 46.1073 8.27811 46.3204 8.04047 46.558C7.80315 46.7956 7.5901 47.0562 7.40448 47.336L2.38348 42.314ZM9.45447 52.214C9.03483 51.7945 8.74901 51.2599 8.63319 50.678C8.51736 50.096 8.57671 49.4927 8.80375 48.9445C9.03079 48.3963 9.4153 47.9277 9.90867 47.598C10.402 47.2683 10.9821 47.0924 11.5755 47.0924C12.1689 47.0924 12.7489 47.2683 13.2423 47.598C13.7356 47.9277 14.1202 48.3963 14.3472 48.9445C14.5742 49.4927 14.6336 50.096 14.5178 50.678C14.4019 51.2599 14.1161 51.7945 13.6965 52.214C13.1249 52.7593 12.3652 53.0634 11.5753 53.0632C10.7853 53.063 10.0258 52.7595 9.45447 52.214ZM20.7675 57.871C20.9546 58.0585 21.0598 58.3126 21.0598 58.5775C21.0598 58.8424 20.9546 59.0965 20.7675 59.284C20.5773 59.4665 20.324 59.5684 20.0605 59.5684C19.7969 59.5684 19.5436 59.4665 19.3535 59.284L14.3315 54.263C14.8927 53.8911 15.3736 53.4102 15.7455 52.849L20.7675 57.871ZM15.7435 47.33C15.3728 46.7726 14.8948 46.2947 14.3375 45.924L19.9235 40.338C20.0842 41.0656 20.3188 41.775 20.6235 42.455L15.7435 47.33ZM30.6675 47C28.2813 46.9973 25.9937 46.0483 24.3064 44.361C22.6192 42.6738 21.6701 40.3861 21.6675 38V16C21.6675 16.2231 21.7422 16.4397 21.8795 16.6155C22.0169 16.7912 22.209 16.916 22.4255 16.97L23.0935 17.137L22.7385 17.728C22.6237 17.9193 22.5762 18.1436 22.6036 18.365C22.631 18.5864 22.7316 18.7923 22.8895 18.95L25.7185 21.778C25.8761 21.9356 26.0818 22.0361 26.303 22.0635C26.5242 22.0908 26.7482 22.0435 26.9395 21.929L27.5305 21.574L27.6975 22.242C27.7515 22.4584 27.8762 22.6506 28.052 22.7879C28.2278 22.9253 28.4444 22.9999 28.6675 23H32.6675C32.8905 22.9999 33.1072 22.9253 33.2829 22.7879C33.4587 22.6506 33.5835 22.4584 33.6375 22.242L33.8045 21.574L34.3955 21.929C34.5867 22.0435 34.8107 22.0908 35.0319 22.0635C35.2532 22.0361 35.4589 21.9356 35.6165 21.778L38.4455 18.95C38.6034 18.7923 38.704 18.5864 38.7314 18.365C38.7587 18.1436 38.7112 17.9193 38.5965 17.728L38.2415 17.137L38.9095 16.97C39.1259 16.916 39.3181 16.7912 39.4554 16.6155C39.5928 16.4397 39.6674 16.2231 39.6675 16V38C39.6648 40.3861 38.7158 42.6738 37.0285 44.361C35.3413 46.0483 33.0536 46.9973 30.6675 47ZM40.7165 42.455C41.0212 41.775 41.2557 41.0656 41.4165 40.338L47.0025 45.924C46.4451 46.2947 45.9672 46.7726 45.5965 47.33L40.7165 42.455ZM41.9795 59.285C41.7893 59.467 41.5362 59.5685 41.273 59.5685C41.0098 59.5685 40.7567 59.467 40.5665 59.285C40.379 59.0975 40.2737 58.8432 40.2737 58.578C40.2737 58.3128 40.379 58.0585 40.5665 57.871L45.5885 52.85C45.9604 53.4112 46.4412 53.8921 47.0025 54.264L41.9795 59.285ZM51.8795 52.213C51.308 52.7584 50.5484 53.0627 49.7585 53.0627C48.9685 53.0627 48.2089 52.7584 47.6375 52.213C47.2178 51.7935 46.932 51.2589 46.8162 50.677C46.7004 50.095 46.7597 49.4917 46.9868 48.9435C47.2138 48.3953 47.5983 47.9267 48.0917 47.597C48.585 47.2673 49.1651 47.0914 49.7585 47.0914C50.3519 47.0914 50.9319 47.2673 51.4253 47.597C51.9186 47.9267 52.3032 48.3953 52.5302 48.9435C52.7572 49.4917 52.8166 50.095 52.7008 50.677C52.5849 51.2589 52.2991 51.7935 51.8795 52.213ZM58.9505 42.313L53.9295 47.334C53.7439 47.0542 53.5308 46.7936 53.2935 46.556C53.0558 46.3184 52.7949 46.1053 52.5145 45.92L57.5375 40.9C57.6304 40.8072 57.7407 40.7335 57.862 40.6833C57.9834 40.6331 58.1135 40.6072 58.2448 40.6073C58.3762 40.6073 58.5062 40.6333 58.6276 40.6836C58.7489 40.7339 58.8591 40.8076 58.952 40.9005C59.0448 40.9934 59.1185 41.1037 59.1687 41.2251C59.2189 41.3464 59.2447 41.4765 59.2447 41.6078C59.2446 41.7392 59.2187 41.8693 59.1684 41.9906C59.1181 42.1119 59.0444 42.2221 58.9515 42.315L58.9505 42.313Z" fill="#003366"/>
<path d="M30.667 18C31.4581 18 32.2315 17.7654 32.8893 17.3259C33.5471 16.8864 34.0598 16.2616 34.3625 15.5307C34.6653 14.7998 34.7445 13.9956 34.5901 13.2196C34.4358 12.4437 34.0548 11.731 33.4954 11.1716C32.936 10.6122 32.2233 10.2312 31.4474 10.0769C30.6714 9.92252 29.8672 10.0017 29.1363 10.3045C28.4054 10.6072 27.7806 11.1199 27.3411 11.7777C26.9016 12.4355 26.667 13.2089 26.667 14C26.667 15.0609 27.0884 16.0783 27.8386 16.8284C28.5887 17.5786 29.6061 18 30.667 18ZM30.667 12C31.0626 12 31.4492 12.1173 31.7781 12.3371C32.107 12.5568 32.3634 12.8692 32.5148 13.2346C32.6661 13.6001 32.7057 14.0022 32.6286 14.3902C32.5514 14.7781 32.3609 15.1345 32.0812 15.4142C31.8015 15.6939 31.4451 15.8844 31.0572 15.9616C30.6692 16.0387 30.2671 15.9991 29.9016 15.8478C29.5362 15.6964 29.2238 15.44 29.0041 15.1111C28.7843 14.7822 28.667 14.3956 28.667 14C28.667 13.4696 28.8777 12.9609 29.2528 12.5858C29.6279 12.2107 30.1366 12 30.667 12Z" fill="#003366"/>
<path d="M12.667 11H10.667V13H12.667V11Z" fill="#003366"/>
<path d="M50.667 11H48.667V13H50.667V11Z" fill="#003366"/>
<path d="M50.667 49H48.667V51H50.667V49Z" fill="#003366"/>
<path d="M12.667 49H10.667V51H12.667V49Z" fill="#003366"/>
<path d="M37.667 33C37.667 31.6155 37.2565 30.2622 36.4873 29.111C35.7181 27.9599 34.6249 27.0627 33.3458 26.5328C32.0667 26.003 30.6592 25.8644 29.3014 26.1345C27.9435 26.4046 26.6962 27.0713 25.7172 28.0503C24.7383 29.0292 24.0716 30.2765 23.8015 31.6344C23.5314 32.9922 23.67 34.3997 24.1998 35.6788C24.7297 36.9579 25.6269 38.0511 26.778 38.8203C27.9291 39.5895 29.2825 40 30.667 40C32.5229 39.9979 34.3021 39.2597 35.6144 37.9474C36.9267 36.6351 37.6649 34.8559 37.667 33ZM30.667 38C29.6781 38 28.7114 37.7068 27.8891 37.1574C27.0669 36.6079 26.426 35.8271 26.0476 34.9134C25.6692 33.9998 25.5701 32.9945 25.7631 32.0246C25.956 31.0546 26.4322 30.1637 27.1315 29.4645C27.8307 28.7652 28.7216 28.289 29.6915 28.0961C30.6614 27.9032 31.6668 28.0022 32.5804 28.3806C33.494 28.759 34.2749 29.3999 34.8243 30.2222C35.3738 31.0444 35.667 32.0111 35.667 33C35.6654 34.3256 35.1381 35.5964 34.2008 36.5338C33.2634 37.4711 31.9926 37.9984 30.667 38Z" fill="#003366"/>
<path d="M37.667 24H34.667V26H36.667V28H38.667V25C38.667 24.7348 38.5616 24.4804 38.3741 24.2929C38.1866 24.1054 37.9322 24 37.667 24Z" fill="#003366"/>
<path d="M24.667 26H26.667V24H23.667C23.4018 24 23.1474 24.1054 22.9599 24.2929C22.7723 24.4804 22.667 24.7348 22.667 25V28H24.667V26Z" fill="#003366"/>
<path d="M36.667 40H34.667V42H37.667C37.9322 42 38.1866 41.8946 38.3741 41.7071C38.5616 41.5196 38.667 41.2652 38.667 41V38H36.667V40Z" fill="#003366"/>
<path d="M24.667 38H22.667V41C22.667 41.2652 22.7723 41.5196 22.9599 41.7071C23.1474 41.8946 23.4018 42 23.667 42H26.667V40H24.667V38Z" fill="#003366"/>
<path d="M45.6111 35.951C46.2625 35.3017 46.7794 34.5303 47.132 33.6808C47.4847 32.8314 47.6662 31.9207 47.6662 31.001C47.6662 30.0813 47.4847 29.1706 47.132 28.3212C46.7794 27.4718 46.2625 26.7003 45.6111 26.051L44.2031 27.47C44.6672 27.9333 45.0353 28.4836 45.2865 29.0893C45.5377 29.695 45.667 30.3443 45.667 31C45.667 31.6558 45.5377 32.3051 45.2865 32.9108C45.0353 33.5165 44.6672 34.0667 44.2031 34.53L45.6111 35.951Z" fill="#003366"/>
<path d="M51.6673 31C51.6709 29.555 51.3878 28.1237 50.8346 26.7887C50.2814 25.4538 49.4689 24.2419 48.4443 23.223L47.0303 24.637C48.7175 26.3248 49.6654 28.6135 49.6654 31C49.6654 33.3865 48.7175 35.6753 47.0303 37.363L48.4443 38.777C49.4689 37.7582 50.2814 36.5462 50.8346 35.2113C51.3878 33.8764 51.6709 32.445 51.6673 31Z" fill="#003366"/>
<path d="M55.6674 31C55.6701 29.031 55.2836 27.0808 54.53 25.2617C53.7765 23.4426 52.6707 21.7903 51.2764 20.4L49.8584 21.811C51.066 23.0182 52.024 24.4516 52.6776 26.0291C53.3312 27.6066 53.6676 29.2975 53.6676 31.005C53.6676 32.7126 53.3312 34.4034 52.6776 35.981C52.024 37.5585 51.066 38.9918 49.8584 40.199L51.2764 41.61C52.6719 40.2185 53.7783 38.5647 54.5319 36.7437C55.2855 34.9228 55.6714 32.9707 55.6674 31Z" fill="#003366"/>
<path d="M15.723 26.049C15.0716 26.6982 14.5548 27.4697 14.2022 28.3191C13.8495 29.1686 13.668 30.0792 13.668 30.999C13.668 31.9187 13.8495 32.8294 14.2022 33.6788C14.5548 34.5282 15.0716 35.2997 15.723 35.949L17.131 34.528C16.667 34.0647 16.2988 33.5144 16.0476 32.9087C15.7964 32.303 15.6671 31.6537 15.6671 30.9979C15.6671 30.3422 15.7964 29.6929 16.0476 29.0872C16.2988 28.4815 16.667 27.9312 17.131 27.468L15.723 26.049Z" fill="#003366"/>
<path d="M9.66703 31C9.66344 32.445 9.94645 33.8764 10.4997 35.2113C11.0529 36.5462 11.8654 37.7582 12.89 38.777L14.304 37.363C12.6168 35.6753 11.6689 33.3865 11.6689 31C11.6689 28.6135 12.6168 26.3248 14.304 24.637L12.89 23.223C11.8654 24.2419 11.0529 25.4538 10.4997 26.7887C9.94645 28.1237 9.66344 29.555 9.66703 31Z" fill="#003366"/>
<path d="M5.66701 31C5.66428 32.9691 6.05082 34.9192 6.80439 36.7383C7.55795 38.5575 8.66369 40.2097 10.058 41.6L11.476 40.189C10.2684 38.9818 9.31038 37.5485 8.65679 35.971C8.00319 34.3934 7.66678 32.7026 7.66678 30.995C7.66678 29.2875 8.00319 27.5966 8.65679 26.0191C9.31038 24.4416 10.2684 23.0082 11.476 21.801L10.058 20.4C8.66369 21.7903 7.55795 23.4426 6.80439 25.2617C6.05082 27.0808 5.66428 29.031 5.66701 31Z" fill="#003366"/>
</svg>
