<svg width="64" height="64" viewBox="0 0 64 64" fill="none" xmlns="http://www.w3.org/2000/svg">
<g clip-path="url(#clip0_337_62974)">
<path fill-rule="evenodd" clip-rule="evenodd" d="M20.8082 64.0001C20.5833 64.0001 20.3208 63.9251 20.1708 63.7376C19.7959 63.4002 19.7959 62.8003 20.1708 62.4629C23.5077 59.126 25.7573 50.5402 26.4696 38.3551C26.5446 37.8302 26.957 37.4553 27.4069 37.5302C27.5194 37.5302 27.6319 37.5677 27.7444 37.6052L31.4186 33.9309L31.4936 33.856L31.6061 33.9309L36.1802 37.6052C36.2927 37.5677 36.4427 37.5302 36.5926 37.5302C37.08 37.4553 37.53 37.8677 37.53 38.3551C38.2423 50.5402 40.4919 59.126 43.8287 62.4629C44.1662 62.8003 44.1662 63.4002 43.8287 63.7376C43.6413 63.9251 43.4538 64.0001 43.1913 64.0001C42.9664 64.0001 42.7039 63.9251 42.554 63.7376C42.404 63.5877 42.2165 63.4002 42.0666 63.2127H21.933C21.7455 63.4002 21.5956 63.5877 21.4081 63.7376C21.2581 63.9251 21.0707 64.0001 20.8082 64.0001Z" fill="#99B9D8"/>
<path fill-rule="evenodd" clip-rule="evenodd" d="M26.1328 42.8542C26.2453 41.392 26.3953 39.8923 26.4702 38.3551C26.5452 37.8302 26.9577 37.4553 27.4076 37.5302C27.52 37.5302 27.6325 37.5677 27.745 37.6052L31.4193 33.9309L31.4943 33.856L31.6067 33.9309L36.1809 37.6052C36.2933 37.5677 36.4433 37.5302 36.5933 37.5302C37.0807 37.4553 37.5306 37.8677 37.5306 38.3551C37.6056 39.8923 37.7181 41.392 37.868 42.8167C35.656 42.1418 33.6313 40.9421 31.9817 39.2549C30.3695 40.9421 28.3449 42.1793 26.1328 42.8542Z" fill="#003366"/>
<path fill-rule="evenodd" clip-rule="evenodd" d="M42.1044 40.4921C38.2802 40.4921 34.6434 38.9549 31.9814 36.2554C29.3944 38.9549 25.7576 40.4921 21.8959 40.4921C14.0974 40.4921 7.72363 34.1184 7.72363 26.3199C7.72363 20.0211 11.8853 14.5472 17.8841 12.7475C18.559 5.54893 24.6703 -0.0374756 31.9814 -0.0374756C39.33 -0.0374756 45.3663 5.54893 46.1161 12.7475C52.0775 14.5097 56.2392 19.9836 56.2392 26.3199C56.2017 34.1184 49.8654 40.4921 42.1044 40.4921Z" fill="#004C97"/>
<path fill-rule="evenodd" clip-rule="evenodd" d="M57.9637 64H5.99884C5.51144 64 5.06152 63.5876 5.06152 63.0627C5.06152 62.5378 5.51144 62.1254 5.99884 62.1254H57.9637C58.4886 62.1254 58.901 62.5378 58.901 63.0627C58.901 63.5876 58.4886 64 57.9637 64Z" fill="#003366"/>
<path fill-rule="evenodd" clip-rule="evenodd" d="M20.1707 34.4558C15.7841 34.4558 12.2598 30.8565 12.2598 26.4699C12.2598 24.8952 12.7472 23.3955 13.572 22.0833C13.8345 21.6708 14.3968 21.5958 14.8093 21.8583C15.2217 22.0833 15.3342 22.6831 15.0717 23.0956C14.3968 24.0704 14.0969 25.2326 14.0969 26.4324C14.0969 29.8067 16.8339 32.5812 20.1707 32.5812C20.6956 32.5812 21.108 32.9936 21.108 33.5185C21.108 34.0059 20.6956 34.4558 20.1707 34.4558Z" fill="#003366"/>
<path fill-rule="evenodd" clip-rule="evenodd" d="M39.5544 14.1348C39.067 14.1348 38.6546 13.7599 38.6546 13.235C38.5046 9.82313 35.6927 7.12366 32.2059 7.12366C31.681 7.12366 31.2686 6.67375 31.2686 6.18634C31.2686 5.66144 31.681 5.24902 32.2059 5.24902C36.63 5.24902 40.2293 8.66086 40.4918 13.085C40.4918 13.7224 40.0793 14.1348 39.5544 14.1348Z" fill="#003366"/>
<path fill-rule="evenodd" clip-rule="evenodd" d="M42.1039 33.8559C41.729 33.8559 41.354 33.5934 41.2041 33.256C41.0916 32.7686 41.3166 32.2437 41.8415 32.0937C43.3412 31.5688 44.316 30.7815 44.8034 29.6942C45.5907 27.9695 44.8034 26.0574 44.8034 26.0574C44.5784 25.6075 44.8409 25.0826 45.2533 24.8576C45.7407 24.6702 46.2656 24.8576 46.4531 25.3451C46.528 25.42 47.5778 27.9695 46.4531 30.4441C45.7782 31.9813 44.391 33.1435 42.4038 33.8184C42.2914 33.8559 42.2164 33.8559 42.1039 33.8559Z" fill="#003366"/>
<path fill-rule="evenodd" clip-rule="evenodd" d="M30.3315 23.0206H30.294C29.7691 22.9831 29.3942 22.5706 29.4317 22.0832C29.6566 18.2965 24.4451 17.2467 24.4076 17.2467C23.9202 17.1717 23.5453 16.6843 23.6578 16.1594C23.7703 15.7095 24.2202 15.3346 24.7451 15.447C27.1071 15.8969 31.5312 17.9215 31.2688 22.1957C31.2313 22.6831 30.7814 23.0206 30.3315 23.0206Z" fill="#003366"/>
<path fill-rule="evenodd" clip-rule="evenodd" d="M23.658 35.6931C23.3955 35.6931 23.0956 35.5806 22.9456 35.3182C22.6082 34.9057 22.7207 34.3433 23.1331 34.0809C26.17 31.8313 25.0077 27.5197 25.0077 27.4822C24.8953 26.9948 25.1577 26.4699 25.6451 26.3574C26.095 26.2074 26.6199 26.5449 26.7324 26.9948C26.7699 27.2197 28.1571 32.5812 24.1829 35.5431C24.0329 35.6556 23.883 35.6931 23.658 35.6931Z" fill="#003366"/>
<path fill-rule="evenodd" clip-rule="evenodd" d="M34.1188 27.8196C33.8189 27.8196 33.4439 27.8196 33.144 27.7821C32.6191 27.7071 32.3192 27.2572 32.3567 26.7323C32.3942 26.2074 32.8816 25.9075 33.4065 25.945C37.0807 26.4699 39.4053 22.6831 39.4428 22.6081C39.7052 22.1957 40.2676 22.0457 40.68 22.3082C41.0925 22.5706 41.2799 23.133 41.0175 23.5454C40.905 23.7329 38.393 27.8196 34.1188 27.8196Z" fill="#003366"/>
<path fill-rule="evenodd" clip-rule="evenodd" d="M17.434 64C16.9091 64 16.4966 63.5876 16.4966 63.0627C16.6841 53.3521 13.1598 51.1026 13.0848 51.0651C12.6724 50.8026 12.5224 50.2027 12.7849 49.7903C13.0473 49.3779 13.5722 49.2279 14.0221 49.4529C14.2471 49.5279 18.5587 52.0774 18.2963 63.0627C18.2963 63.5876 17.8839 64 17.434 64Z" fill="#003366"/>
<path fill-rule="evenodd" clip-rule="evenodd" d="M18.9334 64C18.4085 64 17.9961 63.5876 17.9961 63.0627C17.9961 59.4259 20.1332 50.4277 20.2082 50.0527C20.3206 49.6028 20.8455 49.2654 21.3329 49.3779C21.7829 49.4904 22.0828 50.0153 22.0078 50.4652C22.0078 50.5776 19.7957 59.6884 19.7957 63.0627C19.8707 63.5876 19.4583 64 18.9334 64Z" fill="#003366"/>
<path fill-rule="evenodd" clip-rule="evenodd" d="M45.0658 64.0001C44.5409 64.0001 44.1285 63.5876 44.1285 63.0627C44.3159 53.3521 40.7916 51.1026 40.7916 51.0651C40.3792 50.8026 40.2292 50.2777 40.4167 49.7903C40.6792 49.3779 41.2041 49.1905 41.6915 49.4529C41.8789 49.5279 46.1906 52.0774 45.9281 63.0627C45.9281 63.5876 45.5907 64.0001 45.0658 64.0001Z" fill="#003366"/>
<path fill-rule="evenodd" clip-rule="evenodd" d="M46.6404 64C46.1155 64 45.7031 63.5876 45.7031 63.0627C45.7031 59.4259 47.7652 50.4277 47.8777 50.0527C47.9902 49.6028 48.5151 49.2654 48.965 49.3779C49.4524 49.4904 49.7523 50.0153 49.6399 50.4652C49.6399 50.5776 47.5028 59.6884 47.5028 63.0627C47.5778 63.5876 47.1278 64 46.6404 64Z" fill="#003366"/>
<path fill-rule="evenodd" clip-rule="evenodd" d="M27.3698 60.6631C27.2198 60.6631 27.0324 60.6256 26.9574 60.5881C26.545 60.3257 26.32 59.8008 26.5824 59.3134C29.2819 54.3643 29.1319 45.7785 29.1319 45.741C29.1319 45.2161 29.5069 44.8037 30.0318 44.8037C30.4817 44.8037 30.8941 45.2161 30.8941 45.7035C30.8941 46.041 31.0441 54.8517 28.1571 60.2132C28.0447 60.5131 27.7072 60.6631 27.3698 60.6631Z" fill="#003366"/>
</g>
<defs>
<clipPath id="clip0_337_62974">
<rect width="64" height="64" fill="white"/>
</clipPath>
</defs>
</svg>
