<svg width="65" height="64" viewBox="0 0 65 64" fill="none" xmlns="http://www.w3.org/2000/svg">
<g clip-path="url(#clip0_337_62593)">
<path d="M49.333 18.75V11.25H64.333V3.75H60.583V7.5H56.833V3.75H53.083V7.5H39.5078L38.6079 3.75H41.833V0H22.958V3.75H26.1831L25.2456 7.5H11.708V3.75H7.95801V7.5H4.08301V3.75H0.333008V11.25H15.458V18.75H22.958V22.5H11.708V18.75H7.95801V22.5H4.08301V18.75H0.333008V26.25H15.458V33.75H22.958V37.5L26.708 41.25H38.083L41.833 37.5V33.75H49.333V26.25H64.333V18.75H60.583V22.5H56.833V18.75H53.083V22.5H41.833V18.75H49.333ZM22.958 30H19.208V26.25H22.958V30ZM23.3706 15H19.208V11.25H24.3081L23.3706 15ZM30.0454 3.75H34.7456L35.6831 7.5H29.1079L30.0454 3.75ZM28.1704 11.25H36.6206L37.5581 15H27.2329L28.1704 11.25ZM38.083 30H26.708V26.25H38.083V30ZM38.083 22.5H26.708V18.75H38.083V22.5ZM45.583 26.25V30H41.833V26.25H45.583ZM41.3828 15L40.4453 11.25H45.583V15H41.3828Z" fill="#004C97"/>
<path d="M49.333 18.75V11.25H64.333V3.75H60.583V7.5H56.833V3.75H53.083V7.5H39.5078L38.6079 3.75H41.833V0H32.333V3.75H34.7456L35.6831 7.5H32.333V11.25H36.6206L37.5581 15H32.333V18.75H38.083V22.5H32.333V26.25H38.083V30H32.333V41.25H38.083L41.833 37.5V33.75H49.333V26.25H64.333V18.75H60.583V22.5H56.833V18.75H53.083V22.5H41.833V18.75H49.333ZM45.583 26.25V30H41.833V26.25H45.583ZM41.3828 15L40.4453 11.25H45.583V15H41.3828Z" fill="#003366"/>
<path d="M53.083 48.75L47.458 52.5L41.833 48.75H22.958L17.333 52.5L11.708 48.75L22.958 37.5H41.833L53.083 48.75Z" fill="#004C97"/>
<path d="M41.833 48.75H32.333V37.5H41.833L53.083 48.75L47.458 52.5L41.833 48.75Z" fill="#004C97"/>
<path d="M11.708 48.75H22.958V62.125H11.708V48.75Z" fill="#004C97"/>
<path d="M41.833 48.75H53.083V62.125H41.833V48.75Z" fill="#003366"/>
<path d="M0.333008 60.25H64.333V64H0.333008V60.25Z" fill="#99B9D8"/>
<path d="M32.333 60.25H64.333V64H32.333V60.25Z" fill="#99B9D8"/>
</g>
<defs>
<clipPath id="clip0_337_62593">
<rect width="64" height="64" fill="white" transform="translate(0.333008)"/>
</clipPath>
</defs>
</svg>
