<svg width="65" height="62" viewBox="0 0 65 62" fill="none" xmlns="http://www.w3.org/2000/svg">
<path d="M52.0431 59.6809L46.45 44.8031L33.4029 57.06V60.2145C33.4029 61.1835 31.931 61.1831 31.931 60.2145V57.0596L18.878 44.797L13.1764 59.9527C12.9743 60.4894 13.4236 60.9675 13.9392 60.9675H51.5552C52.2321 60.9675 52.5467 60.1275 52.0431 59.6809ZM45.8923 43.3192L43.3611 36.586L33.4029 45.4972V54.9776C34.6723 53.7851 45.5181 43.471 45.8923 43.3192ZM31.931 54.9776V45.4964L21.9684 36.5823L19.4348 43.3169C19.8065 43.4639 30.6643 53.7877 31.931 54.9776ZM42.7757 35.0294L40.1904 28.1519L33.4029 33.9336V43.4152L42.7371 35.062C42.7498 35.0508 42.7629 35.0399 42.7757 35.0294ZM31.931 43.4152V33.9329L25.1409 28.1492L22.5537 35.0264C22.5684 35.038 22.5826 35.05 22.5969 35.0624L31.931 43.4152ZM39.5991 26.5791L35.8052 16.4874C35.069 16.8583 34.2587 17.1028 33.4029 17.1924V31.8512L39.5991 26.5791ZM31.931 31.8512V17.1924C31.0749 17.1028 30.2645 16.8579 29.5284 16.4871L25.7326 26.5769L31.9314 31.8512H31.931Z" fill="#004C97"/>
<path fill-rule="evenodd" clip-rule="evenodd" d="M32.6669 16.0045C29.4831 16.0045 26.8926 13.414 26.8926 10.2302C26.8926 7.04607 29.4831 4.45593 32.6669 4.45593C35.8506 4.45593 38.4415 7.04607 38.4415 10.2302C38.4415 13.414 35.8506 16.0045 32.6669 16.0045Z" fill="#003366"/>
<path fill-rule="evenodd" clip-rule="evenodd" d="M63.3344 61.5641H1.99956C0.222803 61.5641 0.222803 58.8656 1.99956 58.8656H63.3344C65.1112 58.8656 65.1112 61.5641 63.3344 61.5641Z" fill="#003366"/>
<path fill-rule="evenodd" clip-rule="evenodd" d="M45.2666 20.0147C43.5244 20.0147 42.6458 17.8967 43.8784 16.6645C47.4338 13.1087 47.4364 7.35092 43.8788 3.79553C42.06 1.9779 44.817 -0.819234 46.6549 1.02015C51.7474 6.11754 51.7407 14.338 46.6556 19.4383C46.2874 19.8077 45.7883 20.0147 45.2666 20.0147ZM41.8391 16.5868C40.0969 16.5868 39.2182 14.4688 40.4516 13.2358C42.1125 11.5753 42.114 8.88318 40.452 7.22267C38.6329 5.40542 41.3902 2.60753 43.2281 4.44729C48.0338 9.25818 44.502 16.5868 41.8391 16.5868ZM20.0662 20.0147C19.5449 20.0147 19.0465 19.8081 18.6779 19.4391C13.5888 14.3458 13.5895 6.11417 18.6779 1.02015C20.4948 -0.798609 23.293 1.95765 21.4537 3.79553C17.8987 7.34717 17.8987 13.1121 21.4537 16.6637C22.687 17.896 21.8084 20.0144 20.0662 20.0144V20.0147ZM23.4937 16.5868C20.8267 16.5868 17.302 9.25181 22.1062 4.44729C23.9238 2.62928 26.7206 5.38592 24.8812 7.22305C23.2188 8.88356 23.2207 11.5757 24.8819 13.2362C26.1153 14.4688 25.2367 16.5868 23.4937 16.5868Z" fill="#99B9D8"/>
</svg>
