<svg width="64" height="64" viewBox="0 0 64 64" fill="none" xmlns="http://www.w3.org/2000/svg">
<path d="M17 31H13V36H17V31Z" fill="#003366"/>
<path d="M22 35H8L6 46H24L22 35Z" fill="#004C97"/>
<path d="M15 35.5C15 35.331 15.016 35.167 15.025 35H8L6 46H24L23.725 44.486C21.388 44.4161 19.17 43.4388 17.5413 41.7613C15.9125 40.0839 15.001 37.8381 15 35.5Z" fill="#004C97"/>
<path d="M19 38H11V40H19V38Z" fill="#99B9D8"/>
<path d="M18 2H13V12H21L18 2Z" fill="#78DEEF"/>
<path d="M52 40H32V58H52V40Z" fill="#004C97"/>
<path d="M10.674 61C12.841 61 12.841 59 15.009 59C17.177 59 17.174 61 19.339 61C21.085 61 21.439 59.714 22.639 59.21L27 47L15 43L3 47L7.359 59.207C8.57 59.707 8.921 61 10.674 61Z" fill="#99B9D8"/>
<path d="M53.282 15.306C52.2349 14.2581 50.9915 13.4267 49.6229 12.8594C48.2544 12.2922 46.7875 12.0001 45.306 12H13L19 18L56 18.022L53.282 15.306Z" fill="#004C97"/>
<path d="M56.379 18.405L56 18.026L19 18L19.247 18.246C20.4342 19.4354 21.8442 20.3792 23.3964 21.0233C24.9486 21.6675 26.6125 21.9993 28.293 22H54.893C55.3092 21.9993 55.7159 21.8754 56.0617 21.6437C56.4075 21.4121 56.677 21.0832 56.836 20.6985C56.995 20.3138 57.0364 19.8907 56.9551 19.4825C56.8737 19.0743 56.6733 18.6993 56.379 18.405Z" fill="#99B9D8"/>
<path d="M16 43.333L15 43L14 43.333V59H16V43.333Z" fill="white"/>
<path d="M59 44H52V58H62V50L59 44Z" fill="#004C97"/>
<path d="M55 61C56.6569 61 58 59.6569 58 58C58 56.3431 56.6569 55 55 55C53.3431 55 52 56.3431 52 58C52 59.6569 53.3431 61 55 61Z" fill="#99B9D8"/>
<path d="M29 4L31 12H37L32 4H29Z" fill="#003366"/>
<path d="M25.999 15H24V17H25.999V15Z" fill="white"/>
<path d="M29.999 15H28V17H29.999V15Z" fill="white"/>
<path d="M33.999 15H32V17H33.999V15Z" fill="white"/>
<path d="M37.999 15H36V17H37.999V15Z" fill="white"/>
<path d="M53.982 16.007L53.282 15.307C53.175 15.199 53.057 15.107 52.945 15.001H44V17.001H53.982V16.007Z" fill="white"/>
<path d="M30.9892 20L26.9922 29L29.9902 30L36.9862 20H30.9892Z" fill="#003366"/>
<path d="M28 62C27.4643 61.9971 26.935 61.8832 26.4455 61.6654C25.956 61.4477 25.5169 61.1309 25.156 60.735C24.9814 60.5065 24.7564 60.3214 24.4986 60.1939C24.2408 60.0665 23.9571 60.0002 23.6695 60.0002C23.3819 60.0002 23.0982 60.0665 22.8404 60.1939C22.5826 60.3214 22.3576 60.5065 22.183 60.735C21.8241 61.1335 21.3855 61.4522 20.8956 61.6704C20.4056 61.8885 19.8753 62.0012 19.339 62.0012C18.8027 62.0012 18.2724 61.8885 17.7824 61.6704C17.2925 61.4522 16.8539 61.1335 16.495 60.735C16.3202 60.5065 16.095 60.3213 15.837 60.1939C15.5791 60.0665 15.2952 60.0002 15.0075 60.0002C14.7198 60.0002 14.4359 60.0665 14.178 60.1939C13.92 60.3213 13.6948 60.5065 13.52 60.735C13.1605 61.1332 12.7215 61.4516 12.2312 61.6695C11.741 61.8874 11.2105 62 10.674 62C10.1375 62 9.60701 61.8874 9.11677 61.6695C8.62653 61.4516 8.18748 61.1332 7.828 60.735C7.64932 60.5098 7.4229 60.3271 7.16507 60.2C6.90724 60.0729 6.62442 60.0046 6.337 60C6.04962 60.0048 5.76687 60.0732 5.50907 60.2003C5.25127 60.3274 5.02482 60.51 4.846 60.735C4.48473 61.131 4.04533 61.4479 3.5555 61.6656C3.06566 61.8833 2.53603 61.9972 2 62V60C2.28739 59.9953 2.57017 59.9269 2.82798 59.7998C3.08579 59.6727 3.31222 59.4901 3.491 59.265C3.85057 58.8667 4.28971 58.5484 4.78003 58.3304C5.27035 58.1125 5.80094 57.9999 6.3375 57.9999C6.87406 57.9999 7.40465 58.1125 7.89497 58.3304C8.38529 58.5484 8.82443 58.8667 9.184 59.265C9.35926 59.4935 9.58476 59.6787 9.84305 59.8061C10.1013 59.9336 10.3855 59.9998 10.6735 59.9998C10.9615 59.9998 11.2457 59.9336 11.504 59.8061C11.7622 59.6787 11.9877 59.4935 12.163 59.265C12.5222 58.8667 12.9611 58.5482 13.4511 58.3302C13.9412 58.1123 14.4716 57.9996 15.008 57.9996C15.5444 57.9996 16.0748 58.1123 16.5649 58.3302C17.0549 58.5482 17.4938 58.8667 17.853 59.265C18.0277 59.4933 18.2526 59.6783 18.5103 59.8056C18.768 59.9329 19.0516 59.9991 19.339 59.9991C19.6264 59.9991 19.91 59.9329 20.1677 59.8056C20.4254 59.6783 20.6503 59.4933 20.825 59.265C21.1839 58.8666 21.6226 58.548 22.1125 58.33C22.6025 58.1119 23.1327 57.9993 23.669 57.9993C24.2053 57.9993 24.7355 58.1119 25.2255 58.33C25.7154 58.548 26.1541 58.8666 26.513 59.265C26.6909 59.4901 26.9166 59.6728 27.1737 59.7999C27.4309 59.927 27.7132 59.9954 28 60V62Z" fill="#003366"/>
<path d="M42 15H40.001V17H42V15Z" fill="white"/>
<path d="M56 44V50H62L59 44H56Z" fill="#99B9D8"/>
<path d="M36 41C36 40.662 36.032 40.333 36.051 40H32V58H48.126C44.5876 56.7797 41.5179 54.4863 39.3444 51.4391C37.1709 48.392 36.0018 44.7429 36 41Z" fill="#003366"/>
<path d="M15 5C15 3.97147 15.1994 2.95268 15.587 2H13V12H19.13C17.879 11.3086 16.8362 10.2946 16.1098 9.06354C15.3835 7.8325 15.0003 6.42934 15 5Z" fill="#004C97"/>
<path d="M15.358 38H11V40H16.217C15.8502 39.3708 15.5618 38.6992 15.358 38Z" fill="white"/>
<path d="M18 2H13V12H21L18 2Z" fill="#004C97"/>
<path d="M14 2H13V12H21L20.348 9.827C18.5528 9.44812 16.9424 8.46369 15.7866 7.0387C14.6309 5.6137 14.0001 3.83475 14 2Z" fill="#003366"/>
<path d="M40 61C41.6569 61 43 59.6569 43 58C43 56.3431 41.6569 55 40 55C38.3431 55 37 56.3431 37 58C37 59.6569 38.3431 61 40 61Z" fill="#99B9D8"/>
</svg>
