<svg width="65" height="64" viewBox="0 0 65 64" fill="none" xmlns="http://www.w3.org/2000/svg">
<path d="M50.7705 18.875C52.8416 18.875 54.5205 17.1961 54.5205 15.125C54.5205 13.0539 52.8416 11.375 50.7705 11.375C48.6994 11.375 47.0205 13.0539 47.0205 15.125C47.0205 17.1961 48.6994 18.875 50.7705 18.875Z" fill="#004C97"/>
<path d="M12.6455 48.25C14.0268 48.25 15.1455 49.3687 15.1455 50.75C15.1455 52.13 14.0268 53.25 12.6455 53.25C11.2643 53.25 10.1455 52.13 10.1455 50.75C10.1455 49.3687 11.2643 48.25 12.6455 48.25Z" fill="#004C97"/>
<path d="M53.2705 38.875V44.5H47.6455V50.125H42.0205V47.0125V44.5H36.3955V38.875H42.0205V33.25H46.343H47.6455V38.875H53.2705Z" fill="#003366"/>
<path d="M46.3432 33.25H42.0207V38.875H36.3957V44.5H42.0207V47.0125C39.2643 49.6651 35.5195 51.2975 31.3895 51.2975C22.927 51.2975 16.0645 44.4238 16.0645 35.9614C16.0645 35.1664 16.1757 34.3614 16.377 33.5464C17.192 33.7614 18.0482 33.8751 18.932 33.8751C24.482 33.8751 28.9757 29.3739 28.9757 23.8301C28.9757 21.8926 28.0082 19.8914 26.6245 17.8589C28.3632 15.7001 30.0232 13.5551 31.3332 11.4526C35.8781 18.7413 44.437 26.2188 46.3432 33.25Z" fill="#004C97"/>
<path d="M16.3768 33.5463C12.0718 32.4138 8.89551 28.49 8.89551 23.83C8.89551 18.7975 15.5918 13.0825 18.8943 7.78003C20.9818 11.1263 24.3605 14.5338 26.6243 17.8588C28.008 19.8913 28.9755 21.8925 28.9755 23.83C28.9755 29.3738 24.4818 33.875 18.9318 33.875C18.048 33.875 17.1918 33.7613 16.3768 33.5463Z" fill="#99B9D8"/>
<path d="M56.083 50.125C56.6006 50.125 57.0205 50.5437 57.0205 51.0625C57.0205 51.58 56.6006 52 56.083 52C55.5654 52 55.1455 51.58 55.1455 51.0625C55.1455 50.5437 55.5654 50.125 56.083 50.125Z" fill="#003366"/>
<path d="M55.458 25.125C55.9756 25.125 56.3955 25.5437 56.3955 26.0625C56.3955 26.58 55.9756 27 55.458 27C54.9404 27 54.5205 26.58 54.5205 26.0625C54.5205 25.5437 54.9404 25.125 55.458 25.125Z" fill="#003366"/>
<path d="M38.583 7C39.1006 7 39.5205 7.41875 39.5205 7.9375C39.5205 8.455 39.1006 8.875 38.583 8.875C38.0654 8.875 37.6455 8.455 37.6455 7.9375C37.6455 7.41875 38.0654 7 38.583 7Z" fill="#003366"/>
<path d="M22.958 55.125C23.4755 55.125 23.8955 55.5437 23.8955 56.0625C23.8955 56.58 23.4755 57 22.958 57C22.4405 57 22.0205 56.58 22.0205 56.0625C22.0205 55.5437 22.4405 55.125 22.958 55.125Z" fill="#003366"/>
<path d="M8.58301 8.25C9.10051 8.25 9.52051 8.66875 9.52051 9.1875C9.52051 9.705 9.10051 10.125 8.58301 10.125C8.06551 10.125 7.64551 9.705 7.64551 9.1875C7.64551 8.66875 8.06551 8.25 8.58301 8.25Z" fill="#003366"/>
<path d="M8.58301 36.375C9.10051 36.375 9.52051 36.7937 9.52051 37.3125C9.52051 37.83 9.10051 38.25 8.58301 38.25C8.06551 38.25 7.64551 37.83 7.64551 37.3125C7.64551 36.7937 8.06551 36.375 8.58301 36.375Z" fill="#003366"/>
<path d="M40.1825 30.7502C39.9694 30.7502 39.7618 30.6411 39.6448 30.4447C38.3373 28.2477 36.4405 25.9486 34.6063 23.7253C33.5666 22.4649 32.4914 21.1617 31.5216 19.8766C31.3138 19.6009 31.3685 19.2091 31.644 19.0012C31.9195 18.7932 32.3114 18.8481 32.5194 19.1236C33.4728 20.3869 34.5391 21.6797 35.5704 22.9298C37.4346 25.1894 39.3623 27.5261 40.7189 29.8054C40.8954 30.1021 40.798 30.4856 40.5014 30.6622C40.4014 30.7217 40.2911 30.7502 40.1825 30.7502Z" fill="#003366"/>
</svg>
