<svg width="24" height="24" viewBox="0 0 24 24" fill="none" xmlns="http://www.w3.org/2000/svg">
<path opacity="0.4" fill-rule="evenodd" clip-rule="evenodd" d="M15.125 12C15.125 12.5523 14.6773 13 14.125 13H4.125C3.5727 13 3.125 12.5523 3.125 12C3.125 11.4477 3.5727 11 4.125 11H14.125C14.6773 11 15.125 11.4477 15.125 12Z" fill="#004C97"/>
<path d="M20.3138 13.2272C20.6067 12.9205 20.875 12.5259 20.875 12.0012C20.875 11.4765 20.6067 11.0838 20.3138 10.7772C20.041 10.4916 19.6117 10.1535 19.175 9.80952L18.1612 9.01087C17.4187 8.42591 16.7971 7.93625 16.2799 7.63613C15.7596 7.33426 15.1199 7.089 14.4567 7.38265C13.7754 7.68431 13.5533 8.33642 13.4631 8.92321C13.3749 9.49729 13.3749 10.2671 13.375 11.1757V12.8287C13.3749 13.7373 13.3749 14.5071 13.4631 15.0812C13.5533 15.668 13.7754 16.3201 14.4567 16.6217C15.1199 16.9154 15.7596 16.6701 16.2799 16.3683C16.7971 16.0681 17.4187 15.5785 18.1612 14.9935L19.175 14.1949C19.6117 13.8509 20.041 13.5128 20.3138 13.2272Z" fill="#004C97"/>
</svg>
