<svg width="45" height="50" viewBox="0 0 45 50" fill="none" xmlns="http://www.w3.org/2000/svg">
<path d="M22.4867 50C21.3961 50 20.3203 49.7119 19.3747 49.1669L3.10781 39.7738C1.18815 38.6653 -0.00415039 36.6002 -0.00415039 34.3839V15.6001C-0.00415039 13.3839 1.18815 11.3184 3.10781 10.2093L19.3747 0.817649C21.2651 -0.272031 23.7073 -0.272921 25.5991 0.817209L41.8659 10.2098C43.7856 11.3184 44.9779 13.3834 44.9779 15.6001V34.3839C44.9779 36.6002 43.7856 38.6652 41.8659 39.7743L25.5991 49.166C24.6534 49.711 23.5772 50 22.4867 50ZM22.4867 0.459831C21.4793 0.459831 20.4855 0.72629 19.6123 1.2304L3.34546 10.6221C1.57253 11.6456 0.47115 13.5531 0.47115 15.6006V34.3844C0.47115 36.4314 1.57253 38.3385 3.34546 39.3615L19.6123 48.7541C21.3592 49.7614 23.615 49.7623 25.361 48.7537L41.6278 39.362C43.4008 38.3385 44.5022 36.431 44.5022 34.3844V15.6006C44.5022 13.5535 43.4008 11.646 41.6278 10.623L25.361 1.2304C24.4873 0.72629 23.4935 0.459831 22.4867 0.459831Z" fill="white"/>
<path d="M2.13611 14.9155V35.0689C2.13611 36.1037 2.68838 37.0601 3.58452 37.5773L21.0379 47.654C21.934 48.1716 23.0381 48.1716 23.9342 47.654L41.3876 37.5773C42.2837 37.0597 42.836 36.1037 42.836 35.0689V14.9155C42.836 13.8807 42.2837 12.9242 41.3876 12.4071L23.9342 2.33035C23.0381 1.81274 21.934 1.81274 21.0379 2.33035L3.58452 12.4071C2.68793 12.9247 2.13611 13.8807 2.13611 14.9155Z" fill="white"/>
<path d="M36.6213 37.6497C36.5978 37.4627 36.5182 37.2872 36.3929 37.1463C34.4324 34.723 32.4727 32.2987 30.5139 29.8734C30.081 29.3385 29.7915 29.307 29.2471 29.7312C29.1477 29.808 29.0464 29.8816 28.9457 29.9565C28.7833 29.9288 28.7022 30.0603 28.6059 30.1453C28.3353 30.3806 28.0017 30.5468 27.7985 30.8589C27.6594 30.9848 27.5191 31.1068 27.3812 31.2365C27.042 31.5511 27.0106 31.8998 27.3026 32.2629C28.2793 33.4768 29.2622 34.6863 30.2395 35.9009C31.2359 37.1389 32.2298 38.3785 33.2212 39.6194C33.7246 40.1116 33.9801 40.1229 34.5358 39.6748C35.0915 39.2268 35.6377 38.7856 36.1928 38.3457C36.4218 38.1569 36.6075 37.96 36.6213 37.6497Z" fill="#004C97"/>
<path d="M27.7999 30.8567L28.9452 29.9542C28.718 29.6667 28.5009 29.3709 28.2605 29.0952C28.1108 28.9247 28.0824 28.8177 28.2656 28.6333C29.6878 27.1954 30.6739 25.4994 31.1352 23.524C31.9187 20.1541 31.2944 17.0541 29.207 14.2921C27.5136 12.0505 25.2424 10.6667 22.4823 10.1752C17.2792 9.24949 12.2875 12.0631 10.3599 16.9371C9.75222 18.4494 9.50238 20.0817 9.62994 21.7066C9.8332 24.2867 10.8155 26.5422 12.5933 28.4401C12.6134 28.4641 12.6319 28.4893 12.6487 28.5157C12.9118 28.6126 12.9885 28.5729 13.0307 28.3212C13.0496 28.2123 13.0118 28.0953 13.1081 27.9638C12.9898 28.5566 13.3359 28.6661 13.8161 28.6447C13.6663 28.7844 13.514 28.7284 13.3806 28.7605C13.2277 28.7976 13.0766 28.8372 13.2126 29.0455C14.5561 30.2412 16.0954 31.0939 17.8418 31.5168C20.9669 32.272 23.8976 31.7748 26.5935 30.0065C26.8673 29.8271 27.0057 29.8347 27.1863 30.1015C27.3669 30.3683 27.5916 30.6049 27.7999 30.8567Z" fill="#003366"/>
<path d="M27.1082 27.9579C28.4383 26.7568 29.3861 25.1913 29.8337 23.4559C31.1987 18.3333 28.3397 13.2095 23.2807 11.6583C18.2117 10.1039 12.6706 13.1057 11.2648 18.2226C10.239 21.9588 11.1792 25.2079 13.9028 27.9504C14.1187 27.8509 14.0734 27.6357 14.0916 27.4671C14.1495 26.9466 14.2175 26.4281 14.298 25.9114C14.3262 25.7462 14.3668 25.5834 14.4195 25.4243C14.4702 25.2424 14.567 25.0766 14.7007 24.9431C14.8343 24.8095 15.0002 24.7128 15.1822 24.6623C16.0204 24.3954 16.8643 24.1481 17.6994 23.8706C17.9549 23.7703 18.2182 23.6914 18.4867 23.6346C18.6755 23.3495 18.8699 23.0682 19.1663 22.875C19.1966 22.7694 19.209 22.6594 19.2028 22.5497C19.2311 22.213 19.1223 21.9273 18.9404 21.6403C18.5257 20.989 18.1437 20.3188 17.8951 19.5794C17.8681 19.5001 17.8498 19.4038 17.7649 19.3748C17.4332 19.2597 17.4156 18.9513 17.3533 18.687C17.2696 18.334 17.1802 17.9746 17.3193 17.6084C17.3741 17.4649 17.5358 17.4108 17.5805 17.2635C17.5873 17.222 17.5821 17.1794 17.5654 17.1408C17.0984 16.2522 17.5326 15.256 18.2425 14.6412C18.829 14.134 19.5068 13.8137 20.2846 13.7652C21.0832 13.7155 21.7616 14.0018 22.2915 14.6104C22.3998 14.7511 22.5477 14.8563 22.7162 14.9124C23.1763 15.0496 23.4425 15.3737 23.4815 15.8451C23.5129 16.2302 23.5878 16.6122 23.5652 17.0011C23.5696 17.1364 23.5614 17.2742 23.6187 17.402C23.8786 17.9803 23.7496 18.5448 23.5595 19.1068C23.5394 19.1665 23.5167 19.2402 23.462 19.2641C23.1398 19.4044 23.0995 19.7241 22.9799 19.9953C22.7051 20.6156 22.3784 21.2116 22.0032 21.7769C21.8856 21.9556 21.7874 22.135 21.8037 22.3565C21.8037 22.522 21.8037 22.6881 21.8881 22.8385C22.1108 23.0997 22.3456 23.3508 22.5803 23.6C22.827 23.7177 23.1001 23.7554 23.3493 23.8656C24.1422 24.1362 24.9389 24.3967 25.7407 24.6302C26.331 24.8013 26.5965 25.1902 26.7023 25.7415C26.8225 26.3708 26.8911 27.0039 26.9609 27.6382C26.976 27.761 26.9634 27.8988 27.1082 27.9579Z" fill="#F3F3F3"/>
<path d="M17.731 23.7939C16.7711 24.044 15.8247 24.3429 14.8953 24.6894C14.3919 24.8782 14.2862 25.4024 14.2144 25.8851C14.12 26.5251 14.0433 27.1683 13.9589 27.8102C13.9526 27.8618 13.9533 27.9153 13.9017 27.948C15.0866 29.0304 16.4371 29.8151 17.9921 30.2261C18.6076 30.3884 19.2275 30.5275 19.8694 30.5269C19.9153 30.3519 19.8001 30.2267 19.729 30.092C19.201 29.0902 18.6636 28.0934 18.1438 27.0877C17.955 26.7271 17.9632 26.7246 18.2885 26.4786C18.5793 26.2583 18.5686 26.1532 18.2407 26.0066C17.6164 25.7278 17.6158 25.7278 17.719 25.0557C17.7719 24.7134 17.7241 24.3635 17.7983 24.0224C17.8091 23.9818 17.8085 23.939 17.7967 23.8987C17.7848 23.8584 17.7621 23.8222 17.731 23.7939Z" fill="#004C97"/>
<path d="M27.1072 27.9582C27.0235 27.3383 26.9417 26.7178 26.8555 26.0986C26.7925 25.6524 26.7202 25.2075 26.3841 24.8639C26.3113 24.7739 26.2169 24.7037 26.1097 24.66L23.3313 23.7947C23.2275 23.8966 23.2357 24.0319 23.2571 24.1496C23.3244 24.5222 23.2948 24.9016 23.3553 25.2748C23.4264 25.7153 23.3773 25.7883 22.9588 25.9526C22.9198 25.9677 22.8808 25.9834 22.8424 25.9998C22.4849 26.1539 22.4723 26.2735 22.7883 26.5133C23.1042 26.753 23.0991 26.7549 22.9003 27.1212C22.3603 28.1142 21.8235 29.1098 21.3132 30.1186C21.2502 30.2444 21.1458 30.3652 21.1873 30.527C22.198 30.4999 23.1633 30.2507 24.0978 29.887C25.1677 29.4704 26.1211 28.8549 26.9826 28.0979C27.0273 28.0542 27.0689 28.0075 27.1072 27.9582Z" fill="#004C97"/>
<path d="M21.1922 30.5273C21.8164 29.3449 22.4357 28.1599 23.07 26.9825C23.1908 26.7584 23.1726 26.6313 22.9442 26.5149C22.8183 26.452 22.6207 26.3752 22.6345 26.2355C22.6503 26.0719 22.8781 26.0536 23.0121 26.024C23.5256 25.9101 23.4923 25.7585 23.4526 25.2878C23.4073 24.7906 23.3576 24.2941 23.3394 23.795C23.1016 23.6766 22.8468 23.5959 22.5842 23.5559C22.4621 23.593 22.4483 23.7051 22.4155 23.8026C22.3419 24.021 22.296 24.2481 22.2198 24.4659C21.8158 25.6207 21.3388 26.7484 20.9908 27.9239C20.8505 28.4229 20.6296 28.8949 20.5276 29.3474C20.4395 28.844 20.2016 28.3468 20.0569 27.822C19.8203 27.1725 19.6667 26.4822 19.359 25.8711C19.0116 25.1827 18.8235 24.4539 18.5812 23.7365C18.566 23.6856 18.5341 23.6412 18.4906 23.6107C18.2093 23.5477 17.977 23.6906 17.7354 23.7925C17.6932 24.3834 17.6574 24.975 17.6095 25.5653C17.5894 25.7956 17.6725 25.9045 17.8959 25.9655C18.0909 26.019 18.3842 26.0467 18.4301 26.2216C18.471 26.3783 18.1784 26.452 18.0293 26.5602C17.8713 26.6754 17.9034 26.7855 17.9814 26.9328C18.6116 28.1301 19.2413 29.3291 19.8706 30.5299C20.3111 30.6217 20.7517 30.5985 21.1922 30.5273Z" fill="#99B9D8"/>
<path d="M17.551 17.2747C17.2584 17.3797 17.1797 17.6233 17.1684 17.8964C17.1507 18.3306 17.254 18.7466 17.4012 19.15C17.4478 19.2758 17.5013 19.4369 17.6982 19.4181C17.7939 19.4093 17.7794 19.4873 17.797 19.5439C18.0406 20.3079 18.4358 20.9989 18.8606 21.6703C19.0355 21.9472 19.1639 22.2128 19.1268 22.5419C19.2853 22.5042 19.2344 22.3991 19.2124 22.3059C19.228 22.3248 19.2405 22.3461 19.2495 22.3689C19.6837 23.243 20.4275 23.1951 21.1443 23.0177C21.3212 22.9743 21.4395 22.8289 21.5546 22.6923C21.6559 22.574 21.7434 22.445 21.8775 22.3563C21.8611 22.1675 21.9404 22.019 22.0386 21.8654C22.503 21.1474 22.9429 20.418 23.2147 19.5999C23.2412 19.52 23.2449 19.4275 23.3922 19.4363C23.5395 19.4451 23.5885 19.2884 23.6244 19.1752C23.8132 18.5685 24.0133 17.9612 23.6634 17.3382C23.6169 17.2551 23.6395 17.1337 23.6307 17.0305C23.3733 17.3407 23.0297 17.5969 22.992 18.0562C22.9441 17.7636 22.8925 17.4779 22.6842 17.247C22.581 17.1331 22.6056 16.9713 22.5911 16.826C22.5439 16.337 22.2632 16.1967 21.8485 16.4484C21.1437 16.8845 20.4011 17.1903 19.5509 17.1777C19.1311 17.1753 18.7179 17.0726 18.3458 16.8782C18.1123 16.7561 18.011 16.8153 18.0538 17.0563C18.1048 17.3464 18.0437 17.612 17.9714 17.8706C17.8744 17.6485 17.967 17.286 17.551 17.2747Z" fill="#FED299"/>
<path d="M17.5499 17.2743C17.7858 17.3416 17.8198 17.5461 17.8607 17.7406C17.8828 17.8958 17.9203 18.0484 17.9727 18.1962C18.0439 17.7607 18.2717 17.3491 18.0665 16.84C18.3887 16.9753 18.6329 17.1308 18.9129 17.1912C20.0004 17.424 20.9563 17.0855 21.8707 16.5336C22.0016 16.4543 22.1136 16.2686 22.3112 16.3907C22.5 16.5065 22.5138 16.6978 22.5044 16.8904C22.4946 16.9897 22.5079 17.09 22.5433 17.1833C22.5787 17.2766 22.6351 17.3605 22.7083 17.4284C22.9046 17.6128 22.8568 17.869 22.9034 18.1012C22.9191 18.1805 22.9034 18.3025 23.004 18.3051C23.1299 18.3082 23.077 18.1792 23.0827 18.1087C23.1079 17.8035 23.1714 17.5216 23.4842 17.3812C23.6516 17.3057 23.5629 17.1358 23.6315 17.0257C23.6113 16.6399 23.6044 16.2523 23.5685 15.8665C23.5169 15.3001 23.2136 14.9458 22.6649 14.8005C22.5737 14.7838 22.4916 14.7346 22.4339 14.662C21.5636 13.5293 20.1382 13.4185 18.8985 14.0868C18.137 14.4965 17.5511 15.0692 17.3346 15.9496C17.2163 16.4272 17.317 16.8589 17.5499 17.2743Z" fill="#003366"/>
<path d="M21.0559 27.9362C21.2862 27.2691 21.4775 26.585 21.7576 25.94C22.0943 25.1641 22.334 24.3604 22.5801 23.5556C22.4183 23.2838 22.2044 23.0466 21.9508 22.8577C21.8513 22.9137 21.8174 23.0175 21.7733 23.1094C21.5392 23.5971 21.1138 23.8815 20.6764 24.1553C20.5506 24.2321 20.4404 24.2044 20.3221 24.1383C19.8848 23.8935 19.5135 23.582 19.2724 23.1314C19.229 23.0509 19.2007 22.9546 19.0994 22.92C18.8571 22.9458 18.5538 23.2887 18.4871 23.6122C18.6431 24.1742 18.6878 24.8041 18.9804 25.2817C19.4713 26.081 19.572 27.0042 19.976 27.8185C20.1692 27.5781 20.122 27.281 20.1421 27.0098C20.195 26.3 20.2907 25.5926 20.2825 24.8784C20.2799 24.8047 20.2932 24.7312 20.3215 24.6631C20.3339 24.6282 20.356 24.5975 20.3852 24.5746C20.4144 24.5518 20.4495 24.5377 20.4864 24.5341C20.5288 24.531 20.571 24.5423 20.6062 24.5662C20.6413 24.5901 20.6674 24.6251 20.6802 24.6657C20.7331 24.7947 20.7186 24.9337 20.7236 25.0697C20.7551 25.9595 20.8828 26.843 20.9225 27.7329C20.9256 27.8153 20.9181 27.9305 21.0559 27.9362Z" fill="#FCFCFC"/>
<path d="M19.098 22.9211C19.3207 23.5655 19.8185 23.9469 20.383 24.266C20.4166 24.2899 20.4566 24.3035 20.4979 24.3049C20.5392 24.3064 20.58 24.2957 20.6152 24.2741C21.2055 23.9381 21.7404 23.5517 21.9493 22.8576C21.8996 22.6944 21.875 22.5247 21.8763 22.3541C21.7045 22.266 21.6466 22.4221 21.5919 22.5127C21.2772 23.0332 20.7864 23.0388 20.2571 23.0269C19.7159 23.0149 19.512 22.6071 19.2503 22.2566C19.1307 22.3378 19.2282 22.4787 19.1288 22.541C19.117 22.6682 19.1068 22.7949 19.098 22.9211Z" fill="#F0BA7D"/>
<path d="M21.0554 27.9361C20.9969 27.2804 20.934 26.6253 20.8798 25.9689C20.8452 25.5416 20.7836 25.1162 20.8169 24.6839C20.8326 24.4881 20.6439 24.3849 20.5167 24.3824C20.3701 24.3786 20.1832 24.4812 20.1857 24.6864C20.197 25.7361 20.0473 26.775 19.973 27.8191C20.1488 28.3603 20.3242 28.9015 20.4991 29.4427H20.5658C20.7315 28.9401 20.8947 28.4379 21.0554 27.9361Z" fill="#003366"/>
<path d="M13.0797 27.6978L12.746 28.308L12.1358 28.6417L12.746 28.9754L13.0797 29.5857L13.4135 28.9754L14.0237 28.6417L13.4135 28.308L13.0797 27.6978Z" fill="#99B9D8"/>
<path d="M32.2106 14.9231L31.8768 15.5333L31.2666 15.8671L31.8768 16.2008L32.2106 16.811L32.5443 16.2008L33.1545 15.8671L32.5443 15.5333L32.2106 14.9231Z" fill="#99B9D8"/>
<path d="M28.5607 17.251L28.2269 17.8612L27.6167 18.1949L28.2269 18.5287L28.5607 19.1389L28.8944 18.5287L29.5046 18.1949L28.8944 17.8612L28.5607 17.251Z" fill="#004C97"/>
<path d="M10.3102 29.0193L9.75393 30.0363L8.73689 30.5925L9.75393 31.1488L10.3102 32.1658L10.8664 31.1488L11.8834 30.5925L10.8664 30.0363L10.3102 29.0193Z" fill="#003366"/>
<path d="M30.7585 10.769L30.2023 11.7861L29.1853 12.3423L30.2023 12.8985L30.7585 13.9156L31.3148 12.8985L32.3318 12.3423L31.3148 11.7861L30.7585 10.769Z" fill="#003366"/>
<path d="M13.7408 31.5364L13.4627 32.0449L12.9542 32.323L13.4627 32.6011L13.7408 33.1096L14.019 32.6011L14.5275 32.323L14.019 32.0449L13.7408 31.5364Z" fill="#004C97"/>
<path d="M27.4591 10.4541L27.181 10.9626L26.6725 11.2407L27.181 11.5188L27.4591 12.0274L27.7372 11.5188L28.2457 11.2407L27.7372 10.9626L27.4591 10.4541Z" fill="#004C97"/>
</svg>
