<svg width="326" height="144" viewBox="0 0 326 144" fill="none" xmlns="http://www.w3.org/2000/svg">
<path d="M309.154 55.9652H325.794C325.794 74.7812 310.69 89.7572 291.874 89.7572C273.058 89.7572 258.082 74.7812 258.082 55.9652C258.082 37.1492 273.058 22.0452 291.874 22.0452C304.418 22.0452 315.17 28.7012 321.058 38.5572L287.138 72.4772C288.674 72.8612 290.21 73.1172 291.874 73.1172C301.474 73.1172 309.154 65.5652 309.154 55.9652ZM275.362 60.7012L296.738 39.3252C295.202 38.9412 293.538 38.6852 291.874 38.6852C282.274 38.6852 274.722 46.3652 274.722 55.9652C274.722 57.6292 274.978 59.1652 275.362 60.7012Z" fill="#254BC6"/>
<path d="M225.444 59.8054V38.6854H215.332V22.0454H225.444V0.2854H242.084V22.0454H252.964V38.6854H242.084V59.8054C242.084 69.4054 244.9 73.2454 252.836 73.2454V89.8854C234.788 89.8854 225.444 81.4374 225.444 59.8054Z" fill="#254BC6"/>
<path d="M0.206543 89.8854V27.1654H16.8465V89.8854H0.206543ZM31.5665 45.0854L68.0465 89.8854H47.1825L16.8465 53.4054L31.5665 45.0854ZM40.2705 53.4054H0.206543V36.7654H40.2705C53.7105 36.7654 53.9665 16.9254 40.2705 16.9254H0.206543V0.2854H40.2705C76.8785 0.2854 76.6225 53.4054 40.2705 53.4054Z" fill="#254BC6"/>
<g clip-path="url(#paint0_diamond_476_6764_clip_path)" data-figma-skip-parse="true"><g transform="matrix(-0.0259808 0.015 -0.0430774 -0.0248708 104.767 55.8437)"><rect x="0" y="0" width="1033.33" height="1020.1" fill="url(#paint0_diamond_476_6764)" opacity="1" shape-rendering="crispEdges"/><rect x="0" y="0" width="1033.33" height="1020.1" transform="scale(1 -1)" fill="url(#paint0_diamond_476_6764)" opacity="1" shape-rendering="crispEdges"/><rect x="0" y="0" width="1033.33" height="1020.1" transform="scale(-1 1)" fill="url(#paint0_diamond_476_6764)" opacity="1" shape-rendering="crispEdges"/><rect x="0" y="0" width="1033.33" height="1020.1" transform="scale(-1)" fill="url(#paint0_diamond_476_6764)" opacity="1" shape-rendering="crispEdges"/></g></g><path d="M130.748 40.8435C106.956 27.1074 77.4818 21.8553 63.1328 30.1397C48.7843 38.4238 54.995 57.1077 78.786 70.8435C102.578 84.5796 134.939 88.1653 149.288 79.8812C163.637 71.5965 154.539 54.5793 130.748 40.8435ZM102.603 57.0929C95.3335 52.8959 92.994 47.4418 97.3783 44.9105C101.763 42.3789 111.209 43.7293 118.479 47.9266C125.749 52.1239 128.088 57.5783 123.704 60.1096C119.319 62.6405 109.872 61.2898 102.603 57.0929Z" data-figma-gradient-fill="{&#34;type&#34;:&#34;GRADIENT_DIAMOND&#34;,&#34;stops&#34;:[{&#34;color&#34;:{&#34;r&#34;:0.94509804248809814,&#34;g&#34;:0.85490196943283081,&#34;b&#34;:0.89411765336990356,&#34;a&#34;:1.0},&#34;position&#34;:0.0},{&#34;color&#34;:{&#34;r&#34;:0.40784314274787903,&#34;g&#34;:0.62352943420410156,&#34;b&#34;:0.90588235855102539,&#34;a&#34;:1.0},&#34;position&#34;:0.37999999523162842},{&#34;color&#34;:{&#34;r&#34;:0.14509804546833038,&#34;g&#34;:0.29411765933036804,&#34;b&#34;:0.77647060155868530,&#34;a&#34;:1.0},&#34;position&#34;:0.70999997854232788},{&#34;color&#34;:{&#34;r&#34;:0.15294118225574493,&#34;g&#34;:0.18039216101169586,&#34;b&#34;:0.70980393886566162,&#34;a&#34;:1.0},&#34;position&#34;:1.0}],&#34;stopsVar&#34;:[{&#34;color&#34;:{&#34;r&#34;:0.94509804248809814,&#34;g&#34;:0.85490196943283081,&#34;b&#34;:0.89411765336990356,&#34;a&#34;:1.0},&#34;position&#34;:0.0},{&#34;color&#34;:{&#34;r&#34;:0.40784314274787903,&#34;g&#34;:0.62352943420410156,&#34;b&#34;:0.90588235855102539,&#34;a&#34;:1.0},&#34;position&#34;:0.37999999523162842},{&#34;color&#34;:{&#34;r&#34;:0.14509804546833038,&#34;g&#34;:0.29411765933036804,&#34;b&#34;:0.77647060155868530,&#34;a&#34;:1.0},&#34;position&#34;:0.70999997854232788},{&#34;color&#34;:{&#34;r&#34;:0.15294118225574493,&#34;g&#34;:0.18039216101169586,&#34;b&#34;:0.70980393886566162,&#34;a&#34;:1.0},&#34;position&#34;:1.0}],&#34;transform&#34;:{&#34;m00&#34;:-51.961524963378906,&#34;m01&#34;:-86.154853820800781,&#34;m02&#34;:173.82525634765625,&#34;m10&#34;:30.0,&#34;m11&#34;:-49.741527557373047,&#34;m12&#34;:65.714431762695312},&#34;opacity&#34;:1.0,&#34;blendMode&#34;:&#34;NORMAL&#34;,&#34;visible&#34;:true}"/>
<g opacity="0.75">
<path d="M124.668 43.7622C124.668 43.7622 125.997 44.5214 127.328 45.2813C128.603 46.071 129.878 46.8611 129.878 46.8611L129.941 46.8282C129.941 46.8282 128.65 46.0461 127.358 45.264C126.012 44.5131 124.668 43.7622 124.668 43.7622Z" fill="#E6F5FA"/>
<path d="M142.589 57.7584C142.412 57.5245 142.231 57.2729 142.036 57.0251C141.834 56.7794 141.631 56.5327 141.44 56.302C141.257 56.0684 141.059 55.8623 140.899 55.6821C140.576 55.3227 140.359 55.0826 140.359 55.0826L139.905 55.2136C139.905 55.2136 140.108 55.4572 140.411 55.8227C140.56 56.006 140.749 56.2174 140.912 56.4485C141.084 56.6793 141.264 56.9253 141.447 57.1714C141.618 57.4209 141.774 57.6735 141.928 57.9084C142.088 58.1423 142.215 58.3641 142.319 58.556C142.533 58.9372 142.675 59.1919 142.675 59.1919L143.464 59.0436C143.464 59.0436 143.295 58.7882 143.044 58.4053C142.922 58.2137 142.772 57.9916 142.589 57.7584Z" fill="#E6F5FA"/>
<path d="M141.506 70.0864C141.582 70.0393 141.655 69.9928 141.727 69.9485C141.795 69.9024 141.861 69.8574 141.923 69.814C142.187 69.6373 142.361 69.5004 142.477 69.4069C142.598 69.3123 142.668 69.2565 142.668 69.2565L141.237 68.6109C141.237 68.6109 141.163 68.6636 141.031 68.754C140.9 68.8486 140.713 68.9772 140.502 69.0992C140.447 69.1314 140.392 69.1661 140.336 69.2007C140.274 69.2343 140.211 69.2693 140.146 69.305C140.002 69.3798 139.839 69.4796 139.692 69.5451C139.404 69.6886 139.063 69.8393 138.709 69.9849C138.353 70.1259 137.985 70.2572 137.631 70.3709C137.272 70.4804 136.938 70.5833 136.637 70.6564C136.343 70.7364 136.087 70.7915 135.91 70.8307C135.734 70.8709 135.632 70.8931 135.632 70.8931L136.472 72.1079C136.472 72.1079 136.586 72.0775 136.785 72.0241C136.985 71.9725 137.27 71.8979 137.602 71.7936C137.939 71.697 138.317 71.5649 138.718 71.4229C139.116 71.2763 139.528 71.1086 139.926 70.9298C140.317 70.7482 140.7 70.5566 141.054 70.3553C141.242 70.2569 141.36 70.1727 141.506 70.0864Z" fill="#E6F5FA"/>
<path d="M118.004 70.3823C117.667 70.3192 117.278 70.2485 116.895 70.1654C116.505 70.0832 116.087 69.9959 115.669 69.9089C115.248 69.8112 114.828 69.7138 114.435 69.6231C114.038 69.5347 113.68 69.4377 113.368 69.3597C112.747 69.2007 112.333 69.0946 112.333 69.0946L110.915 70.9395C110.915 70.9395 111.364 71.0431 112.034 71.2004C112.371 71.2777 112.76 71.374 113.188 71.4596C113.613 71.5483 114.067 71.6436 114.521 71.7392C114.989 71.8265 115.456 71.9139 115.894 71.9963C116.338 72.0816 116.735 72.1478 117.071 72.198C117.748 72.303 118.199 72.3741 118.199 72.3741L119.117 70.5905C119.117 70.5905 118.672 70.507 118.004 70.3823Z" fill="#E6F5FA"/>
<path d="M97.0491 63.318C96.7898 63.1849 96.4633 63.029 96.1548 62.8647C95.8469 62.7008 95.5162 62.5252 95.1849 62.3498C95.0343 62.2684 94.8249 62.1613 94.7246 62.1007C94.5596 62.0082 94.3975 61.9167 94.2402 61.828C93.9251 61.6516 93.6317 61.4877 93.3796 61.3463C92.8767 61.0643 92.5406 60.8764 92.5406 60.8764L89.8266 62.4732C89.8266 62.4732 90.1579 62.6638 90.656 62.9486C90.9057 63.0914 91.1956 63.2573 91.5071 63.4358C91.6631 63.5252 91.8251 63.6167 91.989 63.7106C92.2135 63.8381 92.3605 63.9071 92.552 64.0086C92.9139 64.1967 93.2764 64.3852 93.6155 64.5609C93.9552 64.7383 94.2643 64.8814 94.5332 65.0152C95.0679 65.2761 95.4268 65.4515 95.4268 65.4515L97.9332 63.7605C97.9338 63.7594 97.5803 63.5824 97.0491 63.318Z" fill="#E6F5FA"/>
<path d="M81.1018 51.8417C80.9145 51.6261 80.714 51.3967 80.5154 51.167C80.1415 50.6933 79.7454 50.2207 79.4999 49.8572C79.2406 49.4954 79.0684 49.2546 79.0684 49.2546L75.9757 49.9182C75.9757 49.9182 76.1443 50.1791 76.4 50.5721C76.6424 50.9678 77.0332 51.4775 77.4071 51.9948C77.6105 52.2516 77.8176 52.5084 78.0091 52.7499C78.2005 52.9977 78.3859 53.201 78.5432 53.3833C78.8583 53.7454 79.0696 53.9866 79.0696 53.9866L82.2121 53.0365C82.2121 53.0365 81.9882 52.7991 81.6521 52.4436C81.4859 52.2651 81.2782 52.0544 81.1018 51.8417Z" fill="#E6F5FA"/>
<path d="M77.1884 39.1276C77.279 38.9554 77.3888 38.7527 77.5437 38.533C77.6115 38.4217 77.6919 38.3102 77.7844 38.2C77.8756 38.0891 77.953 37.9702 78.0586 37.8621C78.1601 37.7523 78.2597 37.6421 78.3599 37.5329C78.471 37.4286 78.5814 37.3261 78.6858 37.2263C78.7867 37.1244 78.9097 37.0367 79.0141 36.948C79.1251 36.8624 79.2164 36.7751 79.3244 36.7058C79.427 36.6327 79.5206 36.5669 79.6047 36.5087C79.6461 36.4792 79.6851 36.4511 79.7217 36.4258C79.7307 36.4151 79.7919 36.3797 79.8196 36.361C79.9576 36.2737 80.0362 36.2235 80.0362 36.2235L78.6774 35.4604C78.6774 35.4604 78.5934 35.5076 78.4463 35.5897C78.4049 35.6143 78.3809 35.6233 78.3119 35.6673C78.2663 35.695 78.2177 35.7259 78.1655 35.7581C78.061 35.8239 77.944 35.897 77.8143 35.9767C77.6811 36.0544 77.5629 36.1511 77.4219 36.247C77.288 36.3451 77.1367 36.4449 77.0059 36.5585C76.8703 36.6701 76.7299 36.7858 76.587 36.903C76.4574 37.0256 76.3265 37.1497 76.1951 37.2734C76.0588 37.3971 75.9538 37.5284 75.8338 37.6546C75.7143 37.7797 75.6069 37.9061 75.5133 38.0309C75.3134 38.2738 75.1483 38.5174 75.0133 38.7291C74.8633 38.946 74.8033 39.0895 74.7301 39.2073C74.6664 39.3196 74.6304 39.384 74.6304 39.384L76.8877 39.7634C76.8877 39.7634 76.9159 39.6986 76.9681 39.5839C77.0227 39.4769 77.0893 39.2887 77.1884 39.1276Z" fill="#E6F5FA"/>
<path d="M103.008 35.5117L103.22 35.2224C103.22 35.2224 102.786 35.1174 102.135 34.9604C101.488 34.7968 100.605 34.6097 99.7224 34.415C99.277 34.3235 98.8233 34.2417 98.4008 34.16C97.9771 34.0747 97.5821 34.0096 97.2436 33.9576C96.5684 33.8484 96.1183 33.7764 96.1183 33.7764L95.9017 34.275C95.9017 34.275 96.3566 34.3346 97.042 34.4233C97.3877 34.4656 97.7838 34.5196 98.1967 34.5896C98.6114 34.6565 99.0592 34.723 99.5021 34.8C99.9439 34.8817 100.387 34.9642 100.8 35.0422C101.219 35.1146 101.594 35.2047 101.921 35.2736C102.574 35.4174 103.008 35.5117 103.008 35.5117Z" fill="#E6F5FA"/>
<path d="M123.97 43.3847C123.97 43.3847 122.573 42.665 121.175 41.9459C119.728 41.2616 118.28 40.5765 118.28 40.5765L118.221 40.6195C118.221 40.6195 119.681 41.2942 121.142 41.9706C122.551 42.6802 123.963 43.3892 123.963 43.3892L123.97 43.385L123.97 43.3847Z" fill="#E6F5FA"/>
</g>
<path d="M193.532 55.9652H210.172C210.172 74.6532 194.94 89.8852 176.252 89.8852C157.564 89.8852 142.332 74.6532 142.332 55.9652H158.972C158.972 65.5652 166.652 73.2452 176.252 73.2452C185.852 73.2452 193.532 65.5652 193.532 55.9652ZM142.332 55.9652V22.0452H158.972V55.9652H142.332ZM193.532 55.9652V22.0452H210.172V55.9652H193.532Z" fill="#254BC6"/>
<g clip-path="url(#paint1_diamond_476_6764_clip_path)" data-figma-skip-parse="true"><g transform="matrix(0 0.0115 -0.1595 0 159.707 132.214)"><rect x="0" y="0" width="1086.96" height="1006.27" fill="url(#paint1_diamond_476_6764)" opacity="1" shape-rendering="crispEdges"/><rect x="0" y="0" width="1086.96" height="1006.27" transform="scale(1 -1)" fill="url(#paint1_diamond_476_6764)" opacity="1" shape-rendering="crispEdges"/><rect x="0" y="0" width="1086.96" height="1006.27" transform="scale(-1 1)" fill="url(#paint1_diamond_476_6764)" opacity="1" shape-rendering="crispEdges"/><rect x="0" y="0" width="1086.96" height="1006.27" transform="scale(-1)" fill="url(#paint1_diamond_476_6764)" opacity="1" shape-rendering="crispEdges"/></g></g><path d="M0.606543 123.714H3.20654V137.714H0.606543V123.714ZM9.40654 137.714V123.714H12.0065V137.714H9.40654ZM9.00654 137.714L0.606543 123.714H3.60654L12.0065 137.714H9.00654ZM31.4136 137.714V132.414C31.4136 130.914 30.2136 129.714 28.7136 129.714C27.2136 129.714 26.0136 130.914 26.0136 132.414C26.0136 133.914 27.2136 135.114 28.7136 135.114H30.2136V137.714H28.7136C25.7936 137.714 23.4136 135.334 23.4136 132.414C23.4136 129.494 25.7936 127.114 28.7136 127.114C31.6336 127.114 34.0136 129.494 34.0136 132.414V137.714H31.4136ZM48.4237 137.714L44.4237 127.114H47.0237L51.0237 137.714H48.4237ZM48.4237 137.714L52.4237 127.114H55.0237L51.0237 137.714H48.4237ZM66.43 124.994C66.43 124.274 67.01 123.694 67.73 123.694C68.45 123.694 69.03 124.274 69.03 124.994C69.03 125.714 68.45 126.294 67.73 126.294C67.01 126.294 66.43 125.714 66.43 124.994ZM69.03 137.714H66.43V127.114H69.03V137.714ZM84.9276 132.394C87.8476 132.394 90.2276 134.774 90.2276 137.694C90.2276 140.614 87.8476 142.994 84.9276 142.994C82.0076 142.994 79.6276 140.614 79.6276 137.694H82.2276C82.2276 139.194 83.4276 140.394 84.9276 140.394C86.4276 140.394 87.6276 139.194 87.6276 137.694C87.6276 136.194 86.4276 134.994 84.9276 134.994V132.394ZM80.9876 131.054C80.9876 128.874 82.7476 127.114 84.9276 127.114C87.1076 127.114 88.8676 128.874 88.8676 131.054C88.8676 133.234 87.1076 134.994 84.9276 134.994C82.7476 134.994 80.9876 133.234 80.9876 131.054ZM83.5876 131.054C83.5876 131.794 84.1876 132.394 84.9276 132.394C85.6676 132.394 86.2676 131.794 86.2676 131.054C86.2676 130.314 85.6676 129.714 84.9276 129.714C84.1876 129.714 83.5876 130.314 83.5876 131.054ZM86.2676 126.234C86.2676 125.514 86.8476 124.934 87.5676 124.934C88.2876 124.934 88.8676 125.514 88.8676 126.234C88.8676 126.954 88.2876 127.534 87.5676 127.534C86.8476 127.534 86.2676 126.954 86.2676 126.234ZM108.833 137.714V132.414C108.833 130.914 107.633 129.714 106.133 129.714C104.633 129.714 103.433 130.914 103.433 132.414C103.433 133.914 104.633 135.114 106.133 135.114H107.633V137.714H106.133C103.213 137.714 100.833 135.334 100.833 132.414C100.833 129.494 103.213 127.114 106.133 127.114C109.053 127.114 111.433 129.494 111.433 132.414V137.714H108.833ZM124.419 133.014V129.714H122.839V127.114H124.419V123.714H127.019V127.114H128.719V129.714H127.019V133.014C127.019 134.514 127.459 135.114 128.699 135.114V137.714C125.879 137.714 124.419 136.394 124.419 133.014ZM148.099 132.414H150.699C150.699 135.354 148.339 137.694 145.399 137.694C142.459 137.694 140.119 135.354 140.119 132.414C140.119 129.474 142.459 127.114 145.399 127.114C147.359 127.114 149.039 128.154 149.959 129.694L144.659 134.994C144.899 135.054 145.139 135.094 145.399 135.094C146.899 135.094 148.099 133.914 148.099 132.414ZM142.819 133.154L146.159 129.814C145.919 129.754 145.659 129.714 145.399 129.714C143.899 129.714 142.719 130.914 142.719 132.414C142.719 132.674 142.759 132.914 142.819 133.154ZM188.97 129.414C194.65 129.414 194.69 137.714 188.97 137.714H181.71V135.114H188.97C191.11 135.114 191.07 132.014 188.97 132.014H186.61V129.414H188.97ZM184.41 127.894C184.41 128.594 184.95 129.414 185.99 129.414H188.35V132.014H185.99C183.13 132.014 181.71 129.954 181.71 127.894H184.41ZM192.25 123.714V126.314H181.71V123.714H192.25ZM212.653 132.414H215.253C215.253 135.334 212.873 137.714 209.953 137.714C207.033 137.714 204.653 135.334 204.653 132.414H207.253C207.253 133.914 208.453 135.114 209.953 135.114C211.453 135.114 212.653 133.914 212.653 132.414ZM204.653 132.414V127.114H207.253V132.414H204.653ZM212.653 132.414V127.114H215.253V132.414H212.653ZM233.86 134.314L235.7 136.154C233.62 138.234 230.3 138.214 228.22 136.134C227.18 135.094 226.66 133.754 226.66 132.414C226.66 131.074 227.18 129.714 228.22 128.674C230.3 126.594 233.62 126.574 235.7 128.654L233.86 130.494C232.8 129.434 231.12 129.454 230.06 130.514C229.52 131.034 229.26 131.714 229.26 132.394C229.26 133.074 229.52 133.754 230.06 134.294C231.12 135.354 232.8 135.374 233.86 134.314ZM253.503 134.314L255.343 136.154C253.263 138.234 249.943 138.214 247.863 136.134C246.823 135.094 246.303 133.754 246.303 132.414C246.303 131.074 246.823 129.714 247.863 128.674C249.943 126.594 253.263 126.574 255.343 128.654L253.503 130.494C252.443 129.434 250.763 129.454 249.703 130.514C249.163 131.034 248.903 131.714 248.903 132.394C248.903 133.074 249.163 133.754 249.703 134.294C250.763 135.354 252.443 135.374 253.503 134.314ZM273.926 132.414H276.526C276.526 135.354 274.166 137.694 271.226 137.694C268.286 137.694 265.946 135.354 265.946 132.414C265.946 129.474 268.286 127.114 271.226 127.114C273.186 127.114 274.866 128.154 275.786 129.694L270.486 134.994C270.726 135.054 270.966 135.094 271.226 135.094C272.726 135.094 273.926 133.914 273.926 132.414ZM268.646 133.154L271.986 129.814C271.746 129.754 271.486 129.714 271.226 129.714C269.726 129.714 268.546 130.914 268.546 132.414C268.546 132.674 268.586 132.914 268.646 133.154ZM293.872 133.694H291.332C286.832 133.694 286.812 127.114 291.332 127.114H296.652V129.714H291.332C290.372 129.714 290.412 131.094 291.332 131.094H293.872C298.392 131.094 298.372 137.674 293.872 137.674H288.352V135.074H293.872C294.792 135.074 294.832 133.694 293.872 133.694ZM314.609 133.694H312.069C307.569 133.694 307.549 127.114 312.069 127.114H317.389V129.714H312.069C311.109 129.714 311.149 131.094 312.069 131.094H314.609C319.129 131.094 319.109 137.674 314.609 137.674H309.089V135.074H314.609C315.529 135.074 315.569 133.694 314.609 133.694Z" data-figma-gradient-fill="{&#34;type&#34;:&#34;GRADIENT_DIAMOND&#34;,&#34;stops&#34;:[{&#34;color&#34;:{&#34;r&#34;:0.94509804248809814,&#34;g&#34;:0.85490196943283081,&#34;b&#34;:0.89411765336990356,&#34;a&#34;:1.0},&#34;position&#34;:0.0},{&#34;color&#34;:{&#34;r&#34;:0.40784314274787903,&#34;g&#34;:0.62352943420410156,&#34;b&#34;:0.90588235855102539,&#34;a&#34;:1.0},&#34;position&#34;:0.37999999523162842},{&#34;color&#34;:{&#34;r&#34;:0.14509804546833038,&#34;g&#34;:0.29411765933036804,&#34;b&#34;:0.77647060155868530,&#34;a&#34;:1.0},&#34;position&#34;:0.70999997854232788},{&#34;color&#34;:{&#34;r&#34;:0.15294118225574493,&#34;g&#34;:0.18039216101169586,&#34;b&#34;:0.70980393886566162,&#34;a&#34;:1.0},&#34;position&#34;:1.0}],&#34;stopsVar&#34;:[{&#34;color&#34;:{&#34;r&#34;:0.94509804248809814,&#34;g&#34;:0.85490196943283081,&#34;b&#34;:0.89411765336990356,&#34;a&#34;:1.0},&#34;position&#34;:0.0},{&#34;color&#34;:{&#34;r&#34;:0.40784314274787903,&#34;g&#34;:0.62352943420410156,&#34;b&#34;:0.90588235855102539,&#34;a&#34;:1.0},&#34;position&#34;:0.37999999523162842},{&#34;color&#34;:{&#34;r&#34;:0.14509804546833038,&#34;g&#34;:0.29411765933036804,&#34;b&#34;:0.77647060155868530,&#34;a&#34;:1.0},&#34;position&#34;:0.70999997854232788},{&#34;color&#34;:{&#34;r&#34;:0.15294118225574493,&#34;g&#34;:0.18039216101169586,&#34;b&#34;:0.70980393886566162,&#34;a&#34;:1.0},&#34;position&#34;:1.0}],&#34;transform&#34;:{&#34;m00&#34;:1.9533116782572725e-14,&#34;m01&#34;:-319.0,&#34;m02&#34;:319.206542968750,&#34;m10&#34;:23.0,&#34;m11&#34;:1.4856802252536370e-15,&#34;m12&#34;:120.714355468750},&#34;opacity&#34;:1.0,&#34;blendMode&#34;:&#34;NORMAL&#34;,&#34;visible&#34;:true}"/>
<g clip-path="url(#paint2_diamond_476_6764_clip_path)" data-figma-skip-parse="true"><g transform="matrix(0 0.00459997 -0.0046 0 165.207 131.713)"><rect x="0" y="0" width="1217.39" height="1217.39" fill="url(#paint2_diamond_476_6764)" opacity="1" shape-rendering="crispEdges"/><rect x="0" y="0" width="1217.39" height="1217.39" transform="scale(1 -1)" fill="url(#paint2_diamond_476_6764)" opacity="1" shape-rendering="crispEdges"/><rect x="0" y="0" width="1217.39" height="1217.39" transform="scale(-1 1)" fill="url(#paint2_diamond_476_6764)" opacity="1" shape-rendering="crispEdges"/><rect x="0" y="0" width="1217.39" height="1217.39" transform="scale(-1)" fill="url(#paint2_diamond_476_6764)" opacity="1" shape-rendering="crispEdges"/></g></g><path d="M165.207 127.114C162.666 127.114 160.607 129.173 160.607 131.713C160.607 134.254 162.666 136.313 165.207 136.313C167.747 136.313 169.807 134.254 169.807 131.713C169.807 129.173 167.747 127.114 165.207 127.114ZM165.207 135.411C163.165 135.411 161.509 133.756 161.509 131.713C161.509 129.671 163.165 128.016 165.207 128.016C167.249 128.016 168.905 129.671 168.905 131.713C168.905 133.756 167.249 135.411 165.207 135.411Z" data-figma-gradient-fill="{&#34;type&#34;:&#34;GRADIENT_DIAMOND&#34;,&#34;stops&#34;:[{&#34;color&#34;:{&#34;r&#34;:0.94509804248809814,&#34;g&#34;:0.85490196943283081,&#34;b&#34;:0.89411765336990356,&#34;a&#34;:1.0},&#34;position&#34;:0.0},{&#34;color&#34;:{&#34;r&#34;:0.40784314274787903,&#34;g&#34;:0.62352943420410156,&#34;b&#34;:0.90588235855102539,&#34;a&#34;:1.0},&#34;position&#34;:0.37999999523162842},{&#34;color&#34;:{&#34;r&#34;:0.14509804546833038,&#34;g&#34;:0.29411765933036804,&#34;b&#34;:0.77647060155868530,&#34;a&#34;:1.0},&#34;position&#34;:0.70999997854232788},{&#34;color&#34;:{&#34;r&#34;:0.15294118225574493,&#34;g&#34;:0.18039216101169586,&#34;b&#34;:0.70980393886566162,&#34;a&#34;:1.0},&#34;position&#34;:1.0}],&#34;stopsVar&#34;:[{&#34;color&#34;:{&#34;r&#34;:0.94509804248809814,&#34;g&#34;:0.85490196943283081,&#34;b&#34;:0.89411765336990356,&#34;a&#34;:1.0},&#34;position&#34;:0.0},{&#34;color&#34;:{&#34;r&#34;:0.40784314274787903,&#34;g&#34;:0.62352943420410156,&#34;b&#34;:0.90588235855102539,&#34;a&#34;:1.0},&#34;position&#34;:0.37999999523162842},{&#34;color&#34;:{&#34;r&#34;:0.14509804546833038,&#34;g&#34;:0.29411765933036804,&#34;b&#34;:0.77647060155868530,&#34;a&#34;:1.0},&#34;position&#34;:0.70999997854232788},{&#34;color&#34;:{&#34;r&#34;:0.15294118225574493,&#34;g&#34;:0.18039216101169586,&#34;b&#34;:0.70980393886566162,&#34;a&#34;:1.0},&#34;position&#34;:1.0}],&#34;transform&#34;:{&#34;m00&#34;:5.6333726102160159e-16,&#34;m01&#34;:-9.1999950408935547,&#34;m02&#34;:169.80693054199219,&#34;m10&#34;:9.1999397277832031,&#34;m11&#34;:5.9426820433780927e-16,&#34;m12&#34;:127.1135253906250},&#34;opacity&#34;:1.0,&#34;blendMode&#34;:&#34;NORMAL&#34;,&#34;visible&#34;:true}"/>
<g clip-path="url(#paint3_diamond_476_6764_clip_path)" data-figma-skip-parse="true"><g transform="matrix(0 0.005 -0.00500009 0 165.207 131.715)"><rect x="0" y="0" width="1200" height="1200" fill="url(#paint3_diamond_476_6764)" opacity="1" shape-rendering="crispEdges"/><rect x="0" y="0" width="1200" height="1200" transform="scale(1 -1)" fill="url(#paint3_diamond_476_6764)" opacity="1" shape-rendering="crispEdges"/><rect x="0" y="0" width="1200" height="1200" transform="scale(-1 1)" fill="url(#paint3_diamond_476_6764)" opacity="1" shape-rendering="crispEdges"/><rect x="0" y="0" width="1200" height="1200" transform="scale(-1)" fill="url(#paint3_diamond_476_6764)" opacity="1" shape-rendering="crispEdges"/></g></g><path d="M165.207 126.715C162.445 126.715 160.207 128.954 160.207 131.715C160.207 134.477 162.445 136.715 165.207 136.715C167.968 136.715 170.207 134.476 170.207 131.715C170.207 128.954 167.968 126.715 165.207 126.715ZM165.207 136.578C162.521 136.578 160.344 134.401 160.344 131.715C160.344 129.029 162.521 126.852 165.207 126.852C167.892 126.852 170.07 129.029 170.07 131.715C170.07 134.401 167.892 136.578 165.207 136.578Z" data-figma-gradient-fill="{&#34;type&#34;:&#34;GRADIENT_DIAMOND&#34;,&#34;stops&#34;:[{&#34;color&#34;:{&#34;r&#34;:0.94509804248809814,&#34;g&#34;:0.85490196943283081,&#34;b&#34;:0.89411765336990356,&#34;a&#34;:1.0},&#34;position&#34;:0.0},{&#34;color&#34;:{&#34;r&#34;:0.40784314274787903,&#34;g&#34;:0.62352943420410156,&#34;b&#34;:0.90588235855102539,&#34;a&#34;:1.0},&#34;position&#34;:0.37999999523162842},{&#34;color&#34;:{&#34;r&#34;:0.14509804546833038,&#34;g&#34;:0.29411765933036804,&#34;b&#34;:0.77647060155868530,&#34;a&#34;:1.0},&#34;position&#34;:0.70999997854232788},{&#34;color&#34;:{&#34;r&#34;:0.15294118225574493,&#34;g&#34;:0.18039216101169586,&#34;b&#34;:0.70980393886566162,&#34;a&#34;:1.0},&#34;position&#34;:1.0}],&#34;stopsVar&#34;:[{&#34;color&#34;:{&#34;r&#34;:0.94509804248809814,&#34;g&#34;:0.85490196943283081,&#34;b&#34;:0.89411765336990356,&#34;a&#34;:1.0},&#34;position&#34;:0.0},{&#34;color&#34;:{&#34;r&#34;:0.40784314274787903,&#34;g&#34;:0.62352943420410156,&#34;b&#34;:0.90588235855102539,&#34;a&#34;:1.0},&#34;position&#34;:0.37999999523162842},{&#34;color&#34;:{&#34;r&#34;:0.14509804546833038,&#34;g&#34;:0.29411765933036804,&#34;b&#34;:0.77647060155868530,&#34;a&#34;:1.0},&#34;position&#34;:0.70999997854232788},{&#34;color&#34;:{&#34;r&#34;:0.15294118225574493,&#34;g&#34;:0.18039216101169586,&#34;b&#34;:0.70980393886566162,&#34;a&#34;:1.0},&#34;position&#34;:1.0}],&#34;transform&#34;:{&#34;m00&#34;:6.1233472888847385e-16,&#34;m01&#34;:-10.000185012817383,&#34;m02&#34;:170.20672607421875,&#34;m10&#34;:10.0,&#34;m11&#34;:6.4594790791128068e-16,&#34;m12&#34;:126.7150878906250},&#34;opacity&#34;:1.0,&#34;blendMode&#34;:&#34;NORMAL&#34;,&#34;visible&#34;:true}"/>
<path d="M165.141 135.341L165.228 135.107C165.228 135.107 165.271 135.122 165.336 135.144C165.401 135.166 165.486 135.198 165.573 135.225C165.616 135.238 165.66 135.252 165.7 135.265C165.738 135.278 165.9 135.332 165.931 135.341C166.284 135.275 166.547 135.173 166.737 135.082C166.172 134.189 165.413 134.211 164.115 133.355C163.27 132.798 164.234 132.16 165.337 132.005C166.562 131.832 168.388 131.644 168.856 130.515C169.496 128.973 167.412 128.097 166.754 128.001C166.173 127.917 165.8 127.813 165.076 128.019L165.273 128.088L165.186 128.321C165.186 128.321 165.143 128.307 165.078 128.284C165.013 128.263 164.928 128.231 164.841 128.204C164.797 128.19 164.754 128.176 164.713 128.163C164.676 128.151 164.499 128.1 164.468 128.09C164.162 128.147 163.803 128.277 163.677 128.347C164.241 129.239 165.001 129.218 166.299 130.074C167.144 130.631 166.09 131.28 165.101 131.417C163.876 131.586 162.026 131.785 161.558 132.913C160.918 134.456 163.001 135.332 163.66 135.428C164.241 135.512 164.609 135.616 165.334 135.41L165.141 135.341ZM166.214 128.742C166.214 128.742 166.173 128.723 166.111 128.695C166.049 128.666 165.966 128.63 165.882 128.593C165.798 128.558 165.716 128.523 165.651 128.498C165.587 128.472 165.545 128.455 165.545 128.455L165.636 128.236C165.636 128.236 165.678 128.254 165.742 128.281C165.804 128.308 165.89 128.348 165.975 128.386C166.059 128.426 166.143 128.464 166.205 128.496C166.268 128.527 166.309 128.548 166.309 128.548L166.214 128.742ZM164.2 134.687C164.2 134.687 164.241 134.706 164.303 134.734C164.365 134.763 164.448 134.799 164.531 134.835C164.615 134.871 164.698 134.906 164.762 134.931C164.826 134.957 164.869 134.974 164.869 134.974L164.778 135.193C164.778 135.193 164.735 135.175 164.672 135.148C164.609 135.121 164.524 135.081 164.439 135.043C164.355 135.003 164.271 134.965 164.209 134.933C164.146 134.902 164.105 134.881 164.105 134.881L164.2 134.687ZM162.832 134.02C162.832 134.02 162.824 134.012 162.81 133.997C162.797 133.984 162.775 133.96 162.751 133.934C162.703 133.88 162.642 133.806 162.589 133.724C162.535 133.644 162.49 133.555 162.464 133.485C162.451 133.451 162.442 133.421 162.436 133.4C162.43 133.379 162.427 133.367 162.427 133.367L162.572 133.329C162.572 133.329 162.575 133.339 162.58 133.357C162.586 133.374 162.594 133.399 162.607 133.429C162.631 133.487 162.672 133.563 162.722 133.634C162.771 133.706 162.83 133.772 162.875 133.82C162.898 133.844 162.916 133.862 162.931 133.877C162.946 133.89 162.954 133.899 162.954 133.899L162.832 134.02ZM162.962 132.472C162.947 132.483 162.924 132.5 162.898 132.52C162.846 132.562 162.78 132.621 162.724 132.687C162.696 132.721 162.671 132.755 162.65 132.789C162.628 132.823 162.611 132.856 162.599 132.885C162.593 132.899 162.587 132.912 162.583 132.924C162.58 132.935 162.576 132.944 162.573 132.955C162.568 132.974 162.564 132.985 162.564 132.985L162.432 132.944C162.432 132.944 162.436 132.933 162.442 132.914C162.445 132.905 162.45 132.891 162.456 132.877C162.461 132.861 162.469 132.846 162.477 132.829C162.493 132.795 162.514 132.756 162.54 132.718C162.566 132.679 162.597 132.641 162.629 132.604C162.694 132.531 162.769 132.47 162.826 132.427C162.855 132.406 162.879 132.389 162.897 132.377C162.914 132.366 162.924 132.359 162.924 132.359L162.987 132.454C162.987 132.454 162.978 132.46 162.962 132.472ZM163.859 134.516L163.758 134.695C163.758 134.695 163.718 134.671 163.658 134.636C163.629 134.618 163.594 134.599 163.557 134.575C163.519 134.551 163.479 134.526 163.44 134.501C163.401 134.474 163.362 134.448 163.325 134.423C163.289 134.399 163.256 134.375 163.227 134.354C163.171 134.311 163.133 134.283 163.133 134.283L163.243 134.137C163.243 134.137 163.28 134.163 163.336 134.201C163.363 134.221 163.395 134.243 163.431 134.265C163.467 134.288 163.505 134.312 163.543 134.336C163.582 134.359 163.62 134.382 163.657 134.403C163.692 134.425 163.728 134.444 163.758 134.461C163.819 134.494 163.859 134.516 163.859 134.516ZM163.887 132.038C163.854 132.049 163.816 132.061 163.775 132.076C163.735 132.09 163.692 132.106 163.649 132.121C163.607 132.138 163.565 132.155 163.525 132.171C163.486 132.186 163.449 132.202 163.418 132.217C163.355 132.246 163.313 132.265 163.313 132.265L163.272 132.172C163.272 132.172 163.315 132.154 163.379 132.128C163.41 132.114 163.448 132.099 163.49 132.084C163.531 132.069 163.575 132.053 163.619 132.037C163.663 132.023 163.707 132.009 163.749 131.995C163.79 131.981 163.83 131.971 163.863 131.961C163.93 131.942 163.974 131.929 163.974 131.929L163.996 132.003C163.996 132.003 163.952 132.017 163.887 132.038ZM164.973 131.77C164.905 131.782 164.815 131.801 164.725 131.819C164.636 131.839 164.546 131.857 164.479 131.874C164.412 131.89 164.367 131.901 164.367 131.901L164.353 131.838C164.353 131.838 164.398 131.829 164.466 131.815C164.533 131.801 164.625 131.785 164.715 131.768C164.807 131.753 164.897 131.737 164.966 131.727C165.034 131.717 165.08 131.71 165.08 131.71L165.086 131.75C165.086 131.75 165.041 131.758 164.973 131.77ZM165.948 131.614C165.88 131.628 165.789 131.644 165.698 131.661C165.607 131.676 165.517 131.692 165.448 131.702C165.38 131.712 165.334 131.719 165.334 131.719L165.328 131.679C165.328 131.679 165.373 131.671 165.441 131.659C165.509 131.647 165.599 131.628 165.689 131.61C165.778 131.59 165.867 131.572 165.935 131.555C166.002 131.539 166.047 131.528 166.047 131.528L166.06 131.591C166.06 131.591 166.015 131.6 165.948 131.614ZM167.035 131.301C167.003 131.315 166.966 131.33 166.924 131.345C166.883 131.36 166.839 131.376 166.795 131.392C166.75 131.406 166.706 131.42 166.665 131.434C166.623 131.447 166.584 131.458 166.551 131.468C166.484 131.487 166.439 131.5 166.439 131.5L166.418 131.426C166.418 131.426 166.462 131.412 166.527 131.39C166.56 131.38 166.598 131.368 166.638 131.353C166.679 131.339 166.721 131.323 166.765 131.308C166.807 131.291 166.849 131.274 166.888 131.258C166.928 131.243 166.964 131.227 166.996 131.212C167.059 131.183 167.101 131.164 167.101 131.164L167.141 131.257C167.141 131.257 167.099 131.274 167.035 131.301ZM167.17 129.292C167.17 129.292 167.134 129.266 167.078 129.228C167.051 129.208 167.018 129.186 166.982 129.164C166.947 129.141 166.908 129.117 166.871 129.092C166.832 129.07 166.793 129.047 166.757 129.025C166.721 129.004 166.685 128.985 166.655 128.968C166.595 128.935 166.555 128.912 166.555 128.912L166.656 128.734C166.656 128.734 166.696 128.758 166.755 128.793C166.785 128.81 166.82 128.83 166.857 128.854C166.895 128.878 166.934 128.903 166.974 128.928C167.013 128.955 167.052 128.981 167.088 129.006C167.125 129.03 167.158 129.054 167.186 129.075C167.243 129.117 167.281 129.146 167.281 129.146L167.17 129.292ZM167.972 130.515C167.969 130.524 167.964 130.537 167.958 130.552C167.952 130.568 167.945 130.583 167.937 130.6C167.921 130.634 167.9 130.673 167.874 130.711C167.848 130.75 167.817 130.788 167.784 130.825C167.719 130.898 167.645 130.959 167.588 131.002C167.559 131.023 167.534 131.04 167.517 131.052C167.5 131.063 167.49 131.07 167.49 131.07L167.426 130.975C167.426 130.975 167.435 130.969 167.451 130.957C167.467 130.946 167.489 130.929 167.515 130.909C167.567 130.867 167.634 130.808 167.689 130.742C167.718 130.709 167.743 130.674 167.764 130.64C167.785 130.606 167.802 130.573 167.815 130.544C167.821 130.53 167.827 130.516 167.83 130.505C167.834 130.494 167.838 130.485 167.841 130.474C167.846 130.455 167.849 130.444 167.849 130.444L167.982 130.485C167.982 130.484 167.978 130.495 167.972 130.515ZM167.842 130.1C167.842 130.1 167.839 130.09 167.833 130.072C167.828 130.055 167.819 130.03 167.807 130C167.783 129.941 167.742 129.866 167.692 129.795C167.642 129.723 167.584 129.657 167.538 129.609C167.515 129.585 167.498 129.567 167.482 129.553C167.468 129.539 167.46 129.53 167.46 129.53L167.581 129.409C167.581 129.409 167.589 129.417 167.603 129.432C167.617 129.445 167.639 129.468 167.662 129.495C167.71 129.549 167.772 129.623 167.825 129.704C167.879 129.785 167.924 129.874 167.95 129.944C167.963 129.978 167.972 130.008 167.978 130.029C167.984 130.05 167.987 130.062 167.987 130.062L167.842 130.1Z" fill="#254BC6"/>
<defs>
<clipPath id="paint0_diamond_476_6764_clip_path"><path d="M130.748 40.8435C106.956 27.1074 77.4818 21.8553 63.1328 30.1397C48.7843 38.4238 54.995 57.1077 78.786 70.8435C102.578 84.5796 134.939 88.1653 149.288 79.8812C163.637 71.5965 154.539 54.5793 130.748 40.8435ZM102.603 57.0929C95.3335 52.8959 92.994 47.4418 97.3783 44.9105C101.763 42.3789 111.209 43.7293 118.479 47.9266C125.749 52.1239 128.088 57.5783 123.704 60.1096C119.319 62.6405 109.872 61.2898 102.603 57.0929Z"/></clipPath><clipPath id="paint1_diamond_476_6764_clip_path"><path d="M0.606543 123.714H3.20654V137.714H0.606543V123.714ZM9.40654 137.714V123.714H12.0065V137.714H9.40654ZM9.00654 137.714L0.606543 123.714H3.60654L12.0065 137.714H9.00654ZM31.4136 137.714V132.414C31.4136 130.914 30.2136 129.714 28.7136 129.714C27.2136 129.714 26.0136 130.914 26.0136 132.414C26.0136 133.914 27.2136 135.114 28.7136 135.114H30.2136V137.714H28.7136C25.7936 137.714 23.4136 135.334 23.4136 132.414C23.4136 129.494 25.7936 127.114 28.7136 127.114C31.6336 127.114 34.0136 129.494 34.0136 132.414V137.714H31.4136ZM48.4237 137.714L44.4237 127.114H47.0237L51.0237 137.714H48.4237ZM48.4237 137.714L52.4237 127.114H55.0237L51.0237 137.714H48.4237ZM66.43 124.994C66.43 124.274 67.01 123.694 67.73 123.694C68.45 123.694 69.03 124.274 69.03 124.994C69.03 125.714 68.45 126.294 67.73 126.294C67.01 126.294 66.43 125.714 66.43 124.994ZM69.03 137.714H66.43V127.114H69.03V137.714ZM84.9276 132.394C87.8476 132.394 90.2276 134.774 90.2276 137.694C90.2276 140.614 87.8476 142.994 84.9276 142.994C82.0076 142.994 79.6276 140.614 79.6276 137.694H82.2276C82.2276 139.194 83.4276 140.394 84.9276 140.394C86.4276 140.394 87.6276 139.194 87.6276 137.694C87.6276 136.194 86.4276 134.994 84.9276 134.994V132.394ZM80.9876 131.054C80.9876 128.874 82.7476 127.114 84.9276 127.114C87.1076 127.114 88.8676 128.874 88.8676 131.054C88.8676 133.234 87.1076 134.994 84.9276 134.994C82.7476 134.994 80.9876 133.234 80.9876 131.054ZM83.5876 131.054C83.5876 131.794 84.1876 132.394 84.9276 132.394C85.6676 132.394 86.2676 131.794 86.2676 131.054C86.2676 130.314 85.6676 129.714 84.9276 129.714C84.1876 129.714 83.5876 130.314 83.5876 131.054ZM86.2676 126.234C86.2676 125.514 86.8476 124.934 87.5676 124.934C88.2876 124.934 88.8676 125.514 88.8676 126.234C88.8676 126.954 88.2876 127.534 87.5676 127.534C86.8476 127.534 86.2676 126.954 86.2676 126.234ZM108.833 137.714V132.414C108.833 130.914 107.633 129.714 106.133 129.714C104.633 129.714 103.433 130.914 103.433 132.414C103.433 133.914 104.633 135.114 106.133 135.114H107.633V137.714H106.133C103.213 137.714 100.833 135.334 100.833 132.414C100.833 129.494 103.213 127.114 106.133 127.114C109.053 127.114 111.433 129.494 111.433 132.414V137.714H108.833ZM124.419 133.014V129.714H122.839V127.114H124.419V123.714H127.019V127.114H128.719V129.714H127.019V133.014C127.019 134.514 127.459 135.114 128.699 135.114V137.714C125.879 137.714 124.419 136.394 124.419 133.014ZM148.099 132.414H150.699C150.699 135.354 148.339 137.694 145.399 137.694C142.459 137.694 140.119 135.354 140.119 132.414C140.119 129.474 142.459 127.114 145.399 127.114C147.359 127.114 149.039 128.154 149.959 129.694L144.659 134.994C144.899 135.054 145.139 135.094 145.399 135.094C146.899 135.094 148.099 133.914 148.099 132.414ZM142.819 133.154L146.159 129.814C145.919 129.754 145.659 129.714 145.399 129.714C143.899 129.714 142.719 130.914 142.719 132.414C142.719 132.674 142.759 132.914 142.819 133.154ZM188.97 129.414C194.65 129.414 194.69 137.714 188.97 137.714H181.71V135.114H188.97C191.11 135.114 191.07 132.014 188.97 132.014H186.61V129.414H188.97ZM184.41 127.894C184.41 128.594 184.95 129.414 185.99 129.414H188.35V132.014H185.99C183.13 132.014 181.71 129.954 181.71 127.894H184.41ZM192.25 123.714V126.314H181.71V123.714H192.25ZM212.653 132.414H215.253C215.253 135.334 212.873 137.714 209.953 137.714C207.033 137.714 204.653 135.334 204.653 132.414H207.253C207.253 133.914 208.453 135.114 209.953 135.114C211.453 135.114 212.653 133.914 212.653 132.414ZM204.653 132.414V127.114H207.253V132.414H204.653ZM212.653 132.414V127.114H215.253V132.414H212.653ZM233.86 134.314L235.7 136.154C233.62 138.234 230.3 138.214 228.22 136.134C227.18 135.094 226.66 133.754 226.66 132.414C226.66 131.074 227.18 129.714 228.22 128.674C230.3 126.594 233.62 126.574 235.7 128.654L233.86 130.494C232.8 129.434 231.12 129.454 230.06 130.514C229.52 131.034 229.26 131.714 229.26 132.394C229.26 133.074 229.52 133.754 230.06 134.294C231.12 135.354 232.8 135.374 233.86 134.314ZM253.503 134.314L255.343 136.154C253.263 138.234 249.943 138.214 247.863 136.134C246.823 135.094 246.303 133.754 246.303 132.414C246.303 131.074 246.823 129.714 247.863 128.674C249.943 126.594 253.263 126.574 255.343 128.654L253.503 130.494C252.443 129.434 250.763 129.454 249.703 130.514C249.163 131.034 248.903 131.714 248.903 132.394C248.903 133.074 249.163 133.754 249.703 134.294C250.763 135.354 252.443 135.374 253.503 134.314ZM273.926 132.414H276.526C276.526 135.354 274.166 137.694 271.226 137.694C268.286 137.694 265.946 135.354 265.946 132.414C265.946 129.474 268.286 127.114 271.226 127.114C273.186 127.114 274.866 128.154 275.786 129.694L270.486 134.994C270.726 135.054 270.966 135.094 271.226 135.094C272.726 135.094 273.926 133.914 273.926 132.414ZM268.646 133.154L271.986 129.814C271.746 129.754 271.486 129.714 271.226 129.714C269.726 129.714 268.546 130.914 268.546 132.414C268.546 132.674 268.586 132.914 268.646 133.154ZM293.872 133.694H291.332C286.832 133.694 286.812 127.114 291.332 127.114H296.652V129.714H291.332C290.372 129.714 290.412 131.094 291.332 131.094H293.872C298.392 131.094 298.372 137.674 293.872 137.674H288.352V135.074H293.872C294.792 135.074 294.832 133.694 293.872 133.694ZM314.609 133.694H312.069C307.569 133.694 307.549 127.114 312.069 127.114H317.389V129.714H312.069C311.109 129.714 311.149 131.094 312.069 131.094H314.609C319.129 131.094 319.109 137.674 314.609 137.674H309.089V135.074H314.609C315.529 135.074 315.569 133.694 314.609 133.694Z"/></clipPath><clipPath id="paint2_diamond_476_6764_clip_path"><path d="M165.207 127.114C162.666 127.114 160.607 129.173 160.607 131.713C160.607 134.254 162.666 136.313 165.207 136.313C167.747 136.313 169.807 134.254 169.807 131.713C169.807 129.173 167.747 127.114 165.207 127.114ZM165.207 135.411C163.165 135.411 161.509 133.756 161.509 131.713C161.509 129.671 163.165 128.016 165.207 128.016C167.249 128.016 168.905 129.671 168.905 131.713C168.905 133.756 167.249 135.411 165.207 135.411Z"/></clipPath><clipPath id="paint3_diamond_476_6764_clip_path"><path d="M165.207 126.715C162.445 126.715 160.207 128.954 160.207 131.715C160.207 134.477 162.445 136.715 165.207 136.715C167.968 136.715 170.207 134.476 170.207 131.715C170.207 128.954 167.968 126.715 165.207 126.715ZM165.207 136.578C162.521 136.578 160.344 134.401 160.344 131.715C160.344 129.029 162.521 126.852 165.207 126.852C167.892 126.852 170.07 129.029 170.07 131.715C170.07 134.401 167.892 136.578 165.207 136.578Z"/></clipPath><linearGradient id="paint0_diamond_476_6764" x1="0" y1="0" x2="500" y2="500" gradientUnits="userSpaceOnUse">
<stop stop-color="#F1DAE4"/>
<stop offset="0.38" stop-color="#689FE7"/>
<stop offset="0.71" stop-color="#254BC6"/>
<stop offset="1" stop-color="#272EB5"/>
</linearGradient>
<linearGradient id="paint1_diamond_476_6764" x1="0" y1="0" x2="500" y2="500" gradientUnits="userSpaceOnUse">
<stop stop-color="#F1DAE4"/>
<stop offset="0.38" stop-color="#689FE7"/>
<stop offset="0.71" stop-color="#254BC6"/>
<stop offset="1" stop-color="#272EB5"/>
</linearGradient>
<linearGradient id="paint2_diamond_476_6764" x1="0" y1="0" x2="500" y2="500" gradientUnits="userSpaceOnUse">
<stop stop-color="#F1DAE4"/>
<stop offset="0.38" stop-color="#689FE7"/>
<stop offset="0.71" stop-color="#254BC6"/>
<stop offset="1" stop-color="#272EB5"/>
</linearGradient>
<linearGradient id="paint3_diamond_476_6764" x1="0" y1="0" x2="500" y2="500" gradientUnits="userSpaceOnUse">
<stop stop-color="#F1DAE4"/>
<stop offset="0.38" stop-color="#689FE7"/>
<stop offset="0.71" stop-color="#254BC6"/>
<stop offset="1" stop-color="#272EB5"/>
</linearGradient>
</defs>
</svg>
