<svg width="22" height="22" viewBox="0 0 22 22" fill="none" xmlns="http://www.w3.org/2000/svg">
<path opacity="0.4" d="M18.6836 0.783141C19.3838 0.850631 20.1167 1.03918 20.5841 1.54257C21.0377 2.03106 21.1867 2.76556 21.2256 3.46477C21.2666 4.20207 21.1928 5.0823 21.0436 6.0301C20.7445 7.9306 20.1236 10.2173 19.3785 12.4096C18.633 14.6028 17.752 16.7347 16.92 18.3247C16.506 19.1159 16.0899 19.8005 15.6939 20.2953C15.4968 20.5414 15.2843 20.7666 15.0583 20.9344C14.8439 21.0938 14.5312 21.2655 14.1551 21.2489C13.551 21.2222 13.092 20.8913 12.7546 20.4533C12.4313 20.0336 12.176 19.4645 11.9491 18.8071C11.4941 17.4888 11.0666 15.5447 10.5156 13.0391C10.3972 12.5007 10.2976 12.318 10.2081 12.2216C10.1223 12.1291 9.95922 12.0226 9.45142 11.8802C9.13862 11.7924 8.66472 11.6958 8.06704 11.574C7.88324 11.5365 7.68769 11.4967 7.48155 11.454C6.63028 11.2776 5.64006 11.06 4.69843 10.7792C3.7668 10.5014 2.82966 10.1467 2.11009 9.676C1.40511 9.2149 0.743111 8.5279 0.736841 7.55582C0.734461 7.18549 0.908051 6.87829 1.07305 6.66237C1.24604 6.436 1.47601 6.22331 1.72803 6.02586C2.23416 5.62932 2.93037 5.21648 3.73308 4.80847C5.34596 3.98865 7.49963 3.13295 9.70902 2.42176C11.917 1.71102 14.2156 1.13337 16.1181 0.883821C17.0668 0.759391 17.9479 0.712231 18.6836 0.783141Z" fill="white"/>
<path d="M10.4872 12.9134C10.3813 12.4713 10.2906 12.3101 10.2085 12.2216C10.1227 12.1291 9.95952 12.0226 9.45182 11.8802C9.28912 11.8345 9.08292 11.7865 8.83838 11.7338L13.2796 7.29287C13.6702 6.90236 14.3033 6.90238 14.6938 7.29292C15.0843 7.68346 15.0843 8.31662 14.6938 8.70713L10.4872 12.9134Z" fill="white"/>
</svg>
