<svg width="198" height="132" viewBox="0 0 198 132" fill="none" xmlns="http://www.w3.org/2000/svg">
<style> 
 

.shape {
  stroke-dasharray: 10;
  stroke-dashoffset: 10;
  animation: dash 2.9s  linear infinite ;
	
}

.shape:nth-child(even) {
  -webkit-animation-delay: 1.5s;
}

.shape:nth-child(4n+0) {
  -webkit-animation-delay:  2.9s ;
}

@keyframes dash {
  to {
    stroke-dashoffset: 0;
  }
  100% {
    stroke-dashoffset: 740;

  }
}

@-webkit-keyframes dash {
  to {
    stroke-dashoffset: 0;
  }
  100% {
    stroke-dashoffset: 740;

  }
}
</style>
<path class="shape" d="M77.6235 0.5V1H81.6392V0.5H85.6538V1H89.6694V0.5H93.6841V1H97.6997V0.5H101.714V1H105.73V0.5H109.745V1H113.76V0.5H117.776V1H121.791V0.5H125.806V1H129.821V0.5H133.836V1H137.851V0.5H141.867V1H145.881V0.5H149.897V1H153.912V0.5H157.927V1H161.942V0.5H165.958V1H169.973V0.5H173.988V1H178.003V0.5H180.01C180.748 0.5 181.47 0.546094 182.174 0.635742L182.111 1.13184L182.11 1.13281C183.545 1.3154 184.902 1.68384 186.166 2.20703L186.167 2.20508L186.358 1.74316C187.717 2.30592 188.971 3.04364 190.1 3.9209L189.793 4.31543L189.792 4.31641C190.906 5.18258 191.896 6.18904 192.74 7.30273H192.741L193.139 7C194.013 8.15313 194.736 9.417 195.287 10.7549L194.824 10.9453H194.823C195.355 12.2372 195.719 13.6004 195.901 15H195.904L196.4 14.9355C196.584 16.3531 196.583 17.8079 196.379 19.2646L195.884 19.1953L195.881 19.1943C195.692 20.5491 195.32 21.9049 194.75 23.2344L194.752 23.2363L195.211 23.4326C194.932 24.085 194.606 24.7307 194.232 25.3662L193.203 27.1162L192.771 26.8623L190.712 30.3633L191.144 30.6162L189.084 34.1162L188.653 33.8623L186.594 37.3633L187.026 37.6162L184.966 41.1162L184.535 40.8623L182.476 44.3633L182.908 44.6162L180.848 48.1162L180.417 47.8623L178.358 51.3623L178.79 51.6162L176.73 55.1162L176.299 54.8633L174.24 58.3623L174.671 58.6162L172.612 62.1162L172.181 61.8633L170.122 65.3623L170.553 65.6162L168.495 69.1162L168.063 68.8633L166.003 72.3623L166.435 72.6162L164.376 76.1162L163.945 75.8633L161.885 79.3623L162.317 79.6162L160.258 83.1162L159.827 82.8633L157.767 86.3623L158.199 86.6162L156.14 90.1162L155.708 89.8633L153.649 93.3623L153.65 93.3633L154.081 93.6162L152.022 97.1162L151.59 96.8623L149.532 100.363L149.962 100.616L147.904 104.116L147.472 103.862L145.414 107.363L145.844 107.616L143.786 111.116L143.354 110.862L141.295 114.363L141.727 114.616L139.667 118.116L139.236 117.862L137.177 121.363L137.609 121.616L136.579 123.366C136.213 123.987 135.811 124.578 135.375 125.138L134.981 124.831L134.98 124.83C134.121 125.934 133.128 126.91 132.032 127.742L132.033 127.743L132.335 128.142C131.196 129.006 129.949 129.72 128.625 130.264L128.435 129.801L128.434 129.8C127.161 130.323 125.816 130.683 124.429 130.864L124.43 130.865L124.495 131.361C123.792 131.453 123.078 131.5 122.358 131.5H120.35V131H116.334V131.5H112.32V131H108.304V131.5H104.29V131H100.274V131.5H96.2593V131H92.2437V131.5H88.229V131H84.2134V131.5H80.1978V131H76.1831V131.5H72.1675V131H68.1528V131.5H64.1372V131H60.1226V131.5H56.1069V131H52.0923V131.5H48.0767V131H44.062V131.5H40.0464V131H36.0317V131.5H32.0161V131H28.0005V131.5H23.9858V131H19.9702V131.5H17.9634C17.226 131.5 16.5035 131.454 15.7993 131.364L15.8628 130.868V130.866C14.4279 130.684 13.071 130.315 11.8071 129.792L11.8062 129.795L11.6157 130.257C10.2565 129.694 9.00224 128.956 7.87354 128.079L8.18018 127.685L8.18115 127.683C7.06668 126.816 6.07679 125.81 5.23291 124.696V124.697L4.83447 125C3.96063 123.847 3.23782 122.583 2.68701 121.245L3.1499 121.055V121.054C2.6181 119.762 2.25318 118.399 2.07178 116.999L2.06982 117L1.57373 117.064C1.38995 115.647 1.39014 114.192 1.59424 112.735L2.08936 112.805H2.09131C2.28113 111.45 2.653 110.094 3.22314 108.765L3.22119 108.764L2.76221 108.567C3.042 107.915 3.36785 107.269 3.7417 106.634L4.771 104.884L5.20166 105.137L7.26025 101.636L6.82959 101.384L8.88916 97.8838L9.31982 98.1367L11.3784 94.6357L10.9478 94.3838L13.0073 90.8838L13.438 91.1367L15.4966 87.6357L15.0659 87.3838L17.1255 83.8838L17.5562 84.1367L19.6147 80.6367L19.1841 80.3838L21.2437 76.8838L21.6733 77.1357L23.7329 73.6367L23.3022 73.3838L25.3618 69.8838L25.7915 70.1357L27.8511 66.6367L27.4204 66.3838L29.479 62.8838L29.9097 63.1357L31.9692 59.6367L31.5386 59.3838L33.5972 55.8838L34.0278 56.1357L36.0874 52.6367L35.6567 52.3838L37.7153 48.8838L38.146 49.1357L40.2056 45.6367L39.7749 45.3838L41.8335 41.8838L42.2642 42.1357L44.3237 38.6367L43.8931 38.3838L45.9517 34.8838L46.3823 35.1367L48.4409 31.6357L48.0112 31.3838L50.0698 27.8838L50.5005 28.1367L52.5591 24.6357L52.1294 24.3838L54.188 20.8838L54.6187 21.1367L56.6772 17.6357L56.2466 17.3838L58.3062 13.8838L58.7368 14.1367L60.7954 10.6357L60.3647 10.3838L61.395 8.63379C61.7602 8.0131 62.1625 7.42191 62.5981 6.8623L62.9927 7.16895C63.8519 6.06539 64.8448 5.08886 65.9409 4.25684L65.6382 3.8584C66.7775 2.99358 68.0251 2.27982 69.3481 1.73633L69.5386 2.19922C70.8115 1.67636 72.1566 1.31575 73.5435 1.13477L73.479 0.638672C74.1821 0.546928 74.8957 0.500019 75.6157 0.5H77.6235Z" stroke="#99B9D8" stroke-dasharray="4 4"/>
</svg>
