<svg width="26" height="35" viewBox="0 0 26 35" fill="none" xmlns="http://www.w3.org/2000/svg">
<path fill-rule="evenodd" clip-rule="evenodd" d="M12.8559 35C12.1177 35 11.3796 34.7129 10.8055 34.1388C10.785 34.1183 10.744 34.0773 10.7235 34.0158C10.0469 32.8061 9.08319 31.2888 7.97598 29.5255C4.42882 23.8254 0 16.7311 0 12.8559C0 5.76157 5.78207 0 12.8559 0C19.9502 0 25.7118 5.76157 25.7118 12.8559C25.7118 16.7516 21.3035 23.8254 17.7358 29.5255C16.6286 31.2888 15.6854 32.8266 15.0088 34.0363C14.9883 34.0773 14.9473 34.1183 14.9063 34.1388C14.3527 34.7129 13.6145 35 12.8559 35Z" fill="#004C97"/>
<path fill-rule="evenodd" clip-rule="evenodd" d="M6.25378 26.737C6.02824 26.3884 5.8232 26.0193 5.59766 25.6503H13.6557C13.9632 25.6503 14.2093 25.8963 14.2093 26.2039C14.2093 26.4909 13.9632 26.737 13.6557 26.737H6.25378Z" fill="white"/>
<path fill-rule="evenodd" clip-rule="evenodd" d="M17.9821 29.1359L17.7361 29.5255L17.3055 30.2226H12.0565C11.7695 30.2226 11.5234 29.9766 11.5234 29.669C11.5234 29.382 11.7695 29.1359 12.0565 29.1359H17.9821Z" fill="white"/>
<path fill-rule="evenodd" clip-rule="evenodd" d="M12.8564 23.2103C7.15632 23.2103 2.50195 18.5765 2.50195 12.8559C2.50195 7.15583 7.15632 2.50146 12.8564 2.50146C18.5769 2.50146 23.2108 7.15583 23.2108 12.8559C23.2108 18.5765 18.5769 23.2103 12.8564 23.2103Z" fill="#003366"/>
<path fill-rule="evenodd" clip-rule="evenodd" d="M12.8557 21.734C7.95528 21.734 3.97754 17.7563 3.97754 12.8559C3.97754 7.95546 7.95528 3.97772 12.8557 3.97772C17.7561 3.97772 21.7543 7.95546 21.7543 12.8559C21.7543 17.7563 17.7561 21.734 12.8557 21.734Z" fill="white"/>
<path fill-rule="evenodd" clip-rule="evenodd" d="M21.5287 35H4.18251C3.89546 35 3.64941 34.754 3.64941 34.4464C3.64941 34.1389 3.89546 33.8928 4.18251 33.8928H21.5287C21.8363 33.8928 22.0823 34.1389 22.0823 34.4464C22.0823 34.754 21.8363 35 21.5287 35Z" fill="#003366"/>
<path fill-rule="evenodd" clip-rule="evenodd" d="M12.8559 20.8113C8.46805 20.8113 4.90039 17.2437 4.90039 12.8559C4.90039 8.46805 8.46805 4.90039 12.8559 4.90039C17.2437 4.90039 20.8113 8.46805 20.8113 12.8559C20.8113 17.2437 17.2437 20.8113 12.8559 20.8113Z" fill="white"/>
<path opacity="0.5" fill-rule="evenodd" clip-rule="evenodd" d="M12.8558 20.8113C10.8465 20.8113 9.80078 16.8131 9.80078 12.8559C9.80078 8.89863 10.8465 4.90039 12.8558 4.90039C14.8652 4.90039 15.9314 8.89863 15.9314 12.8559C15.9314 16.8131 14.8652 20.8113 12.8558 20.8113Z" fill="white"/>
<path fill-rule="evenodd" clip-rule="evenodd" d="M5.63867 9.53427C5.8027 9.1652 6.00774 8.79614 6.25379 8.44757H19.4787C19.7043 8.79614 19.9093 9.1652 20.0939 9.53427H5.63867Z" fill="#003366"/>
<path fill-rule="evenodd" clip-rule="evenodd" d="M10.0684 9.53427C10.1299 9.1652 10.1914 8.79614 10.2734 8.44757H15.4404C15.5429 8.79614 15.6044 9.1652 15.6659 9.53427H10.0684Z" fill="white"/>
<path fill-rule="evenodd" clip-rule="evenodd" d="M4.92089 13.4095C4.92089 13.225 4.90039 13.0404 4.90039 12.8559C4.90039 12.6714 4.92089 12.4868 4.92089 12.3023H20.7908C20.8113 12.4868 20.8113 12.6714 20.8113 12.8559C20.8113 13.0404 20.8113 13.225 20.7908 13.4095H4.92089Z" fill="#003366"/>
<path fill-rule="evenodd" clip-rule="evenodd" d="M9.80078 13.4095C9.80078 13.225 9.80078 13.0404 9.80078 12.8559C9.80078 12.6714 9.80078 12.4868 9.80078 12.3023H15.9109C15.9314 12.4868 15.9314 12.6714 15.9314 12.8559C15.9314 13.0404 15.9314 13.225 15.9109 13.4095H9.80078Z" fill="white"/>
<path fill-rule="evenodd" clip-rule="evenodd" d="M6.25379 17.2643C6.00774 16.9157 5.8027 16.5466 5.63867 16.1776H20.0939C19.9093 16.5466 19.7043 16.9157 19.4787 17.2643H6.25379Z" fill="#003366"/>
<path fill-rule="evenodd" clip-rule="evenodd" d="M10.2734 17.2643C10.1914 16.9157 10.1299 16.5466 10.0684 16.1776H15.6659C15.6044 16.5466 15.5429 16.9157 15.4404 17.2643H10.2734Z" fill="white"/>
</svg>
