<svg width="49" height="36" viewBox="0 0 49 36" fill="none" xmlns="http://www.w3.org/2000/svg">
<path d="M19.208 2.22852H15.458V5.97852H19.208V2.22852Z" fill="#003366"/>
<path d="M4.16895 8.74487L2.29395 11.9924L5.54145 13.8674L7.41645 10.6199L4.16895 8.74487Z" fill="#003366"/>
<path d="M2.29785 25.0251L4.17285 28.2726L7.42035 26.3976L5.54535 23.1501L2.29785 25.0251Z" fill="#003366"/>
<path d="M15.459 34.79H19.209V31.04H15.459V34.79Z" fill="#003366"/>
<path d="M30.4928 28.2744L32.3682 25.0269L29.1207 23.1515L27.2453 26.399L30.4928 28.2744Z" fill="#003366"/>
<path d="M32.3748 11.9913L30.499 8.7442L27.2519 10.62L29.1276 13.8671L32.3748 11.9913Z" fill="#003366"/>
<path d="M31.0584 18.5035C31.0584 26.0785 24.9178 32.2285 17.3334 32.2285C9.7584 32.2285 3.6084 26.0879 3.6084 18.5035C3.6084 10.9285 9.74902 4.7785 17.3334 4.7785C24.9178 4.78788 31.0584 10.9285 31.0584 18.5035Z" fill="#003366"/>
<path d="M30.1488 18.5035C30.1488 25.5816 24.4113 31.3191 17.3332 31.3191C10.2551 31.3191 4.51758 25.5816 4.51758 18.5035C4.51758 11.4254 10.2551 5.69727 17.3332 5.69727C24.4113 5.69727 30.1488 11.4348 30.1488 18.5035Z" fill="#99B9D8"/>
<path d="M25.8284 27.0032C30.5219 22.3096 30.5219 14.6999 25.8284 10.0063C21.1348 5.31274 13.525 5.31273 8.83147 10.0063C4.1379 14.6999 4.1379 22.3097 8.83147 27.0032C13.525 31.6968 21.1348 31.6968 25.8284 27.0032Z" fill="#004C97"/>
<path d="M17.3334 29.1348C23.2049 29.1348 27.9646 24.375 27.9646 18.5035C27.9646 12.632 23.2049 7.87225 17.3334 7.87225C11.4619 7.87225 6.70215 12.632 6.70215 18.5035C6.70215 24.375 11.4619 29.1348 17.3334 29.1348Z" fill="white"/>
<path d="M17.3336 19.3847L12.0273 16.3285L12.5148 15.4754L17.3336 18.2504L24.3086 14.0785L24.7961 14.9316L17.3336 19.3847Z" fill="#003366"/>
<path d="M18.6834 18.5035C18.6834 19.2441 18.0834 19.8441 17.3334 19.8441C16.5928 19.8441 15.9834 19.2441 15.9834 18.5035C15.9834 17.7629 16.5834 17.1535 17.3334 17.1535C18.074 17.1629 18.6834 17.7629 18.6834 18.5035Z" fill="#004C97"/>
<path d="M17.7648 9.11912C17.7648 9.35349 17.568 9.55037 17.3336 9.55037C17.0992 9.55037 16.9023 9.35349 16.9023 9.11912C16.9023 8.88474 17.0992 8.68787 17.3336 8.68787C17.568 8.68787 17.7648 8.88474 17.7648 9.11912Z" fill="#003366"/>
<path d="M13.0118 10.1598C13.1337 10.366 13.0587 10.6285 12.8524 10.7504C12.6462 10.8723 12.3837 10.7973 12.2618 10.591C12.1399 10.3848 12.2149 10.1223 12.4212 10.0004C12.6274 9.8879 12.8993 9.95352 13.0118 10.1598Z" fill="#003366"/>
<path d="M9.42055 13.441C9.6268 13.5629 9.7018 13.8254 9.57992 14.0316C9.45805 14.2379 9.19555 14.3129 8.9893 14.191C8.78305 14.0691 8.71742 13.8066 8.82992 13.6004C8.9518 13.3941 9.2143 13.3191 9.42055 13.441Z" fill="#003366"/>
<path d="M7.94883 18.0817C8.1832 18.0817 8.38008 18.2785 8.38008 18.5129C8.38008 18.7473 8.1832 18.9442 7.94883 18.9442C7.71445 18.9442 7.51758 18.7473 7.51758 18.5129C7.51758 18.2692 7.70508 18.0817 7.94883 18.0817Z" fill="#003366"/>
<path d="M8.98956 22.8254C9.19581 22.7035 9.45831 22.7785 9.58018 22.9847C9.70206 23.191 9.62706 23.4535 9.42081 23.5754C9.21456 23.6972 8.95206 23.6222 8.83018 23.416C8.70831 23.2097 8.78331 22.9472 8.98956 22.8254Z" fill="#003366"/>
<path d="M12.2707 26.4254C12.3926 26.2192 12.6551 26.1442 12.8614 26.266C13.0676 26.3879 13.1426 26.6504 13.0207 26.8567C12.8989 27.0629 12.6364 27.1285 12.4301 27.016C12.2145 26.8942 12.1489 26.6317 12.2707 26.4254Z" fill="#003366"/>
<path d="M16.9023 27.8973C16.9023 27.6629 17.0992 27.466 17.3336 27.466C17.568 27.466 17.7648 27.6629 17.7648 27.8973C17.7648 28.1316 17.568 28.3285 17.3336 28.3285C17.0992 28.3285 16.9023 28.1316 16.9023 27.8973Z" fill="#003366"/>
<path d="M21.6554 26.8567C21.5335 26.6504 21.6085 26.3879 21.8148 26.266C22.021 26.1442 22.2835 26.2192 22.4054 26.4254C22.5273 26.6317 22.4523 26.8942 22.246 27.016C22.0398 27.1285 21.7773 27.0629 21.6554 26.8567Z" fill="#003366"/>
<path d="M25.2461 23.5754C25.0399 23.4535 24.9743 23.191 25.0868 22.9848C25.2086 22.7785 25.4711 22.7129 25.6774 22.8254C25.8836 22.9473 25.9586 23.2098 25.8368 23.416C25.7149 23.6223 25.4524 23.6973 25.2461 23.5754Z" fill="#003366"/>
<path d="M26.7174 18.9348C26.483 18.9348 26.2861 18.7379 26.2861 18.5035C26.2861 18.2691 26.483 18.0723 26.7174 18.0723C26.9518 18.0723 27.1486 18.2691 27.1486 18.5035C27.1486 18.7473 26.9611 18.9348 26.7174 18.9348Z" fill="#003366"/>
<path d="M25.6776 14.191C25.4714 14.3129 25.2089 14.2379 25.087 14.0316C24.9651 13.8254 25.0401 13.5629 25.2464 13.441C25.4526 13.3191 25.7151 13.3941 25.837 13.6004C25.9589 13.8066 25.8839 14.0691 25.6776 14.191Z" fill="#003366"/>
<path d="M22.3956 10.591C22.2737 10.7973 22.0112 10.8629 21.805 10.7504C21.5987 10.6285 21.5237 10.366 21.6456 10.1598C21.7675 9.95354 22.03 9.87854 22.2362 10.0004C22.4519 10.1223 22.5175 10.3848 22.3956 10.591Z" fill="#003366"/>
<path d="M40.3786 -2.56493e-05L38.2686 0.190674L38.4601 2.31007L40.5702 2.11937L40.3786 -2.56493e-05Z" fill="#003366"/>
<path d="M32.2272 4.45001L31.3369 6.37256L33.2595 7.26286L34.1498 5.34031L32.2272 4.45001Z" fill="#003366"/>
<path d="M32.0034 13.7261L33.2236 15.4581L34.9557 14.2379L33.7355 12.5059L32.0034 13.7261Z" fill="#003366"/>
<path d="M39.9226 18.5616L42.042 18.37L41.8504 16.2506L39.731 16.4422L39.9226 18.5616Z" fill="#003366"/>
<path d="M46.1523 13.2254L47.043 11.3035L48.9742 12.1942L48.0836 14.116L46.1523 13.2254Z" fill="#003366"/>
<path d="M48.3113 4.84378L47.0859 3.10382L45.346 4.3292L46.5714 6.06915L48.3113 4.84378Z" fill="#003366"/>
<path d="M47.6053 8.61288C47.9803 12.7191 44.9428 16.3566 40.8366 16.7316C36.721 17.1066 33.0928 14.0691 32.7178 9.96288C32.3428 5.85663 35.3803 2.21913 39.4866 1.84413C43.5928 1.46913 47.2303 4.49726 47.6053 8.61288Z" fill="#003366"/>
<path d="M45.7489 8.77227C46.0301 11.8566 43.752 14.5848 40.6582 14.866C37.5739 15.1473 34.8457 12.8691 34.5645 9.78477C34.2832 6.7004 36.5614 3.97227 39.6551 3.69102C42.7395 3.40977 45.4676 5.6879 45.7489 8.77227Z" fill="white"/>
<path d="M44.3146 8.90352C44.5209 11.2004 42.824 13.2254 40.5271 13.441C38.2303 13.6473 36.2053 11.9504 35.9896 9.6629C35.7834 7.36602 37.4803 5.34102 39.7678 5.1254C42.0834 4.91915 44.1084 6.60665 44.3146 8.90352Z" fill="#004C97"/>
<path d="M42.7487 9.04412C42.8799 10.4785 41.8206 11.7441 40.3862 11.8754C38.9518 12.0066 37.6862 10.9472 37.5549 9.51287C37.4237 8.07849 38.4831 6.81287 39.9174 6.68162C41.3518 6.55974 42.6268 7.60974 42.7487 9.04412Z" fill="white"/>
<path d="M38.7459 20.4629L37.2928 20.6317L37.124 19.1879L38.5771 19.0192L38.7459 20.4629Z" fill="#003366"/>
<path d="M33.0588 22.2153L32.4824 23.5593L33.8265 24.1357L34.4028 22.7917L33.0588 22.2153Z" fill="#003366"/>
<path d="M34.2549 27.7285L35.1268 28.9004L33.9549 29.7723L33.083 28.6004L34.2549 27.7285Z" fill="#003366"/>
<path d="M38.4463 30.3254L39.89 30.1473L40.0682 31.6004L38.615 31.7692L38.4463 30.3254Z" fill="#003366"/>
<path d="M44.1252 28.5683L44.7021 27.2244L43.3583 26.6475L42.7813 27.9914L44.1252 28.5683Z" fill="#003366"/>
<path d="M44.1084 22.1879L43.2334 21.016L42.0615 21.891L42.9365 23.0629L44.1084 22.1879Z" fill="#003366"/>
<path d="M44.1924 24.7285C44.558 27.8222 42.3549 30.6254 39.2611 30.991C36.1674 31.3566 33.3643 29.1535 32.9986 26.0597C32.633 22.966 34.8361 20.1629 37.9299 19.7972C41.0236 19.4316 43.8268 21.6347 44.1924 24.7285Z" fill="#003366"/>
<path d="M42.0832 24.9816C42.3082 26.9035 40.9394 28.6473 39.0082 28.8816C37.0863 29.1066 35.3426 27.7379 35.1082 25.8066C34.8832 23.8848 36.2519 22.141 38.1832 21.9066C40.1051 21.6816 41.8488 23.0504 42.0832 24.9816Z" fill="white"/>
<path d="M40.1894 25.2066C40.2925 26.0879 39.6644 26.8941 38.7832 26.9973C37.9019 27.1004 37.0957 26.4723 36.9925 25.591C36.8894 24.7098 37.5175 23.9035 38.3988 23.8004C39.2894 23.6879 40.0863 24.316 40.1894 25.2066Z" fill="#004C97"/>
<path d="M40.8174 9.2785C40.8174 9.64413 40.5268 9.93475 40.1611 9.93475C39.7955 9.93475 39.5049 9.64413 39.5049 9.2785C39.5049 8.91288 39.7955 8.62225 40.1611 8.62225C40.5174 8.62225 40.8174 8.92225 40.8174 9.2785Z" fill="#003366"/>
</svg>
