<svg width="36" height="35" viewBox="0 0 36 35" fill="none" xmlns="http://www.w3.org/2000/svg">
<path d="M4.83203 8.49994C4.83203 7.94766 5.27975 7.49994 5.83203 7.49994H27.0005C28.105 7.49994 29.0005 8.39537 29.0005 9.49994V28.835C29.0005 29.9395 28.105 30.835 27.0005 30.835H8.83203C6.62289 30.835 4.83203 29.0441 4.83203 26.835V8.49994Z" fill="white"/>
<path d="M4.12993 4.23896e-07C3.87991 -0.000236183 3.64568 0.0985865 3.46585 0.274701L0.942048 2.79851C0.575307 3.16462 0.575307 3.75803 0.942048 4.12414C1.30958 4.49182 1.90346 4.49182 2.2702 4.12414L3.19218 3.20082V28.2086C1.73942 28.6211 0.668375 29.9626 0.668375 31.5384C0.668375 33.4392 2.23155 35 4.12993 35C5.7081 35 7.04414 33.9266 7.4582 32.4754H32.4668L31.5448 33.399C31.178 33.7657 31.178 34.3588 31.5448 34.7247C31.9123 35.0875 32.4983 35.0875 32.865 34.7247L35.3889 32.2009C35.7564 31.8342 35.7564 31.2419 35.3889 30.8759L32.865 28.3521C32.6939 28.1778 32.4589 28.0785 32.2089 28.0769C31.9588 28.0769 31.7246 28.1755 31.5448 28.3521C31.178 28.7189 31.178 29.3104 31.5448 29.6771L32.4668 30.6007H29.6701V8.90304C29.6701 7.30753 28.3577 5.99357 26.7637 5.99357H5.06768V3.20058L5.98887 4.12422C6.3564 4.4919 6.95029 4.4919 7.31782 4.12422C7.68456 3.75811 7.68456 3.1647 7.31782 2.79859L4.79401 0.27478C4.61419 0.0986653 4.37994 -0.000236183 4.12993 4.23896e-07ZM5.06768 7.86899H26.7637C27.3497 7.86899 27.7946 8.31381 27.7946 8.90297V30.6006H21.7871V15.3702C21.7871 13.7747 20.4739 12.4607 18.8808 12.4607H5.06768V7.86899ZM17.1536 16.0682C17.2745 16.0679 17.3943 16.0915 17.5062 16.1376C17.618 16.1837 17.7196 16.2514 17.8053 16.3368C17.8909 16.4222 17.9589 16.5237 18.0052 16.6354C18.0516 16.7471 18.0755 16.8669 18.0755 16.9878C18.0754 17.1087 18.0514 17.2284 18.005 17.34C17.9586 17.4516 17.8906 17.553 17.805 17.6383C17.7194 17.7237 17.6178 17.7913 17.506 17.8373C17.3942 17.8834 17.2744 17.9069 17.1536 17.9066C17.0327 17.9069 16.9129 17.8834 16.8011 17.8373C16.6894 17.7913 16.5878 17.7237 16.5021 17.6383C16.4165 17.553 16.3485 17.4516 16.3021 17.34C16.2557 17.2284 16.2317 17.1087 16.2316 16.9878C16.2316 16.8669 16.2555 16.7471 16.3019 16.6354C16.3483 16.5237 16.4162 16.4222 16.5019 16.3368C16.5875 16.2514 16.6891 16.1837 16.801 16.1376C16.9128 16.0915 17.0326 16.0679 17.1536 16.0682ZM5.06768 21.2767H10.6768C11.2628 21.2767 11.7085 21.7215 11.7085 22.3107V30.6006H7.4582C7.13011 29.4491 6.21601 28.5358 5.06768 28.2085V21.2767ZM4.12993 29.9523C5.01247 29.9523 5.71599 30.6511 5.71599 31.5384C5.71599 32.4256 5.01247 33.1244 4.12993 33.1244C3.2395 33.1244 2.54388 32.4256 2.54388 31.5384C2.54388 30.6511 3.2395 29.9523 4.12993 29.9523Z" fill="#004C97"/>
<path d="M26.2025 10.3951C26.2024 10.639 26.1055 10.8729 25.9331 11.0453C25.7606 11.2178 25.5268 11.3147 25.2829 11.3147C25.039 11.3147 24.8052 11.2178 24.6327 11.0453C24.4603 10.8729 24.3634 10.639 24.3633 10.3951C24.3634 10.1513 24.4603 9.91741 24.6327 9.74497C24.8052 9.57252 25.039 9.47561 25.2829 9.47552C25.5268 9.47561 25.7606 9.57252 25.9331 9.74497C26.1055 9.91741 26.2024 10.1513 26.2025 10.3951Z" fill="#003366"/>
<path d="M10.265 23.8423C10.2649 24.0862 10.168 24.3201 9.99556 24.4925C9.82312 24.665 9.58926 24.7619 9.34539 24.762C9.10152 24.7619 8.86767 24.665 8.69522 24.4925C8.52278 24.3201 8.42586 24.0862 8.42578 23.8423C8.42586 23.5985 8.52278 23.3646 8.69522 23.1922C8.86767 23.0197 9.10152 22.9228 9.34539 22.9227C9.58926 22.9228 9.82312 23.0197 9.99556 23.1922C10.168 23.3646 10.2649 23.5985 10.265 23.8423Z" fill="#003366"/>
</svg>
