<svg width="48" height="48" viewBox="0 0 48 48" fill="none" xmlns="http://www.w3.org/2000/svg">
<path d="M24.0311 24.2131L0.5 36.0639L24.0311 48L47.5622 36.0639L24.0311 24.2131Z" fill="#003366"/>
<path d="M24.0311 17.9041L0.5 29.8401L24.0311 41.6909L47.5622 29.8401L24.0311 17.9041Z" fill="#004C97"/>
<path d="M24.0311 11.5098L0.5 23.3606L24.0311 35.2114L47.5622 23.3606L24.0311 11.5098Z" fill="#99B9D8"/>
<path d="M24.0311 5.28598L0.5 17.1368L24.0311 29.0728L47.5622 17.1368L24.0311 5.28598Z" fill="white"/>
<path d="M31.1074 10.2309C31.1927 9.46359 31.1927 8.61101 31.1074 7.8437L33.0684 6.30906L32.2158 4.34814L29.7433 4.77442C29.2318 4.09236 28.7202 3.58082 28.0382 3.15453L28.3792 0.682061L26.5888 0L25.1394 2.04618C24.3721 1.96092 23.6048 1.96092 22.7522 2.04618L21.2176 0.0852579L19.2566 0.937833L19.6829 3.4103C19.0861 3.92185 18.4893 4.43339 18.063 5.11545L15.5906 4.77442L14.8232 6.73535L16.8694 8.18472C16.7842 8.95204 16.7842 9.80462 16.8694 10.5719L14.9085 12.1066L15.7611 14.0675L18.2335 13.6412C18.7451 14.3233 19.2566 14.8348 19.9387 15.2611L19.5977 17.7336L21.5586 18.5009L23.008 16.4547C23.7753 16.54 24.5426 16.54 25.3952 16.4547L26.9298 18.4156L28.8907 17.5631L28.2939 15.0906C28.8907 14.579 29.4875 14.0675 29.9138 13.3854L32.3863 13.7265L33.1536 11.7655L31.1074 10.2309ZM26.1625 10.0604C25.7362 11.254 24.4573 11.7655 23.2637 11.3393C22.0701 10.8277 21.5586 9.54885 21.9849 8.35524C22.4112 7.16163 23.69 6.65009 24.8836 7.07638C26.0772 7.50267 26.5888 8.86678 26.1625 10.0604Z" fill="#004C97"/>
<path d="M28.2088 10.913C29.1466 8.61102 28.0383 5.96804 25.6511 5.0302C23.3491 4.09237 20.7061 5.20072 19.7683 7.58793C18.8305 9.88988 19.9388 12.5329 22.326 13.4707C24.628 14.3233 27.271 13.3002 28.2088 10.913ZM26.1626 10.0604C25.7363 11.254 24.3722 11.8508 23.1786 11.4245C21.985 10.9982 21.3882 9.63411 21.8145 8.44051C21.8145 8.44051 21.8145 8.44051 21.8145 8.35525C22.2408 7.16164 23.5196 6.6501 24.7132 7.07639C25.9921 7.50267 26.5889 8.86679 26.1626 10.0604Z" fill="#003366"/>
</svg>
