<svg width="49" height="48" viewBox="0 0 49 48" fill="none" xmlns="http://www.w3.org/2000/svg">
<path d="M12.1001 18.226V29.773C12.1001 30.488 12.4811 31.148 13.1001 31.505L23.1001 37.279C23.7191 37.636 24.4811 37.636 25.1001 37.279L35.1001 31.505C35.7191 31.148 36.1001 30.487 36.1001 29.773V18.226C36.1001 17.511 35.7191 16.851 35.1001 16.494L25.1001 10.72C24.4811 10.363 23.7191 10.363 23.1001 10.72L13.1001 16.494C12.4811 16.851 12.1001 17.512 12.1001 18.226Z" fill="#003366"/>
<path d="M25.1001 37.279L35.1001 31.506C35.7191 31.149 36.1001 30.488 36.1001 29.774V18.227C36.1001 17.512 35.7191 16.852 35.1001 16.495L25.1001 10.722C24.7911 10.543 24.4451 10.454 24.1001 10.454V37.548C24.4451 37.548 24.7911 37.458 25.1001 37.279Z" fill="#004C97"/>
<path d="M24.1002 24L35.8322 17.227C35.6592 16.928 35.4092 16.674 35.1002 16.495L25.1002 10.722C24.4812 10.365 23.7192 10.365 23.1002 10.722L13.1002 16.495C12.7912 16.674 12.5412 16.928 12.3682 17.227L24.1002 24Z" fill="#99B9D8"/>
<path d="M6.3501 29.75C5.7981 29.75 5.3501 29.302 5.3501 28.75V19.25C5.3501 18.698 5.7981 18.25 6.3501 18.25C6.9021 18.25 7.3501 18.698 7.3501 19.25V28.75C7.3501 29.302 6.9021 29.75 6.3501 29.75Z" fill="#99B9D8"/>
<path d="M28.8509 42.75C28.5049 42.75 28.1679 42.57 27.9829 42.249C27.7079 41.77 27.8719 41.159 28.3509 40.883L36.6009 36.133C37.0799 35.858 37.6909 36.023 37.9669 36.501C38.2419 36.98 38.0779 37.591 37.5989 37.867L29.3489 42.617C29.1919 42.707 29.0199 42.75 28.8509 42.75Z" fill="#99B9D8"/>
<path d="M37.0989 12C36.9299 12 36.7579 11.957 36.6009 11.867L28.3509 7.117C27.8719 6.841 27.7079 6.23 27.9829 5.751C28.2589 5.272 28.8719 5.108 29.3489 5.383L37.5989 10.133C38.0779 10.409 38.2419 11.02 37.9669 11.499C37.7819 11.82 37.4459 12 37.0989 12Z" fill="#99B9D8"/>
<path d="M41.8501 29.75C41.2981 29.75 40.8501 29.302 40.8501 28.75V19.25C40.8501 18.698 41.2981 18.25 41.8501 18.25C42.4021 18.25 42.8501 18.698 42.8501 19.25V28.75C42.8501 29.302 42.4021 29.75 41.8501 29.75Z" fill="#99B9D8"/>
<path d="M19.3489 42.75C19.1799 42.75 19.0079 42.707 18.8509 42.617L10.6009 37.867C10.1219 37.591 9.9579 36.98 10.2329 36.501C10.5089 36.023 11.1209 35.859 11.5989 36.133L19.8489 40.883C20.3279 41.159 20.4919 41.77 20.2169 42.249C20.0319 42.57 19.6959 42.75 19.3489 42.75Z" fill="#99B9D8"/>
<path d="M11.1009 12C10.7549 12 10.4179 11.82 10.2329 11.499C9.9579 11.02 10.1219 10.409 10.6009 10.133L18.8509 5.383C19.3299 5.107 19.9409 5.273 20.2169 5.751C20.4919 6.23 20.3279 6.841 19.8489 7.117L11.5989 11.867C11.4419 11.957 11.2699 12 11.1009 12Z" fill="#99B9D8"/>
<path d="M24.1001 6C25.4808 6 26.6001 4.88071 26.6001 3.5C26.6001 2.11929 25.4808 1 24.1001 1C22.7194 1 21.6001 2.11929 21.6001 3.5C21.6001 4.88071 22.7194 6 24.1001 6Z" fill="#003366"/>
<path d="M24.1001 47C25.4808 47 26.6001 45.8807 26.6001 44.5C26.6001 43.1193 25.4808 42 24.1001 42C22.7194 42 21.6001 43.1193 21.6001 44.5C21.6001 45.8807 22.7194 47 24.1001 47Z" fill="#003366"/>
<path d="M6.34619 16.25C7.7269 16.25 8.84619 15.1307 8.84619 13.75C8.84619 12.3693 7.7269 11.25 6.34619 11.25C4.96548 11.25 3.84619 12.3693 3.84619 13.75C3.84619 15.1307 4.96548 16.25 6.34619 16.25Z" fill="#003366"/>
<path d="M41.854 36.75C43.2347 36.75 44.354 35.6307 44.354 34.25C44.354 32.8693 43.2347 31.75 41.854 31.75C40.4733 31.75 39.354 32.8693 39.354 34.25C39.354 35.6307 40.4733 36.75 41.854 36.75Z" fill="#003366"/>
<path d="M41.854 16.25C43.2347 16.25 44.354 15.1307 44.354 13.75C44.354 12.3693 43.2347 11.25 41.854 11.25C40.4733 11.25 39.354 12.3693 39.354 13.75C39.354 15.1307 40.4733 16.25 41.854 16.25Z" fill="#003366"/>
<path d="M6.34619 36.75C7.7269 36.75 8.84619 35.6307 8.84619 34.25C8.84619 32.8693 7.7269 31.75 6.34619 31.75C4.96548 31.75 3.84619 32.8693 3.84619 34.25C3.84619 35.6307 4.96548 36.75 6.34619 36.75Z" fill="#003366"/>
</svg>
