<svg width="49" height="48" viewBox="0 0 49 48" fill="none" xmlns="http://www.w3.org/2000/svg">
<path d="M30.6214 10.0852L32.6637 6H35.3314C35.6839 6.99825 36.7024 7.63875 37.7877 7.4745C39.0162 7.28775 39.8607 6.141 39.6739 4.9125C39.4872 3.684 38.3404 2.8395 37.1119 3.02625C36.2644 3.1545 35.6089 3.7455 35.3397 4.5H32.2002C31.9159 4.5 31.6564 4.6605 31.5289 4.91475L29.4867 9H26.9502V10.5H29.9502C30.2344 10.5 30.4939 10.3395 30.6214 10.0852Z" fill="#004C97"/>
<path d="M41.3382 12.75C41.6479 13.6223 42.4722 14.25 43.4502 14.25C44.6929 14.25 45.7002 13.2427 45.7002 12C45.7002 10.7573 44.6929 9.75 43.4502 9.75C42.4722 9.75 41.6479 10.3778 41.3382 11.25H38.2002C37.9497 11.25 37.7157 11.3752 37.5762 11.5837L36.2989 13.5H34.4502V15H36.7002C36.9507 15 37.1847 14.8748 37.3242 14.6663L38.6014 12.75H41.3382Z" fill="#004C97"/>
<path d="M44.9502 21.75C43.9722 21.75 43.1479 22.3778 42.8382 23.25H38.2002V24.75H42.8382C43.1479 25.6223 43.9722 26.25 44.9502 26.25C46.1929 26.25 47.2002 25.2427 47.2002 24C47.2002 22.7573 46.1929 21.75 44.9502 21.75Z" fill="#004C97"/>
<path d="M45.7002 36.75C45.7002 35.5073 44.6929 34.5 43.4502 34.5C42.4722 34.5 41.6479 35.1277 41.3382 36H39.4587L38.1469 32.721C38.0322 32.4367 37.7569 32.25 37.4502 32.25H35.2002V33.75H36.9424L38.2542 37.029C38.3682 37.3133 38.6434 37.5 38.9502 37.5H41.3382C41.6479 38.3723 42.4722 39 43.4502 39C44.6929 39 45.7002 37.9928 45.7002 36.75Z" fill="#004C97"/>
<path d="M37.4502 45.75C38.6929 45.75 39.7002 44.7428 39.7002 43.5C39.7002 42.2572 38.6929 41.25 37.4502 41.25C36.4722 41.25 35.6479 41.8777 35.3382 42.75H32.7664L31.4217 38.0437C31.3294 37.722 31.0347 37.5 30.7002 37.5H26.9502V39H30.1347L31.4794 43.7063C31.5709 44.028 31.8657 44.25 32.2002 44.25H35.3382C35.6479 45.1223 36.4722 45.75 37.4502 45.75Z" fill="#004C97"/>
<path d="M12.7002 24C12.7002 30.6165 18.0837 36 24.7002 36C31.3167 36 36.7002 30.6165 36.7002 24C36.7002 17.3835 31.3167 12 24.7002 12C18.0837 12 12.7002 17.3835 12.7002 24ZM29.9502 22.5L32.2002 21.75L32.9502 24.75L31.4502 27L33.7497 29.2995C32.0434 32.2013 28.9902 34.2105 25.4502 34.4625V32.25L28.4502 31.5V29.25L26.2002 27L22.4502 30L19.4502 27.75L15.5082 29.064C14.6764 27.561 14.2002 25.836 14.2002 24C14.2002 23.9513 14.2069 23.904 14.2077 23.8552L17.9502 24.75L18.7002 22.5H21.7002L23.9502 18.75L20.9502 17.25L19.7074 14.7653C21.1932 13.959 22.8942 13.5 24.7002 13.5C27.5532 13.5 30.1407 14.6475 32.0344 16.5H28.4502L27.7002 19.5L29.9502 22.5Z" fill="#004C97"/>
<path d="M16.4232 44.3363L17.6644 42.1868C18.9499 42.6847 20.2992 43.0537 21.7002 43.2705V45.75H24.7002V38.25C16.8304 38.25 10.4502 31.8698 10.4502 24C10.4502 16.1302 16.8304 9.75 24.7002 9.75V2.25H21.7002V4.73025C20.2992 4.94625 18.9499 5.316 17.6644 5.814L16.4232 3.6645L11.2272 6.6645L12.4699 8.817C11.3832 9.69375 10.3932 10.6838 9.51645 11.7705L7.36395 10.5278L4.36395 15.7238L6.51345 16.965C6.0162 18.2498 5.64645 19.599 5.43045 21H2.9502V27H5.43045C5.64645 28.401 6.0162 29.7502 6.5142 31.0358L4.3647 32.277L7.3647 37.473L9.51719 36.2302C10.3939 37.317 11.3839 38.307 12.4707 39.1838L11.2279 41.3363L16.4232 44.3363Z" fill="#004C97"/>
</svg>
