<svg width="32" height="32" viewBox="0 0 32 32" fill="none" xmlns="http://www.w3.org/2000/svg">
<path d="M15.813 29.5463C23.4309 29.5463 29.6064 23.3708 29.6064 15.7528C29.6064 8.13494 23.4309 1.95941 15.813 1.95941C8.19507 1.95941 2.01953 8.13494 2.01953 15.7528C2.01953 23.3708 8.19507 29.5463 15.813 29.5463Z" fill="#99B9D8"/>
<path d="M15.8128 27.1913C22.1301 27.1913 27.2513 22.0701 27.2513 15.7528C27.2513 9.43547 22.1301 4.31427 15.8128 4.31427C9.49548 4.31427 4.37427 9.43547 4.37427 15.7528C4.37427 22.0701 9.49548 27.1913 15.8128 27.1913Z" fill="white"/>
<path d="M15.8129 30.698C24.0669 30.698 30.758 24.0068 30.758 15.7528C30.758 7.49886 24.0669 0.807678 15.8129 0.807678C7.55886 0.807678 0.867676 7.49886 0.867676 15.7528C0.867676 24.0068 7.55886 30.698 15.8129 30.698Z" stroke="#99B9D8" stroke-width="0.646" stroke-miterlimit="10"/>
<g clip-path="url(#clip0_277_6032)">
<path opacity="0.4" fill-rule="evenodd" clip-rule="evenodd" d="M16.5629 10.2451C17.0684 9.78089 17.7203 9.60463 18.3428 9.71413C18.7478 9.78613 19.0252 10.1754 18.9502 10.5826C18.8752 10.9906 18.4928 11.2636 18.0803 11.1916C17.9153 11.1624 17.7352 11.2029 17.5777 11.3499C16.8997 11.9724 16.2788 12.5859 15.6975 13.1986C15.4125 13.4994 14.9377 13.5121 14.6369 13.2271C14.3362 12.9421 14.3242 12.4674 14.6092 12.1666C15.2137 11.5284 15.8594 10.8909 16.5629 10.2451ZM10.2967 15.2214C10.0057 15.0586 9.6015 15.1231 9.36 15.5266C9.13275 15.9069 9.17245 16.4184 9.4372 16.7431L10.5735 18.1389C11.0115 18.6766 11.295 19.0224 11.5275 19.2421C11.6377 19.3471 11.7097 19.3959 11.7525 19.4184C11.7667 19.4266 11.7764 19.4304 11.7809 19.4319C11.7847 19.4304 11.7892 19.4289 11.7952 19.4259C11.826 19.4117 11.883 19.3779 11.9737 19.3021C12.291 19.0359 12.7642 19.0772 13.0305 19.3944C13.2967 19.7117 13.2555 20.1849 12.9383 20.4512C12.633 20.7077 12.2497 20.9371 11.7689 20.9326C11.2297 20.9274 10.8202 20.6379 10.4962 20.3312C10.1842 20.0364 9.83924 19.6134 9.44174 19.1244L8.27396 17.6904C7.60272 16.8661 7.52774 15.6669 8.07299 14.7564C8.71349 13.6854 10.002 13.3366 11.0302 13.9134C11.3917 14.1159 11.52 14.5734 11.3175 14.9349C11.115 15.2957 10.6574 15.4246 10.2967 15.2214Z" fill="#004C97"/>
<path d="M20.63 10.3801C21.5675 9.5416 22.9325 9.78014 23.615 10.7814C24.2525 11.7024 24.14 13.0073 23.3075 13.7716C22.8125 14.2254 22.3475 14.6454 21.8975 15.0466C20.465 16.3344 19.235 17.4369 17.9675 18.9091L17.945 18.9377C17.4875 19.4627 17.1155 19.8954 16.7878 20.1931C16.4555 20.4939 16.0715 20.7504 15.593 20.7459C15.1235 20.7414 14.7538 20.4962 14.4343 20.1999C14.1253 19.9134 13.7803 19.4986 13.3678 19.0029L12.1813 17.5779C11.5468 16.8151 11.474 15.6961 11.9923 14.8486C12.7528 13.6044 14.432 13.4641 15.359 14.6011L15.9643 15.3429C17.3293 13.6448 18.7775 12.0428 20.63 10.3801Z" fill="#004C97"/>
</g>
<defs>
<clipPath id="clip0_277_6032">
<rect width="18" height="18" fill="white" transform="translate(6.86768 6.30768)"/>
</clipPath>
</defs>
</svg>
