<svg width="36" height="40" viewBox="0 0 36 40" fill="none" xmlns="http://www.w3.org/2000/svg">
<path d="M17.9936 40C17.1214 40 16.2605 39.7695 15.5037 39.3333L2.48991 31.8194C0.954056 30.9323 0 29.2801 0 27.5072V12.4803C0 10.7073 0.954056 9.05466 2.48991 8.16753L15.5037 0.654519C17.0164 -0.218173 18.9713 -0.218173 20.4831 0.654519L33.4969 8.16797C35.0328 9.05466 35.9868 10.7069 35.9868 12.4803V27.5072C35.9868 29.2801 35.0328 30.9323 33.4978 31.8194L20.4835 39.3329C19.7272 39.769 18.8663 40 17.9936 40ZM17.9936 0.367996C17.1879 0.367996 16.3926 0.581025 15.694 0.983906L2.68019 8.49737C1.26201 9.31625 0.381011 10.8425 0.381011 12.4798V27.5067C0.381011 29.1441 1.26201 30.6703 2.68019 31.4887L15.694 39.0026C17.0912 39.8093 18.8965 39.8084 20.2924 39.0022L33.3066 31.4887C34.7248 30.6699 35.6054 29.1436 35.6054 27.5067V12.4798C35.6054 10.842 34.7244 9.31581 33.3058 8.4978L20.2919 0.983906C19.5947 0.581025 18.7998 0.367996 17.9936 0.367996Z" fill="white"/>
<path d="M1.71338 12.2196V27.7675C1.71338 28.7731 2.25012 29.7027 3.12106 30.2053L16.5859 37.9795C17.4568 38.4825 18.5299 38.4825 19.4008 37.9795L32.8656 30.2053C33.7366 29.7023 34.2733 28.7731 34.2733 27.7675V12.2196C34.2733 11.2139 33.7366 10.2848 32.8656 9.78171L19.4008 2.00754C18.5299 1.50449 17.4568 1.50449 16.5859 2.00754L3.12106 9.78171C2.25012 10.2848 1.71338 11.2139 1.71338 12.2196Z" fill="white"/>
<g clip-path="url(#clip0_248_411)">
<path d="M27.1666 16.4112H25.881C25.7531 15.9685 25.5762 15.5404 25.353 15.1329L26.2618 14.2241C26.618 13.867 26.618 13.2859 26.2618 12.9279L25.072 11.7385C24.8988 11.5648 24.6513 11.4631 24.4235 11.4695C24.1787 11.4695 23.9486 11.5648 23.7754 11.7381L22.8665 12.6469C22.4705 12.4329 22.0429 12.2592 21.5891 12.1286V10.8329C21.5891 10.3273 21.178 9.9162 20.6725 9.9162H18.995C18.4894 9.9162 18.0783 10.3273 18.0783 10.8329V12.1286C17.6245 12.2592 17.1969 12.4329 16.8009 12.6469L15.892 11.7381C15.7188 11.5648 15.4887 11.4695 15.244 11.4695H15.243C14.9983 11.4695 14.7682 11.5648 14.5959 11.7381L13.4051 12.9284C13.049 13.2859 13.049 13.867 13.4051 14.2241L14.3135 15.1325C14.0903 15.5399 13.9134 15.9676 13.7855 16.4108H12.4999C11.9944 16.4108 11.5833 16.8219 11.5833 17.3274V19.0049C11.5833 19.5105 11.9944 19.9216 12.4999 19.9216H13.7855C13.9134 20.3644 14.0903 20.792 14.3135 21.1999L13.4047 22.1083C13.0481 22.4658 13.0481 23.0474 13.4047 23.404L14.595 24.5943C14.9525 24.9514 15.5336 24.9504 15.8911 24.5943L16.8 23.685C17.196 23.8999 17.6236 24.0737 18.0774 24.2043V25.4995C18.0774 26.0051 18.4885 26.4162 18.994 26.4162H20.6715C21.1771 26.4162 21.5882 26.0051 21.5882 25.4995V24.2043C22.042 24.0737 22.4696 23.8999 22.8656 23.685L23.7749 24.5948C24.132 24.9509 24.7136 24.9504 25.0706 24.5948L26.2609 23.4045C26.618 23.0479 26.618 22.4663 26.2609 22.1083L25.3525 21.2004C25.5757 20.7924 25.7526 20.3648 25.8805 19.9221H27.1661C27.6717 19.9221 28.0828 19.5109 28.0828 19.0054V17.3279C28.0828 16.8224 27.6721 16.4112 27.1666 16.4112Z" fill="#003366"/>
<path d="M19.8332 21.0588C21.4305 21.0588 22.7253 19.7639 22.7253 18.1667C22.7253 16.5694 21.4305 15.2746 19.8332 15.2746C18.236 15.2746 16.9412 16.5694 16.9412 18.1667C16.9412 19.7639 18.236 21.0588 19.8332 21.0588Z" fill="#E5EEF6"/>
<path d="M18.9167 22.75H18.2448C18.1642 22.4938 18.0615 22.2458 17.9364 22.0079L18.4121 21.5322C18.7696 21.1752 18.7696 20.5931 18.4121 20.236L17.764 19.5879C17.407 19.2304 16.8249 19.2304 16.4679 19.5879L15.9912 20.0646C15.7575 19.9445 15.51 19.8437 15.2501 19.7635V19.0838C15.2501 18.5782 14.839 18.1671 14.3334 18.1671H13.4167C12.9112 18.1671 12.5001 18.5782 12.5001 19.0838V19.7635C12.2402 19.8437 11.9927 19.9445 11.759 20.0646L11.2823 19.5879C10.9252 19.2304 10.3432 19.2304 9.98612 19.5879L9.33804 20.236C8.98054 20.5931 8.98054 21.1752 9.33804 21.5322L9.81379 22.0079C9.68912 22.2463 9.586 22.4942 9.50533 22.75H8.83341C8.32787 22.75 7.91675 23.1611 7.91675 23.6667V24.5833C7.91675 25.0889 8.32787 25.5 8.83341 25.5H9.50533C9.586 25.7562 9.68866 26.0042 9.81379 26.242L9.33804 26.7178C8.98054 27.0748 8.98054 27.6569 9.33804 28.0139L9.98612 28.662C10.3432 29.0191 10.9252 29.0191 11.2823 28.662L11.759 28.1854C11.9927 28.3054 12.2402 28.4058 12.5001 28.4865V29.1662C12.5001 29.6717 12.9112 30.0829 13.4167 30.0829H14.3334C14.839 30.0829 15.2501 29.6717 15.2501 29.1662V28.4865C15.51 28.4058 15.7575 28.305 15.9912 28.1854L16.4679 28.662C16.8249 29.0191 17.407 29.0191 17.764 28.662L18.4121 28.0139C18.7696 27.6569 18.7696 27.0748 18.4121 26.7178L17.9364 26.242C18.061 26.0037 18.1642 25.7557 18.2448 25.5H18.9167C19.4223 25.5 19.8334 25.0889 19.8334 24.5833V23.6667C19.8334 23.1611 19.4223 22.75 18.9167 22.75Z" fill="#004C97"/>
<path d="M13.8751 25.9584C14.8876 25.9584 15.7084 25.1375 15.7084 24.125C15.7084 23.1125 14.8876 22.2917 13.8751 22.2917C12.8626 22.2917 12.0417 23.1125 12.0417 24.125C12.0417 25.1375 12.8626 25.9584 13.8751 25.9584Z" fill="#E5EEF6"/>
</g>
<defs>
<clipPath id="clip0_248_411">
<rect width="22" height="22" fill="white" transform="translate(7 9)"/>
</clipPath>
</defs>
</svg>
