<svg width="36" height="40" viewBox="0 0 36 40" fill="none" xmlns="http://www.w3.org/2000/svg">
<path d="M17.9936 40C17.1214 40 16.2605 39.7695 15.5037 39.3333L2.48991 31.8194C0.954056 30.9323 0 29.2801 0 27.5072V12.4803C0 10.7073 0.954056 9.05466 2.48991 8.16753L15.5037 0.654519C17.0164 -0.218173 18.9713 -0.218173 20.4831 0.654519L33.4969 8.16797C35.0328 9.05466 35.9868 10.7069 35.9868 12.4803V27.5072C35.9868 29.2801 35.0328 30.9323 33.4978 31.8194L20.4835 39.3329C19.7272 39.769 18.8663 40 17.9936 40ZM17.9936 0.367996C17.1879 0.367996 16.3926 0.581025 15.694 0.983906L2.68019 8.49737C1.26201 9.31625 0.381011 10.8425 0.381011 12.4798V27.5067C0.381011 29.1441 1.26201 30.6703 2.68019 31.4887L15.694 39.0026C17.0912 39.8093 18.8965 39.8084 20.2924 39.0022L33.3066 31.4887C34.7248 30.6699 35.6054 29.1436 35.6054 27.5067V12.4798C35.6054 10.842 34.7244 9.31581 33.3058 8.4978L20.2919 0.983906C19.5947 0.581025 18.7998 0.367996 17.9936 0.367996Z" fill="white"/>
<path d="M1.71338 12.2196V27.7675C1.71338 28.7731 2.25012 29.7027 3.12106 30.2053L16.5859 37.9795C17.4568 38.4825 18.5299 38.4825 19.4008 37.9795L32.8656 30.2053C33.7366 29.7023 34.2733 28.7731 34.2733 27.7675V12.2196C34.2733 11.2139 33.7366 10.2848 32.8656 9.78171L19.4008 2.00754C18.5299 1.50449 17.4568 1.50449 16.5859 2.00754L3.12106 9.78171C2.25012 10.2848 1.71338 11.2139 1.71338 12.2196Z" fill="white"/>
<g clip-path="url(#clip0_248_309)">
<circle cx="13.2999" cy="20.0002" r="4.91" fill="#003366"/>
<circle cx="22.6999" cy="20.0001" r="6.3" fill="white"/>
<circle cx="22.7" cy="20.0002" r="4.91" fill="#003366"/>
<path fill-rule="evenodd" clip-rule="evenodd" d="M13.3018 24.9117C10.5935 24.9117 8.39014 22.7084 8.39014 20.0001C8.39014 17.2917 10.5935 15.0884 13.3018 15.0884C14.9896 15.0884 16.5391 15.9392 17.447 17.3643C17.5299 17.4944 17.4916 17.6671 17.3615 17.7499C17.2314 17.8328 17.0587 17.7945 16.9758 17.6644C16.1711 16.4012 14.7976 15.647 13.3018 15.647C10.9015 15.647 8.94875 17.5998 8.94875 20.0001C8.94875 22.4003 10.9015 24.3532 13.3018 24.3532C14.7976 24.3532 16.171 23.599 16.9759 22.3357C17.0588 22.2056 17.2314 22.1673 17.3615 22.2502C17.4917 22.3331 17.5299 22.5057 17.447 22.6358C16.5391 24.0609 14.9895 24.9117 13.3018 24.9117Z" fill="#E5EEF6"/>
<path fill-rule="evenodd" clip-rule="evenodd" d="M13.3017 26.3015C9.82707 26.3015 7.00024 23.4747 7.00024 20C7.00024 16.5253 9.82705 13.6985 13.3017 13.6985C15.2221 13.6985 17.014 14.5583 18.2177 16.0575C18.3143 16.1777 18.2951 16.3536 18.1748 16.4501C18.0545 16.5467 17.8787 16.5274 17.7821 16.4072C16.685 15.0408 15.0519 14.2571 13.3017 14.2571C10.1351 14.2571 7.55881 16.8333 7.55881 19.9999C7.55881 23.1666 10.1351 25.7428 13.3017 25.7428C15.052 25.7428 16.6851 24.9592 17.7823 23.5929C17.8789 23.4725 18.0546 23.4534 18.1749 23.55C18.2952 23.6465 18.3144 23.8223 18.2178 23.9426C17.0141 25.4417 15.2223 26.3015 13.3017 26.3015Z" fill="#004C97"/>
<path fill-rule="evenodd" clip-rule="evenodd" d="M12.3916 21.6358C12.3202 21.6358 12.2487 21.6086 12.1941 21.5541L11.3008 20.6607C11.1917 20.5517 11.1917 20.3748 11.3008 20.2657C11.4098 20.1568 11.5867 20.1568 11.6958 20.2657L12.3916 20.9616L14.9075 18.4459C15.0165 18.3368 15.1934 18.3368 15.3025 18.4459C15.4115 18.555 15.4115 18.7318 15.3025 18.8409L12.5891 21.5541C12.5346 21.6086 12.4631 21.6358 12.3916 21.6358Z" fill="white"/>
<path fill-rule="evenodd" clip-rule="evenodd" d="M20.895 22.0826C20.8235 22.0826 20.7521 22.0553 20.6975 22.0008C20.5885 21.8918 20.5885 21.715 20.6975 21.6058L22.3034 20L20.6975 18.3941C20.5885 18.2851 20.5885 18.1083 20.6975 17.9992C20.8066 17.8901 20.9834 17.8901 21.0925 17.9992L22.6984 19.6051L24.3041 17.9992C24.4133 17.8902 24.5901 17.8902 24.6992 17.9992C24.8082 18.1084 24.8082 18.2852 24.6992 18.3942L23.0934 20L24.6992 21.6057C24.8082 21.7149 24.8082 21.8917 24.6992 22.0007C24.5901 22.1097 24.4132 22.1097 24.3041 22.0007L22.6984 20.395L21.0925 22.0008C21.038 22.0553 20.9665 22.0826 20.895 22.0826Z" fill="white"/>
<path fill-rule="evenodd" clip-rule="evenodd" d="M22.6983 24.9116C19.99 24.9116 17.7866 22.7083 17.7866 20C17.7866 17.2917 19.99 15.0883 22.6983 15.0883C25.4067 15.0883 27.6101 17.2917 27.6101 20C27.6101 22.7083 25.4067 24.9116 22.6983 24.9116ZM22.6983 15.6469C20.2981 15.6469 18.3452 17.5997 18.3452 20C18.3452 22.4003 20.298 24.3531 22.6983 24.3531C25.0987 24.3531 27.0515 22.4003 27.0515 20C27.0515 17.5997 25.0987 15.6469 22.6983 15.6469Z" fill="#E5EEF6"/>
<path fill-rule="evenodd" clip-rule="evenodd" d="M22.6981 26.3015C19.2235 26.3015 16.3967 23.4746 16.3967 20C16.3967 16.5253 19.2235 13.6985 22.6981 13.6985C26.1728 13.6985 28.9997 16.5253 28.9997 20C28.9997 23.4746 26.1728 26.3015 22.6981 26.3015ZM22.6981 14.2571C19.5315 14.2571 16.9553 16.8333 16.9553 20C16.9553 23.1667 19.5315 25.7429 22.6981 25.7429C25.8648 25.7429 28.441 23.1667 28.441 20C28.4411 16.8333 25.8648 14.2571 22.6981 14.2571Z" fill="#004C97"/>
<path fill-rule="evenodd" clip-rule="evenodd" d="M17.8899 12.4501C17.7356 12.4501 17.6106 12.325 17.6106 12.1708V10.1717C17.6106 10.0175 17.7356 9.89246 17.8899 9.89246C18.0441 9.89246 18.1692 10.0175 18.1692 10.1717V12.1708C18.1692 12.325 18.0441 12.4501 17.8899 12.4501Z" fill="#003366"/>
<path fill-rule="evenodd" clip-rule="evenodd" d="M20.2631 12.6273C20.2256 12.6273 20.1874 12.6197 20.1508 12.6036C20.0096 12.5414 19.9455 12.3766 20.0076 12.2354L20.857 10.3045C20.9192 10.1633 21.0839 10.0992 21.2251 10.1613C21.3663 10.2234 21.4304 10.3882 21.3684 10.5294L20.5189 12.4604C20.4729 12.565 20.3705 12.6273 20.2631 12.6273Z" fill="#003366"/>
<path fill-rule="evenodd" clip-rule="evenodd" d="M15.5221 12.6532C15.4146 12.6532 15.3123 12.5909 15.2662 12.4863L14.4168 10.5553C14.3546 10.4142 14.4188 10.2493 14.56 10.1872C14.7012 10.1251 14.8661 10.1892 14.9281 10.3304L15.7776 12.2614C15.8397 12.4026 15.7756 12.5674 15.6344 12.6295C15.5977 12.6456 15.5596 12.6532 15.5221 12.6532Z" fill="#003366"/>
<path fill-rule="evenodd" clip-rule="evenodd" d="M18.1047 30.1076C17.9504 30.1076 17.8254 29.9826 17.8254 29.8283V27.8292C17.8254 27.675 17.9504 27.5499 18.1047 27.5499C18.259 27.5499 18.384 27.675 18.384 27.8292V29.8283C18.384 29.9826 18.259 30.1076 18.1047 30.1076Z" fill="#003366"/>
<path fill-rule="evenodd" clip-rule="evenodd" d="M21.3277 29.8624C21.2202 29.8624 21.1179 29.8001 21.0718 29.6954L20.2224 27.7645C20.1604 27.6233 20.2244 27.4584 20.3656 27.3964C20.507 27.3344 20.6716 27.3985 20.7337 27.5396L21.5832 29.4706C21.6453 29.6117 21.5812 29.7766 21.44 29.8387C21.4034 29.8548 21.3652 29.8624 21.3277 29.8624Z" fill="#003366"/>
<path fill-rule="evenodd" clip-rule="evenodd" d="M14.8872 29.8365C14.8495 29.8365 14.8114 29.8288 14.7748 29.8127C14.6337 29.7507 14.5695 29.5858 14.6316 29.4446L15.481 27.5137C15.5432 27.3725 15.708 27.3085 15.8491 27.3705C15.9903 27.4326 16.0544 27.5974 15.9923 27.7386L15.1429 29.6695C15.0969 29.7742 14.9945 29.8365 14.8872 29.8365Z" fill="#003366"/>
</g>
<defs>
<clipPath id="clip0_248_309">
<rect width="22" height="22" fill="white" transform="translate(7 9)"/>
</clipPath>
</defs>
</svg>
