<svg width="36" height="40" viewBox="0 0 36 40" fill="none" xmlns="http://www.w3.org/2000/svg">
<path d="M17.9936 40C17.1214 40 16.2605 39.7695 15.5037 39.3333L2.48991 31.8194C0.954056 30.9323 0 29.2801 0 27.5072V12.4803C0 10.7073 0.954056 9.05466 2.48991 8.16753L15.5037 0.654519C17.0164 -0.218173 18.9713 -0.218173 20.4831 0.654519L33.4969 8.16797C35.0328 9.05466 35.9868 10.7069 35.9868 12.4803V27.5072C35.9868 29.2801 35.0328 30.9323 33.4978 31.8194L20.4835 39.3329C19.7272 39.769 18.8663 40 17.9936 40ZM17.9936 0.367996C17.1879 0.367996 16.3926 0.581025 15.694 0.983906L2.68019 8.49737C1.26201 9.31625 0.381011 10.8425 0.381011 12.4798V27.5067C0.381011 29.1441 1.26201 30.6703 2.68019 31.4887L15.694 39.0026C17.0912 39.8093 18.8965 39.8084 20.2924 39.0022L33.3066 31.4887C34.7248 30.6699 35.6054 29.1436 35.6054 27.5067V12.4798C35.6054 10.842 34.7244 9.31581 33.3058 8.4978L20.2919 0.983906C19.5947 0.581025 18.7998 0.367996 17.9936 0.367996Z" fill="white"/>
<path d="M1.71338 12.2196V27.7675C1.71338 28.7731 2.25012 29.7027 3.12106 30.2053L16.5859 37.9795C17.4568 38.4825 18.5299 38.4825 19.4008 37.9795L32.8656 30.2053C33.7366 29.7023 34.2733 28.7731 34.2733 27.7675V12.2196C34.2733 11.2139 33.7366 10.2848 32.8656 9.78171L19.4008 2.00754C18.5299 1.50449 17.4568 1.50449 16.5859 2.00754L3.12106 9.78171C2.25012 10.2848 1.71338 11.2139 1.71338 12.2196Z" fill="white"/>
<g clip-path="url(#clip0_248_12594)">
<path d="M24.5313 19.9999C24.0729 19.9999 24.0729 20.6875 24.5313 20.6875H25.2188C25.6772 20.6875 25.6772 19.9999 25.2188 19.9999H24.5313Z" fill="#004C97"/>
<path d="M8.71801 16.5623C8.50781 17.3048 7.9947 17.8827 7.34375 18.11C7.99499 18.3365 8.50872 18.9138 8.71963 19.6562C8.92983 18.9136 9.44293 18.3357 10.0939 18.1084C9.44264 17.882 8.92892 17.3047 8.71801 16.5623Z" fill="#E5EEF6"/>
<path d="M8.6956 26.8525C8.43625 27.848 7.80316 28.6226 7 28.9273C7.80352 29.2309 8.43737 30.0047 8.6976 30.9999C8.95695 30.0045 9.59004 29.2298 10.3932 28.9251C9.58968 28.6216 8.95583 27.8477 8.6956 26.8525Z" fill="#004C97"/>
<path d="M27.3023 26.8527C27.0429 27.8481 26.4098 28.6228 25.6067 28.9274C26.4102 29.231 27.0441 30.0049 27.3043 31C27.5636 30.0046 28.1967 29.23 28.9999 28.9253C28.1964 28.6217 27.5625 27.8478 27.3023 26.8527Z" fill="#004C97"/>
<path d="M28.0257 28.2349C27.6736 28.9447 27.1575 29.4228 26.6826 29.7349C26.9663 30.0901 27.1792 30.5234 27.3041 30.9999C27.5636 30.0046 28.1968 29.2301 28.9999 28.9256C28.6384 28.7876 28.3057 28.5517 28.0257 28.2349Z" fill="#003366"/>
<path d="M27.2805 16.5623C27.0703 17.3048 26.5572 17.8827 25.9062 18.11C26.5575 18.3365 27.0712 18.9138 27.2821 19.6562C27.4923 18.9136 28.0054 18.3357 28.6564 18.1084C28.0051 17.882 27.4914 17.3047 27.2805 16.5623Z" fill="#E5EEF6"/>
<path d="M8.20249 9C8.01856 9.66008 7.56959 10.1738 7 10.3758C7.56984 10.5771 8.01936 11.0903 8.20391 11.7502C8.38784 11.0901 8.83681 10.5764 9.40639 10.3744C8.83655 10.1731 8.38704 9.65991 8.20249 9Z" fill="#004C97"/>
<path d="M27.796 8.99994C27.6121 9.66002 27.1631 10.1737 26.5935 10.3758C27.1633 10.577 27.6129 11.0902 27.7974 11.7501C27.9813 11.0901 28.4303 10.5764 28.9999 10.3743C28.4301 10.173 27.9805 9.65985 27.796 8.99994Z" fill="#004C97"/>
<path d="M19.0312 28.9374V29.6249C19.0312 30.0058 18.7246 30.3124 18.3438 30.3124H17.6563C17.2754 30.3124 16.9688 30.0058 16.9688 29.6249V28.9374H19.0312Z" fill="#E5EEF6"/>
<path d="M19.0312 29.161C18.5355 29.6412 17.6656 29.8336 17.0325 29.9116C17.141 30.148 17.3782 30.3124 17.6562 30.3124H18.3437C18.7246 30.3124 19.0312 30.0058 19.0312 29.6249V29.161Z" fill="#99B9D8"/>
<path d="M20.0625 26.5312V28.5937C20.0625 28.9746 19.7559 29.2812 19.375 29.2812H16.625C16.2441 29.2812 15.9375 28.9746 15.9375 28.5937V26.5312H20.0625Z" fill="#E5EEF6"/>
<path d="M20.21 26.3139C20.21 24.7604 23.1564 23.5589 23.1564 20.3034C23.1564 17.478 21.0938 15.1875 18.0001 15.1875C14.9063 15.1875 12.8438 17.478 12.8438 20.3034C12.8438 23.5589 15.7902 24.7604 15.7902 26.3139H20.21Z" fill="#004C97"/>
<path d="M21.1414 16.1744C23.5037 22.6425 18.2678 25.2781 15.5527 25.5288C15.6978 25.7882 15.7904 26.0457 15.7904 26.3137H20.2095C20.2095 24.7602 23.1562 23.559 23.1562 20.3034C23.1562 18.6055 22.4073 17.1049 21.1414 16.1744Z" fill="#003366"/>
<path d="M13.395 17.9005C13.9096 18.5602 14.4834 19.2382 15.1144 19.92C17.0072 21.9656 19.0882 23.7251 20.899 24.8735C20.7451 25.0636 20.6092 25.2477 20.4976 25.4301C18.6236 24.237 16.5142 22.4462 14.6102 20.3887C14.0654 19.8 13.5614 19.2134 13.0989 18.637C13.1804 18.3823 13.277 18.1352 13.395 17.9005Z" fill="#003366"/>
<path d="M18.0001 16.2192C17.1556 16.2192 16.3301 16.4768 15.6376 16.9601C15.2603 17.224 15.6562 17.7899 16.0335 17.526C16.6106 17.1232 17.2963 16.9068 18.0001 16.9068C18.4585 16.9068 18.4585 16.2192 18.0001 16.2192Z" fill="#003366"/>
<path d="M15.25 18.2812C15.25 18.471 15.0961 18.6249 14.9063 18.6249C14.7164 18.6249 14.5625 18.471 14.5625 18.2812C14.5625 18.0913 14.7164 17.9374 14.9063 17.9374C15.0961 17.9374 15.25 18.0913 15.25 18.2812Z" fill="#003366"/>
<path d="M17.9951 12.7758C17.8042 12.7778 17.6515 12.9351 17.6551 13.126V13.8136C17.6551 14.2721 18.3428 14.2721 18.3428 13.8136V13.126C18.3464 12.9321 18.189 12.7736 17.9951 12.7758Z" fill="#004C97"/>
<path d="M23.0981 14.8921C23.0089 14.8948 22.9243 14.9321 22.8621 14.9961L22.3749 15.4833C22.0306 15.808 22.5392 16.3139 22.8621 15.968L23.3468 15.4833C23.5732 15.2652 23.4123 14.8828 23.0981 14.8921Z" fill="#004C97"/>
<path d="M12.8922 14.8921C12.583 14.8922 12.4311 15.2687 12.6537 15.4833L13.1383 15.968C13.4612 16.314 13.9698 15.808 13.6256 15.4833L13.1383 14.9961C13.0737 14.9297 12.9849 14.8922 12.8922 14.8921Z" fill="#004C97"/>
<path d="M22.9153 24.6565L23.4558 25.0828C23.8162 25.367 24.2425 24.8265 23.8821 24.5423L23.3416 24.116C23.2785 24.0651 23.1994 24.0381 23.1183 24.0399C22.7929 24.0456 22.6569 24.4585 22.9153 24.6565Z" fill="#004C97"/>
<path d="M12.8694 24.0399C12.7927 24.041 12.7185 24.0678 12.6588 24.116L12.1183 24.5423C11.758 24.8265 12.1843 25.367 12.5446 25.0828L13.0826 24.6565C13.345 24.4554 13.2 24.036 12.8694 24.0399Z" fill="#004C97"/>
<path d="M9.42026 28.2348C9.06812 28.9446 8.55202 29.4226 8.07715 29.7348C8.36086 30.09 8.57373 30.5233 8.69863 30.9998C8.95813 30.0045 9.5913 29.23 10.3945 28.9255C10.0329 28.7874 9.70027 28.5516 9.42026 28.2348Z" fill="#003366"/>
<path d="M15.9375 26.5312V27.2187H20.0625V26.5312H15.9375Z" fill="#99B9D8"/>
<path d="M15.9374 26.1873C15.4786 26.1869 15.4786 26.8745 15.9374 26.8749H20.0624C20.5212 26.8753 20.5212 26.1877 20.0624 26.1873H15.9374Z" fill="#E5EEF6"/>
<path d="M15.9375 27.9062V28.5937H20.0625V27.9062H15.9375Z" fill="#99B9D8"/>
<path d="M15.9374 27.5624C15.4786 27.562 15.4786 28.2496 15.9374 28.25H20.0624C20.5212 28.2504 20.5212 27.5628 20.0624 27.5624H15.9374Z" fill="#E5EEF6"/>
<path d="M22.5998 17.9005C22.0851 18.5602 21.5114 19.2382 20.8804 19.92C18.9875 21.9656 16.9065 23.7251 15.0957 24.8735C15.2496 25.0636 15.3856 25.2477 15.4972 25.4301C17.3711 24.237 19.4806 22.4462 21.3846 20.3887C21.9293 19.8 22.4334 19.2134 22.8959 18.637C22.8144 18.3823 22.7177 18.1352 22.5998 17.9005Z" fill="#003366"/>
<path d="M10.7053 11.1441C10.2474 11.2855 9.93431 11.6258 9.81529 12.0843C9.57725 13.0014 10.0804 14.3448 10.8093 15.6407C11.6163 17.0752 12.848 18.725 14.3872 20.3884C17.4655 23.7151 21.0829 26.3499 23.3694 26.8766C23.9596 27.0125 24.4743 27.0097 24.8695 26.8371C25.3069 26.646 25.5516 26.2722 25.6321 25.8197C25.7869 24.9483 25.3793 23.71 24.4873 22.1809C24.2588 21.776 23.6535 22.1289 23.8934 22.5272C24.7483 23.9926 25.0646 25.0864 24.9556 25.6995C24.9053 25.9825 24.7701 26.1317 24.5932 26.2055C24.3848 26.2965 24.0284 26.3217 23.5237 26.2055C21.408 25.7181 17.91 23.1822 14.8914 19.9201C13.382 18.289 12.1793 16.6732 11.4086 15.3033C10.6219 13.9048 10.3416 12.7953 10.481 12.2584C10.5507 11.9899 10.7082 11.8607 10.908 11.7991C11.1498 11.7244 11.5403 11.7331 12.042 11.8672C13.0455 12.1356 14.466 12.8876 16.081 14.0868C16.4511 14.3817 16.88 13.8067 16.4919 13.5359C14.8341 12.305 13.3739 11.5115 12.2214 11.2033C11.6452 11.0492 11.1382 11.0105 10.7053 11.1441Z" fill="#E5EEF6"/>
<path d="M17.8851 22.7922C17.705 22.9451 17.5257 23.0931 17.3467 23.238C17.526 23.3912 17.7051 23.5392 17.8838 23.6852C18.0632 23.5387 18.2429 23.3924 18.4229 23.2387C18.2444 23.0941 18.0648 22.9446 17.8851 22.7922Z" fill="#99B9D8"/>
<path d="M24.7146 11.1441C25.1724 11.2855 25.4855 11.6258 25.6046 12.0843C25.8426 13.0014 25.3395 14.3448 24.6105 15.6407C23.8035 17.0752 22.5719 18.725 21.0327 20.3884C17.9543 23.7151 14.3369 26.3499 12.0504 26.8766C11.4603 27.0125 10.9455 27.0097 10.5504 26.8371C10.113 26.646 9.86822 26.2722 9.78781 25.8197C9.63293 24.9483 10.0405 23.71 10.9326 22.1809C11.161 21.776 11.7663 22.1289 11.5265 22.5272C10.6716 23.9926 10.3553 25.0864 10.4643 25.6995C10.5146 25.9825 10.6498 26.1317 10.8267 26.2055C11.035 26.2965 11.3915 26.3217 11.8961 26.2055C14.0119 25.7181 17.5099 23.1822 20.5285 19.9201C22.0378 18.289 23.2406 16.6732 24.0112 15.3033C24.7979 13.9048 25.0783 12.7953 24.9389 12.2584C24.8692 11.9899 24.7117 11.8607 24.5118 11.7991C24.27 11.7244 23.8796 11.7331 23.3778 11.8672C22.3744 12.1356 20.9539 12.8876 19.3389 14.0868C18.9688 14.3817 18.5398 13.8067 18.928 13.5359C20.5858 12.305 22.0459 11.5115 23.1984 11.2033C23.7747 11.0492 24.2817 11.0105 24.7146 11.1441Z" fill="#E5EEF6"/>
<path d="M10.7813 19.9999C10.3229 19.9999 10.3229 20.6875 10.7813 20.6875H11.4687C11.9272 20.6875 11.9272 19.9999 11.4687 19.9999H10.7813Z" fill="#004C97"/>
<path d="M27.9217 17.6521C27.6493 18.1654 27.1907 18.5117 26.7944 18.731C27.0164 18.9926 27.1831 19.3091 27.2819 19.6562C27.4921 18.9137 28.0053 18.3359 28.6562 18.1086C28.387 18.015 28.1371 17.8596 27.9217 17.6521Z" fill="#99B9D8"/>
<path d="M9.35919 17.6521C9.08675 18.1654 8.62823 18.5117 8.23193 18.731C8.45387 18.9926 8.62061 19.3091 8.71936 19.6562C8.92963 18.9137 9.44276 18.3359 10.0937 18.1086C9.8245 18.015 9.57464 17.8596 9.35919 17.6521Z" fill="#99B9D8"/>
<path d="M8.7074 9.90765C8.46573 10.4119 8.06848 10.6989 7.71509 10.859C7.93984 11.1032 8.10798 11.4097 8.20386 11.7499C8.38781 11.0899 8.83677 10.5763 9.40631 10.3743C9.1464 10.2815 8.90759 10.122 8.7074 9.90765Z" fill="#003366"/>
<path d="M28.3011 9.90765C28.0595 10.4119 27.6622 10.6989 27.3088 10.859C27.5336 11.1032 27.7017 11.4097 27.7976 11.7499C27.9816 11.0899 28.4305 10.5763 29.0001 10.3743C28.7401 10.2815 28.5013 10.122 28.3011 9.90765Z" fill="#003366"/>
</g>
<defs>
<clipPath id="clip0_248_12594">
<rect width="22" height="22" fill="white" transform="translate(7 9)"/>
</clipPath>
</defs>
</svg>
