<svg width="36" height="40" viewBox="0 0 36 40" fill="none" xmlns="http://www.w3.org/2000/svg">
<path d="M17.9936 40C17.1214 40 16.2605 39.7695 15.5037 39.3333L2.48991 31.8194C0.954056 30.9323 0 29.2801 0 27.5072V12.4803C0 10.7073 0.954056 9.05466 2.48991 8.16753L15.5037 0.654519C17.0164 -0.218173 18.9713 -0.218173 20.4831 0.654519L33.4969 8.16797C35.0328 9.05466 35.9868 10.7069 35.9868 12.4803V27.5072C35.9868 29.2801 35.0328 30.9323 33.4978 31.8194L20.4835 39.3329C19.7272 39.769 18.8663 40 17.9936 40ZM17.9936 0.367996C17.1879 0.367996 16.3926 0.581025 15.694 0.983906L2.68019 8.49737C1.26201 9.31625 0.381011 10.8425 0.381011 12.4798V27.5067C0.381011 29.1441 1.26201 30.6703 2.68019 31.4887L15.694 39.0026C17.0912 39.8093 18.8965 39.8084 20.2924 39.0022L33.3066 31.4887C34.7248 30.6699 35.6054 29.1436 35.6054 27.5067V12.4798C35.6054 10.842 34.7244 9.31581 33.3058 8.4978L20.2919 0.983906C19.5947 0.581025 18.7998 0.367996 17.9936 0.367996Z" fill="white"/>
<path d="M1.71338 12.2196V27.7675C1.71338 28.7731 2.25012 29.7027 3.12106 30.2053L16.5859 37.9795C17.4568 38.4825 18.5299 38.4825 19.4008 37.9795L32.8656 30.2053C33.7366 29.7023 34.2733 28.7731 34.2733 27.7675V12.2196C34.2733 11.2139 33.7366 10.2848 32.8656 9.78171L19.4008 2.00754C18.5299 1.50449 17.4568 1.50449 16.5859 2.00754L3.12106 9.78171C2.25012 10.2848 1.71338 11.2139 1.71338 12.2196Z" fill="white"/>
<path fill-rule="evenodd" clip-rule="evenodd" d="M16.1794 20.3419V14.7947H14.6943C14.5768 14.7947 14.4747 14.7297 14.4221 14.6214C14.3695 14.5193 14.388 14.3956 14.4623 14.3059L17.7727 10.1756C17.8283 10.1045 17.915 10.0643 18.0078 10.0643C18.1037 10.0643 18.1841 10.1076 18.246 10.1756L21.5564 14.3059C21.6306 14.3956 21.643 14.5193 21.5966 14.6214C21.544 14.7266 21.4419 14.7947 21.3243 14.7947H19.8393V20.3388L19.8331 20.3419L19.5918 20.5306L19.5516 20.2243C19.499 19.785 19.1247 19.457 18.6822 19.457H17.3302C16.8878 19.457 16.5166 19.785 16.4609 20.2243L16.4238 20.5306L16.1794 20.3419Z" fill="#003366"/>
<path fill-rule="evenodd" clip-rule="evenodd" d="M18.0047 22.8354C17.1663 22.8354 16.4888 23.5192 16.4888 24.3514C16.4888 25.1898 17.1725 25.8705 18.0047 25.8705C18.837 25.8705 19.5207 25.1898 19.5207 24.3514C19.5207 23.5192 18.8431 22.8354 18.0047 22.8354Z" fill="#99B9D8"/>
<path fill-rule="evenodd" clip-rule="evenodd" d="M18.6821 28.6766H17.3301C17.1785 28.6766 17.0517 28.5652 17.0331 28.4136L16.8908 27.2844C16.8351 27.2627 16.7856 27.241 16.7299 27.2163L15.8265 27.9124C15.7059 28.0052 15.5388 27.9928 15.4305 27.8876L14.4776 26.9286C14.3694 26.8203 14.3632 26.6532 14.4529 26.5326L15.149 25.6354C15.1211 25.5797 15.0995 25.524 15.0778 25.4714L13.9486 25.3291C13.8001 25.3136 13.6887 25.1837 13.6887 25.0352V23.6801C13.6887 23.5316 13.8001 23.4016 13.9486 23.3862L15.0778 23.2377C15.0995 23.182 15.1211 23.1325 15.149 23.0768L14.4529 22.1734C14.3632 22.0527 14.3694 21.8857 14.4776 21.7774L15.4305 20.8245C15.5388 20.7162 15.7059 20.71 15.8265 20.7998L16.7299 21.4959C16.7794 21.4742 16.8351 21.4464 16.8908 21.4247L17.0331 20.2955C17.0517 20.147 17.1785 20.0356 17.3301 20.0356H18.6821C18.8337 20.0356 18.9636 20.147 18.9791 20.2955L19.1214 21.4247C19.1771 21.4464 19.2328 21.468 19.2854 21.4959L20.1857 20.7998C20.3064 20.7038 20.4734 20.7162 20.5817 20.8245L21.5346 21.7774C21.6429 21.8857 21.6522 22.0527 21.5593 22.1734L20.8663 23.0768C20.8911 23.1325 20.9127 23.182 20.9344 23.2377L22.0636 23.3862C22.2152 23.4078 22.3266 23.5316 22.3266 23.6801V25.0352C22.3266 25.1837 22.2152 25.3136 22.0636 25.3291L20.9344 25.4714C20.9127 25.5271 20.8911 25.5797 20.8663 25.6354L21.5593 26.5326C21.6522 26.6532 21.6429 26.8203 21.5346 26.9286L20.5817 27.8907C20.4734 27.999 20.3064 28.0114 20.1857 27.9155L19.2854 27.2194C19.2297 27.2472 19.1771 27.2689 19.1214 27.2905L18.9791 28.4198C18.9636 28.5652 18.8337 28.6766 18.6821 28.6766ZM18.0046 26.4769C16.8351 26.4769 15.8853 25.524 15.8853 24.3545C15.8853 23.1882 16.8351 22.2384 18.0046 22.2384C19.174 22.2384 20.1207 23.1882 20.1207 24.3545C20.1207 25.524 19.174 26.4769 18.0046 26.4769Z" fill="#004C97"/>
<path fill-rule="evenodd" clip-rule="evenodd" d="M9.50914 21.6072V16.0569H8.01792C7.90345 16.0569 7.79827 15.992 7.74876 15.8868C7.69617 15.7816 7.71164 15.6578 7.7828 15.5681L11.0932 11.4348C11.1488 11.3636 11.2355 11.3234 11.3283 11.3234C11.4242 11.3234 11.5046 11.3667 11.5665 11.4348L14.8769 15.5681C14.9511 15.6578 14.9635 15.7816 14.9109 15.8868C14.8614 15.9889 14.7562 16.0569 14.6417 16.0569H13.1598V21.5979L12.9154 21.7867L12.8783 21.4835C12.8226 21.0441 12.4513 20.7162 12.0089 20.7162H10.6538C10.2145 20.7162 9.84327 21.0441 9.78758 21.4804L9.74736 21.7897L9.50914 21.6072Z" fill="#003366"/>
<path fill-rule="evenodd" clip-rule="evenodd" d="M11.3282 24.0947C10.4929 24.0947 9.81226 24.7753 9.81226 25.6106C9.81226 26.446 10.496 27.1297 11.3282 27.1297C12.1666 27.1297 12.8504 26.446 12.8504 25.6106C12.8504 24.7753 12.1666 24.0947 11.3282 24.0947Z" fill="#99B9D8"/>
<path fill-rule="evenodd" clip-rule="evenodd" d="M12.0089 29.9358H10.6538C10.5053 29.9358 10.3753 29.8244 10.3599 29.6728L10.2114 28.5436C10.1557 28.5219 10.1 28.5002 10.0505 28.4755L9.14709 29.1716C9.02643 29.2644 8.85937 29.252 8.75109 29.1437L7.7982 28.1909C7.69301 28.0826 7.68373 27.9155 7.77345 27.7949L8.46955 26.8946C8.44171 26.842 8.42314 26.7863 8.40149 26.7306L7.26916 26.5852C7.12065 26.5635 7.00928 26.4398 7.00928 26.2882V24.9393C7.00928 24.7908 7.12065 24.6608 7.26916 24.6423L8.40149 24.4969C8.42314 24.4412 8.44171 24.3855 8.46955 24.3329L7.77345 23.4326C7.67754 23.3119 7.69301 23.1449 7.7982 23.0366L8.75109 22.0837C8.85937 21.9754 9.02643 21.9661 9.14709 22.0589L10.0505 22.752C10.1 22.7272 10.1557 22.7056 10.2114 22.6839L10.3599 21.5547C10.3815 21.4062 10.5053 21.2917 10.6538 21.2917H12.0089C12.1574 21.2917 12.2873 21.4062 12.3059 21.5547L12.4451 22.6808C12.5008 22.7025 12.5596 22.7241 12.6152 22.7489L13.5155 22.0528C13.6022 21.9847 13.7166 21.9723 13.8125 22.0125C13.8187 22.1951 13.8775 22.3745 13.9951 22.5261L14.1838 22.7736L13.8744 22.8107C13.4382 22.8695 13.1102 23.2408 13.1102 23.6801V24.4628C12.7328 23.8812 12.0738 23.4976 11.3282 23.4976C10.1619 23.4976 9.21206 24.4443 9.21206 25.6137C9.21206 26.7832 10.1619 27.7361 11.3282 27.7361C12.4636 27.7361 13.3918 26.842 13.4475 25.7251C13.5681 25.821 13.7166 25.8829 13.8775 25.9045L14.1807 25.9417L13.9951 26.1799C13.7259 26.5295 13.7569 27.0245 14.0693 27.337L14.8892 28.1599C14.8799 28.1723 14.8706 28.1847 14.8613 28.197L13.9115 29.1499C13.8033 29.2551 13.6362 29.2644 13.5155 29.1747L12.6152 28.4786C12.5596 28.5033 12.507 28.525 12.4451 28.5466L12.3059 29.6728C12.2873 29.8244 12.1574 29.9358 12.0089 29.9358Z" fill="#004C97"/>
<path fill-rule="evenodd" clip-rule="evenodd" d="M22.8527 21.6103V16.0569H21.3708C21.2563 16.0569 21.1542 15.992 21.1016 15.8868C21.049 15.7816 21.0676 15.6578 21.1357 15.5681L24.446 11.4348C24.5048 11.3636 24.5884 11.3234 24.6843 11.3234C24.7771 11.3234 24.8606 11.3667 24.9194 11.4348L28.2328 15.5681C28.304 15.6578 28.3164 15.7816 28.2669 15.8868C28.2143 15.9889 28.1122 16.0569 27.9946 16.0569H26.5096V21.5948C26.5065 21.5948 26.5034 21.5979 26.5003 21.601L26.2528 21.7897L26.2157 21.4804C26.1569 21.0441 25.7857 20.7162 25.3463 20.7162H23.9912C23.5519 20.7162 23.1776 21.0441 23.1219 21.4835L23.0848 21.7867L22.8527 21.6103Z" fill="#003366"/>
<path fill-rule="evenodd" clip-rule="evenodd" d="M24.678 24.0947C23.8427 24.0947 23.1589 24.7753 23.1589 25.6106C23.1589 26.446 23.8427 27.1297 24.678 27.1297C25.5164 27.1297 26.197 26.446 26.197 25.6106C26.197 24.7753 25.5164 24.0947 24.678 24.0947Z" fill="#99B9D8"/>
<path fill-rule="evenodd" clip-rule="evenodd" d="M25.3524 29.9358H24.0004C23.8488 29.9358 23.7219 29.8244 23.7034 29.6728L23.561 28.5466C23.5054 28.525 23.4497 28.5033 23.394 28.4786L22.4937 29.1747C22.373 29.2706 22.206 29.2551 22.0977 29.1499L21.1386 28.197C21.1324 28.1878 21.1231 28.1785 21.1169 28.1692L21.9461 27.3339C22.2555 27.0214 22.2864 26.5295 22.0172 26.1799L21.8316 25.9417L22.1348 25.9045C22.2957 25.8829 22.4411 25.821 22.5617 25.7282C22.6205 26.8451 23.5487 27.7361 24.6779 27.7361C25.8474 27.7361 26.7972 26.7832 26.7972 25.6137C26.7972 24.4443 25.8474 23.4976 24.6779 23.4976C23.9385 23.4976 23.2826 23.8781 22.9021 24.4566V23.6801C22.9021 23.2408 22.5741 22.8695 22.1379 22.8107L21.8285 22.7736L22.0172 22.5261C22.1379 22.3714 22.1967 22.192 22.1998 22.0094C22.2926 21.9754 22.4009 21.9909 22.4844 22.0528L23.3878 22.7489C23.4435 22.7241 23.493 22.7025 23.5549 22.6808L23.6941 21.5547C23.7126 21.4062 23.8426 21.2917 23.9911 21.2917H25.3462C25.4947 21.2917 25.6246 21.4062 25.6401 21.5547L25.7886 22.6839C25.8443 22.7056 25.9 22.7272 25.9495 22.752L26.8528 22.0589C26.9735 21.963 27.1406 21.9754 27.2489 22.0837L28.2017 23.0366C28.31 23.1449 28.3162 23.3119 28.2265 23.4326L27.5304 24.3329C27.5582 24.3855 27.5799 24.4412 27.6015 24.4969L28.7308 24.6423C28.8793 24.6639 28.9907 24.7908 28.9907 24.9393V26.2913C28.9907 26.4429 28.8793 26.5728 28.7308 26.5883L27.6015 26.7337C27.5799 26.7925 27.5582 26.8481 27.5304 26.8976L28.2265 27.801C28.3224 27.9217 28.31 28.0888 28.2017 28.197L27.255 29.1499C27.1498 29.2551 26.9828 29.2644 26.8621 29.1747L25.9587 28.4786C25.9092 28.5033 25.8505 28.525 25.7948 28.5466L25.6494 29.679C25.6339 29.8244 25.5039 29.9358 25.3524 29.9358Z" fill="#004C97"/>
</svg>
