<svg width="36" height="40" viewBox="0 0 36 40" fill="none" xmlns="http://www.w3.org/2000/svg">
<path d="M17.9936 40C17.1214 40 16.2605 39.7695 15.5037 39.3333L2.48991 31.8194C0.954056 30.9323 0 29.2801 0 27.5072V12.4803C0 10.7073 0.954056 9.05466 2.48991 8.16753L15.5037 0.654519C17.0164 -0.218173 18.9713 -0.218173 20.4831 0.654519L33.4969 8.16797C35.0328 9.05466 35.9868 10.7069 35.9868 12.4803V27.5072C35.9868 29.2801 35.0328 30.9323 33.4978 31.8194L20.4835 39.3329C19.7272 39.769 18.8663 40 17.9936 40ZM17.9936 0.367996C17.1879 0.367996 16.3926 0.581025 15.694 0.983906L2.68019 8.49737C1.26201 9.31625 0.381011 10.8425 0.381011 12.4798V27.5067C0.381011 29.1441 1.26201 30.6703 2.68019 31.4887L15.694 39.0026C17.0912 39.8093 18.8965 39.8084 20.2924 39.0022L33.3066 31.4887C34.7248 30.6699 35.6054 29.1436 35.6054 27.5067V12.4798C35.6054 10.842 34.7244 9.31581 33.3058 8.4978L20.2919 0.983906C19.5947 0.581025 18.7998 0.367996 17.9936 0.367996Z" fill="white"/>
<path d="M1.71338 12.2196V27.7675C1.71338 28.7731 2.25012 29.7027 3.12106 30.2053L16.5859 37.9795C17.4568 38.4825 18.5299 38.4825 19.4008 37.9795L32.8656 30.2053C33.7366 29.7023 34.2733 28.7731 34.2733 27.7675V12.2196C34.2733 11.2139 33.7366 10.2848 32.8656 9.78171L19.4008 2.00754C18.5299 1.50449 17.4568 1.50449 16.5859 2.00754L3.12106 9.78171C2.25012 10.2848 1.71338 11.2139 1.71338 12.2196Z" fill="white"/>
<path fill-rule="evenodd" clip-rule="evenodd" d="M12.4482 22.5346L12.9298 22.053C12.9858 21.9694 13.0159 21.8708 13.0125 21.7747C13.0079 21.6655 12.9625 21.5699 12.8851 21.5016C12.8714 21.4926 12.8624 21.4789 12.8487 21.4652C12.7805 21.388 12.6849 21.3424 12.5757 21.3378H12.5574C12.4346 21.3378 12.3117 21.3925 12.2207 21.4834L11.8112 21.893C11.7156 21.9885 11.661 22.1205 11.6656 22.2479C11.6701 22.3571 11.7156 22.4527 11.793 22.521C11.7976 22.5255 11.8067 22.53 11.8112 22.5392C11.9068 22.6347 12.0387 22.6893 12.1661 22.6847C12.25 22.6813 12.3258 22.6535 12.3875 22.6059C12.401 22.5879 12.4152 22.5701 12.43 22.5528C12.4345 22.5482 12.4391 22.5392 12.4482 22.5346ZM13.6137 23.6435L14.8549 22.3656C14.8676 22.3447 14.8829 22.325 14.9008 22.3071C15.0511 22.1569 15.0464 21.8475 14.8917 21.6564C14.8008 21.5699 14.6824 21.5199 14.5551 21.5199C14.4276 21.5199 14.3048 21.5699 14.2092 21.6655L13.4127 22.4619C13.3821 22.5016 13.3488 22.5396 13.3128 22.5756C13.2938 22.5946 13.273 22.6105 13.2511 22.6236L12.9546 22.9201C12.9452 22.9364 12.9341 22.9521 12.9215 22.967C12.9007 22.9913 12.879 23.0145 12.8563 23.0364C12.7401 23.2297 12.75 23.4916 12.8896 23.6722C13.0898 23.8269 13.3993 23.8224 13.5949 23.6585L13.6137 23.6435ZM14.6824 24.7643L16.2295 23.2172C16.4207 23.0261 16.4207 22.7303 16.2386 22.5392C16.043 22.3799 15.7381 22.3754 15.5879 22.5255L14.0408 24.1181C14.0367 24.1262 14.0291 24.1306 14.0211 24.1347L14.009 24.1454L14.0016 24.1517C13.9343 24.2186 13.8949 24.3081 13.8906 24.4093C13.886 24.5368 13.9407 24.6641 14.0362 24.7643C14.0408 24.7689 14.0453 24.7779 14.0545 24.7825C14.1227 24.8599 14.2182 24.9053 14.3274 24.9099C14.4548 24.9145 14.5822 24.8599 14.6824 24.7643ZM16.9714 24.523C16.9759 24.3957 16.9213 24.2683 16.8258 24.1681C16.6301 23.9725 16.3799 23.9725 16.1842 24.1681C16.1689 24.1834 16.1524 24.1968 16.1349 24.2082L15.1621 25.181C15.1533 25.1928 15.1436 25.2041 15.1329 25.2148C15.0374 25.3103 14.9827 25.4423 14.9873 25.5697C14.9919 25.6789 15.0374 25.7744 15.1147 25.8427C15.1193 25.8473 15.1284 25.8518 15.133 25.861C15.2285 25.9565 15.3605 26.0111 15.4879 26.0066C15.5971 26.002 15.6927 25.9565 15.7609 25.8791C15.7655 25.8746 15.77 25.8655 15.7792 25.8609L16.8257 24.8143C16.8303 24.8097 16.8394 24.8052 16.8439 24.7961C16.9213 24.7279 16.9668 24.6323 16.9714 24.523ZM23.6056 14.6079L25.9392 20.2851C25.9516 20.301 25.9626 20.3182 25.9718 20.3367C25.9906 20.3721 26.0016 20.4095 26.0058 20.4472L26.3177 21.2058L28.9068 20.132L26.0674 13.6114L23.6056 14.6079ZM27.4507 19.1219C27.3733 18.9626 27.437 18.7715 27.5918 18.6941C27.751 18.6167 27.9421 18.6805 28.0195 18.8352L28.338 19.4722C28.4154 19.6314 28.3516 19.8226 28.197 19.8999C28.1514 19.9272 28.1059 19.9364 28.0559 19.9364C27.9376 19.9364 27.8284 19.8727 27.7692 19.7589L27.4507 19.1219ZM18.6548 16.8829C20.0609 17.6565 21.4942 18.3937 22.8775 19.1081C22.8775 19.1081 22.8821 19.1081 22.8821 19.1127C23.242 19.3071 23.8654 19.9305 24.5983 20.6921L25.2725 20.3415L23.4469 15.9039C22.2564 16.5966 22.0914 16.6046 21.9265 16.5645C21.9038 16.5599 21.881 16.5508 21.8628 16.5417C21.7354 16.478 19.897 15.6681 18.6913 15.1356H18.6867C18.6275 15.1129 18.1088 14.9536 17.2397 15.6408C16.9258 15.891 16.6664 16.1504 16.5436 16.3279L15.9156 17.4973C15.7837 17.7339 15.7745 17.9387 15.8837 18.1116C16.0156 18.3209 16.3023 18.4529 16.5845 18.4392C16.7437 18.4302 16.9621 18.3664 17.0805 18.1207C17.1305 18.0206 17.1669 17.9296 17.2033 17.8567C17.4536 17.3061 17.5128 17.2515 18.0724 17.0058C18.1543 16.9695 18.2545 16.9285 18.3728 16.8738C18.4637 16.8329 18.5684 16.8375 18.6548 16.8829ZM10.4825 13.8206L7.10156 20.1229L9.58149 21.4198L9.86615 20.8683C9.873 20.8389 9.88427 20.8101 9.90005 20.7827C9.91117 20.7628 9.92406 20.7446 9.93842 20.7283L12.8396 15.1084L10.4825 13.8206ZM8.5167 18.8488C8.66687 18.9398 8.71234 19.1355 8.62134 19.2856L8.25731 19.8772C8.19818 19.9727 8.09354 20.0273 7.98884 20.0273C7.92971 20.0273 7.87511 20.0136 7.82045 19.9818C7.67033 19.8908 7.6248 19.6952 7.7158 19.545L8.07983 18.9535C8.17088 18.8033 8.36652 18.7577 8.5167 18.8488Z" fill="#003366"/>
<path fill-rule="evenodd" clip-rule="evenodd" d="M16.6755 22.0795C17.0528 22.4568 17.1108 23.0133 16.8497 23.4458C17.0031 23.4996 17.1488 23.5902 17.2763 23.7177C17.4993 23.9406 17.6175 24.241 17.6085 24.5458C17.6034 24.7031 17.563 24.8518 17.492 24.9849L17.499 24.9918L18.7731 26.2659C18.9142 26.407 19.1008 26.4843 19.2873 26.4797C19.4557 26.4752 19.6103 26.4024 19.7196 26.2795L19.7332 26.2659C19.8743 26.1248 19.9517 25.9382 19.9471 25.7517C19.9425 25.5833 19.8697 25.4286 19.7468 25.3194C19.7245 25.2994 19.7057 25.2769 19.6904 25.2529L18.4501 23.9862C18.3272 23.8588 18.3272 23.6585 18.4546 23.5357C18.5821 23.4128 18.7822 23.4128 18.9051 23.5403L21.0347 25.7154C21.3214 25.9611 21.7582 25.9656 22.0449 25.7199C22.286 25.4378 22.286 25.001 22.0449 24.7598C22.0341 24.749 22.0243 24.7376 22.0155 24.7258L19.8652 22.5755C19.7424 22.4527 19.7424 22.2479 19.8652 22.1251C19.9881 22.0022 20.1929 22.0022 20.3158 22.1251L22.9095 24.7188C23.1506 24.96 23.592 24.9554 23.8741 24.7142C24.0107 24.5731 24.088 24.3866 24.0789 24.2045C24.0743 24.0361 24.0016 23.8815 23.8787 23.7723L23.8651 23.7586L21.2713 21.1649C21.1485 21.0421 21.1485 20.8373 21.2713 20.7144C21.3942 20.5915 21.5989 20.5915 21.7218 20.7144L23.7337 22.7263C23.7893 22.7428 23.8415 22.7746 23.8833 22.8213C23.9925 22.9441 24.1472 23.017 24.3155 23.0215C24.5021 23.0261 24.6887 22.9487 24.8297 22.8076C25.0708 22.5665 25.0663 22.1251 24.8206 21.8384C24.7023 21.7201 24.543 21.5563 24.361 21.3652C23.8241 20.8009 22.9231 19.8636 22.5818 19.6725C21.2394 18.9808 19.8516 18.2618 18.4865 17.5156C18.4273 17.5429 18.3728 17.5656 18.3227 17.5884C18.127 17.6749 18.0087 17.7249 17.9632 17.7705C17.9176 17.816 17.8631 17.9297 17.7767 18.1208C17.7403 18.1981 17.6994 18.2892 17.6493 18.3938C17.4536 18.8034 17.0759 19.0491 16.6118 19.0764C16.1021 19.1037 15.5879 18.8534 15.3377 18.453C15.1056 18.0799 15.1102 17.634 15.3513 17.1925L15.9884 16.0139L16.002 15.9867C16.1205 15.8114 16.2926 15.6295 16.4607 15.4714C16.2462 15.3942 15.9515 15.3371 15.6335 15.4178C15.0965 15.5543 14.6279 16.0321 14.232 16.8466C14.1956 16.924 14.1273 16.9831 14.05 17.0104C14.0181 17.0196 13.9862 17.0241 13.9499 17.0241C13.8998 17.0241 13.8542 17.0151 13.8088 16.9923L12.844 16.5099L10.6152 20.8248L11.4855 21.3179L11.7703 21.033C11.9933 20.8101 12.2936 20.6918 12.5984 20.7008C12.876 20.7099 13.1308 20.8283 13.3128 21.033C13.4304 21.1375 13.518 21.266 13.5738 21.4091L13.7679 21.215C13.9817 21.0012 14.2638 20.8828 14.5596 20.8828C14.8553 20.8828 15.1375 21.0011 15.3514 21.215C15.356 21.2195 15.3605 21.2287 15.3696 21.2333C15.5129 21.4004 15.6017 21.6014 15.6361 21.8081C15.9807 21.7309 16.3693 21.8144 16.6573 22.0613C16.6619 22.0659 16.671 22.0704 16.6755 22.0795Z" fill="#004C97"/>
</svg>
